<?xml version="1.0" encoding="UTF-8" standalone="no"?>
<!-- Created with Inkscape (http://www.inkscape.org/) -->

<svg
   xmlns:dc="http://purl.org/dc/elements/1.1/"
   xmlns:cc="http://creativecommons.org/ns#"
   xmlns:rdf="http://www.w3.org/1999/02/22-rdf-syntax-ns#"
   xmlns:svg="http://www.w3.org/2000/svg"
   xmlns="http://www.w3.org/2000/svg"
   xmlns:sodipodi="http://sodipodi.sourceforge.net/DTD/sodipodi-0.dtd"
   xmlns:inkscape="http://www.inkscape.org/namespaces/inkscape"
   viewBox="0 0 16 16"
   version="1.1"
   id="svg8"
   inkscape:version="0.92.2 5c3e80d, 2017-08-06"
   sodipodi:docname="touch-icon.svg">
  <defs
     id="defs2" />
  <sodipodi:namedview
     id="base"
     pagecolor="#ffffff"
     bordercolor="#666666"
     borderopacity="1.0"
     inkscape:pageopacity="0.0"
     inkscape:pageshadow="2"
     inkscape:zoom="36.4"
     inkscape:cx="6.06"
     inkscape:cy="7.8"
     inkscape:document-units="mm"
     inkscape:current-layer="layer1"
     showgrid="false"
     units="px"
     inkscape:showpageshadow="true"
     borderlayer="true"
     inkscape:pagecheckerboard="true"
     inkscape:window-width="1440"
     inkscape:window-height="855"
     inkscape:window-x="0"
     inkscape:window-y="1"
     inkscape:window-maximized="1" />
  <metadata
     id="metadata5">
    <rdf:RDF>
      <cc:Work
         rdf:about="">
        <dc:format>image/svg+xml</dc:format>
        <dc:type
           rdf:resource="http://purl.org/dc/dcmitype/StillImage" />
        <dc:title />
      </cc:Work>
    </rdf:RDF>
  </metadata>
  <g
     inkscape:label="Layer 1"
     inkscape:groupmode="layer"
     id="layer1"
     transform="translate(0,-293)">
    <rect
       style="opacity:1;fill:#ffffff;fill-opacity:1;fill-rule:nonzero;stroke:none;stroke-width:0.743;stroke-linecap:square;stroke-linejoin:miter;stroke-miterlimit:4;stroke-dasharray:none;stroke-dashoffset:0;stroke-opacity:1"
       id="rect816"
       width="16"
       height="16"
       x="0"
       y="293" />
    <path
       style="opacity:0.885;fill:#000000;fill-opacity:1;fill-rule:nonzero;stroke:none;stroke-width:0.546;stroke-linecap:square;stroke-linejoin:miter;stroke-miterlimit:4;stroke-dasharray:none;stroke-dashoffset:0;stroke-opacity:1"
       d="M 0 0 L 0 16 L 16 16 L 16 0 L 0 0 z M 7.8 3.19 C 8.33 3.19 8.87 3.23 9.43 3.32 C 9.99 3.39 10.6 3.51 11.2 3.67 L 11.2 5.71 C 10.6 5.47 10.1 5.29 9.62 5.17 C 9.11 5.05 8.64 4.99 8.19 4.99 C 7.6 4.99 7.16 5.07 6.88 5.24 C 6.59 5.4 6.45 5.66 6.45 6 C 6.45 6.26 6.55 6.46 6.73 6.61 C 6.93 6.75 7.28 6.87 7.78 6.97 L 8.84 7.19 C 9.91 7.4 10.7 7.73 11.1 8.17 C 11.6 8.61 11.8 9.23 11.8 10 C 11.8 11.1 11.5 11.9 10.8 12.4 C 10.2 12.9 9.26 13.2 7.96 13.2 C 7.35 13.2 6.74 13.1 6.13 13 C 5.51 12.9 4.9 12.7 4.28 12.5 L 4.28 10.4 C 4.9 10.7 5.49 11 6.06 11.1 C 6.64 11.3 7.19 11.4 7.73 11.4 C 8.27 11.4 8.68 11.3 8.97 11.1 C 9.26 10.9 9.4 10.7 9.4 10.3 C 9.4 10 9.31 9.81 9.11 9.64 C 8.91 9.48 8.52 9.34 7.94 9.21 L 6.98 8.99 C 6.02 8.79 5.31 8.46 4.86 8.01 C 4.42 7.55 4.2 6.95 4.2 6.18 C 4.2 5.22 4.51 4.48 5.13 3.97 C 5.75 3.45 6.64 3.19 7.8 3.19 z "
       transform="translate(0,293)"
       id="rect1366" />
  </g>
</svg>
