<?xml version="1.0" encoding="utf-8" standalone="no"?>
<!DOCTYPE svg PUBLIC "-//W3C//DTD SVG 1.1//EN"
  "http://www.w3.org/Graphics/SVG/1.1/DTD/svg11.dtd">
<!-- Created with matplotlib (https://matplotlib.org/) -->
<svg height="277.314375pt" version="1.1" viewBox="0 0 389.28125 277.314375" width="389.28125pt" xmlns="http://www.w3.org/2000/svg" xmlns:xlink="http://www.w3.org/1999/xlink">
 <defs>
  <style type="text/css">
*{stroke-linecap:butt;stroke-linejoin:round;}
  </style>
 </defs>
 <g id="figure_1">
  <g id="patch_1">
   <path d="M 0 277.314375 
L 389.28125 277.314375 
L 389.28125 0 
L 0 0 
z
" style="fill:none;"/>
  </g>
  <g id="axes_1">
   <g id="patch_2">
    <path d="M 43.78125 239.758125 
L 378.58125 239.758125 
L 378.58125 22.318125 
L 43.78125 22.318125 
z
" style="fill:#ffffff;"/>
   </g>
   <g id="matplotlib.axis_1">
    <g id="xtick_1">
     <g id="line2d_1">
      <defs>
       <path d="M 0 0 
L 0 3.5 
" id="m0bdfc67d2d" style="stroke:#000000;stroke-width:0.8;"/>
      </defs>
      <g>
       <use style="stroke:#000000;stroke-width:0.8;" x="58.999432" xlink:href="#m0bdfc67d2d" y="239.758125"/>
      </g>
     </g>
     <g id="text_1">
      <!-- 0.0 -->
      <defs>
       <path d="M 31.78125 66.40625 
Q 24.171875 66.40625 20.328125 58.90625 
Q 16.5 51.421875 16.5 36.375 
Q 16.5 21.390625 20.328125 13.890625 
Q 24.171875 6.390625 31.78125 6.390625 
Q 39.453125 6.390625 43.28125 13.890625 
Q 47.125 21.390625 47.125 36.375 
Q 47.125 51.421875 43.28125 58.90625 
Q 39.453125 66.40625 31.78125 66.40625 
z
M 31.78125 74.21875 
Q 44.046875 74.21875 50.515625 64.515625 
Q 56.984375 54.828125 56.984375 36.375 
Q 56.984375 17.96875 50.515625 8.265625 
Q 44.046875 -1.421875 31.78125 -1.421875 
Q 19.53125 -1.421875 13.0625 8.265625 
Q 6.59375 17.96875 6.59375 36.375 
Q 6.59375 54.828125 13.0625 64.515625 
Q 19.53125 74.21875 31.78125 74.21875 
z
" id="DejaVuSans-48"/>
       <path d="M 10.6875 12.40625 
L 21 12.40625 
L 21 0 
L 10.6875 0 
z
" id="DejaVuSans-46"/>
      </defs>
      <g transform="translate(51.047869 254.356562)scale(0.1 -0.1)">
       <use xlink:href="#DejaVuSans-48"/>
       <use x="63.623047" xlink:href="#DejaVuSans-46"/>
       <use x="95.410156" xlink:href="#DejaVuSans-48"/>
      </g>
     </g>
    </g>
    <g id="xtick_2">
     <g id="line2d_2">
      <g>
       <use style="stroke:#000000;stroke-width:0.8;" x="119.872159" xlink:href="#m0bdfc67d2d" y="239.758125"/>
      </g>
     </g>
     <g id="text_2">
      <!-- 0.2 -->
      <defs>
       <path d="M 19.1875 8.296875 
L 53.609375 8.296875 
L 53.609375 0 
L 7.328125 0 
L 7.328125 8.296875 
Q 12.9375 14.109375 22.625 23.890625 
Q 32.328125 33.6875 34.8125 36.53125 
Q 39.546875 41.84375 41.421875 45.53125 
Q 43.3125 49.21875 43.3125 52.78125 
Q 43.3125 58.59375 39.234375 62.25 
Q 35.15625 65.921875 28.609375 65.921875 
Q 23.96875 65.921875 18.8125 64.3125 
Q 13.671875 62.703125 7.8125 59.421875 
L 7.8125 69.390625 
Q 13.765625 71.78125 18.9375 73 
Q 24.125 74.21875 28.421875 74.21875 
Q 39.75 74.21875 46.484375 68.546875 
Q 53.21875 62.890625 53.21875 53.421875 
Q 53.21875 48.921875 51.53125 44.890625 
Q 49.859375 40.875 45.40625 35.40625 
Q 44.1875 33.984375 37.640625 27.21875 
Q 31.109375 20.453125 19.1875 8.296875 
z
" id="DejaVuSans-50"/>
      </defs>
      <g transform="translate(111.920597 254.356562)scale(0.1 -0.1)">
       <use xlink:href="#DejaVuSans-48"/>
       <use x="63.623047" xlink:href="#DejaVuSans-46"/>
       <use x="95.410156" xlink:href="#DejaVuSans-50"/>
      </g>
     </g>
    </g>
    <g id="xtick_3">
     <g id="line2d_3">
      <g>
       <use style="stroke:#000000;stroke-width:0.8;" x="180.744886" xlink:href="#m0bdfc67d2d" y="239.758125"/>
      </g>
     </g>
     <g id="text_3">
      <!-- 0.4 -->
      <defs>
       <path d="M 37.796875 64.3125 
L 12.890625 25.390625 
L 37.796875 25.390625 
z
M 35.203125 72.90625 
L 47.609375 72.90625 
L 47.609375 25.390625 
L 58.015625 25.390625 
L 58.015625 17.1875 
L 47.609375 17.1875 
L 47.609375 0 
L 37.796875 0 
L 37.796875 17.1875 
L 4.890625 17.1875 
L 4.890625 26.703125 
z
" id="DejaVuSans-52"/>
      </defs>
      <g transform="translate(172.793324 254.356562)scale(0.1 -0.1)">
       <use xlink:href="#DejaVuSans-48"/>
       <use x="63.623047" xlink:href="#DejaVuSans-46"/>
       <use x="95.410156" xlink:href="#DejaVuSans-52"/>
      </g>
     </g>
    </g>
    <g id="xtick_4">
     <g id="line2d_4">
      <g>
       <use style="stroke:#000000;stroke-width:0.8;" x="241.617614" xlink:href="#m0bdfc67d2d" y="239.758125"/>
      </g>
     </g>
     <g id="text_4">
      <!-- 0.6 -->
      <defs>
       <path d="M 33.015625 40.375 
Q 26.375 40.375 22.484375 35.828125 
Q 18.609375 31.296875 18.609375 23.390625 
Q 18.609375 15.53125 22.484375 10.953125 
Q 26.375 6.390625 33.015625 6.390625 
Q 39.65625 6.390625 43.53125 10.953125 
Q 47.40625 15.53125 47.40625 23.390625 
Q 47.40625 31.296875 43.53125 35.828125 
Q 39.65625 40.375 33.015625 40.375 
z
M 52.59375 71.296875 
L 52.59375 62.3125 
Q 48.875 64.0625 45.09375 64.984375 
Q 41.3125 65.921875 37.59375 65.921875 
Q 27.828125 65.921875 22.671875 59.328125 
Q 17.53125 52.734375 16.796875 39.40625 
Q 19.671875 43.65625 24.015625 45.921875 
Q 28.375 48.1875 33.59375 48.1875 
Q 44.578125 48.1875 50.953125 41.515625 
Q 57.328125 34.859375 57.328125 23.390625 
Q 57.328125 12.15625 50.6875 5.359375 
Q 44.046875 -1.421875 33.015625 -1.421875 
Q 20.359375 -1.421875 13.671875 8.265625 
Q 6.984375 17.96875 6.984375 36.375 
Q 6.984375 53.65625 15.1875 63.9375 
Q 23.390625 74.21875 37.203125 74.21875 
Q 40.921875 74.21875 44.703125 73.484375 
Q 48.484375 72.75 52.59375 71.296875 
z
" id="DejaVuSans-54"/>
      </defs>
      <g transform="translate(233.666051 254.356562)scale(0.1 -0.1)">
       <use xlink:href="#DejaVuSans-48"/>
       <use x="63.623047" xlink:href="#DejaVuSans-46"/>
       <use x="95.410156" xlink:href="#DejaVuSans-54"/>
      </g>
     </g>
    </g>
    <g id="xtick_5">
     <g id="line2d_5">
      <g>
       <use style="stroke:#000000;stroke-width:0.8;" x="302.490341" xlink:href="#m0bdfc67d2d" y="239.758125"/>
      </g>
     </g>
     <g id="text_5">
      <!-- 0.8 -->
      <defs>
       <path d="M 31.78125 34.625 
Q 24.75 34.625 20.71875 30.859375 
Q 16.703125 27.09375 16.703125 20.515625 
Q 16.703125 13.921875 20.71875 10.15625 
Q 24.75 6.390625 31.78125 6.390625 
Q 38.8125 6.390625 42.859375 10.171875 
Q 46.921875 13.96875 46.921875 20.515625 
Q 46.921875 27.09375 42.890625 30.859375 
Q 38.875 34.625 31.78125 34.625 
z
M 21.921875 38.8125 
Q 15.578125 40.375 12.03125 44.71875 
Q 8.5 49.078125 8.5 55.328125 
Q 8.5 64.0625 14.71875 69.140625 
Q 20.953125 74.21875 31.78125 74.21875 
Q 42.671875 74.21875 48.875 69.140625 
Q 55.078125 64.0625 55.078125 55.328125 
Q 55.078125 49.078125 51.53125 44.71875 
Q 48 40.375 41.703125 38.8125 
Q 48.828125 37.15625 52.796875 32.3125 
Q 56.78125 27.484375 56.78125 20.515625 
Q 56.78125 9.90625 50.3125 4.234375 
Q 43.84375 -1.421875 31.78125 -1.421875 
Q 19.734375 -1.421875 13.25 4.234375 
Q 6.78125 9.90625 6.78125 20.515625 
Q 6.78125 27.484375 10.78125 32.3125 
Q 14.796875 37.15625 21.921875 38.8125 
z
M 18.3125 54.390625 
Q 18.3125 48.734375 21.84375 45.5625 
Q 25.390625 42.390625 31.78125 42.390625 
Q 38.140625 42.390625 41.71875 45.5625 
Q 45.3125 48.734375 45.3125 54.390625 
Q 45.3125 60.0625 41.71875 63.234375 
Q 38.140625 66.40625 31.78125 66.40625 
Q 25.390625 66.40625 21.84375 63.234375 
Q 18.3125 60.0625 18.3125 54.390625 
z
" id="DejaVuSans-56"/>
      </defs>
      <g transform="translate(294.538778 254.356562)scale(0.1 -0.1)">
       <use xlink:href="#DejaVuSans-48"/>
       <use x="63.623047" xlink:href="#DejaVuSans-46"/>
       <use x="95.410156" xlink:href="#DejaVuSans-56"/>
      </g>
     </g>
    </g>
    <g id="xtick_6">
     <g id="line2d_6">
      <g>
       <use style="stroke:#000000;stroke-width:0.8;" x="363.363068" xlink:href="#m0bdfc67d2d" y="239.758125"/>
      </g>
     </g>
     <g id="text_6">
      <!-- 1.0 -->
      <defs>
       <path d="M 12.40625 8.296875 
L 28.515625 8.296875 
L 28.515625 63.921875 
L 10.984375 60.40625 
L 10.984375 69.390625 
L 28.421875 72.90625 
L 38.28125 72.90625 
L 38.28125 8.296875 
L 54.390625 8.296875 
L 54.390625 0 
L 12.40625 0 
z
" id="DejaVuSans-49"/>
      </defs>
      <g transform="translate(355.411506 254.356562)scale(0.1 -0.1)">
       <use xlink:href="#DejaVuSans-49"/>
       <use x="63.623047" xlink:href="#DejaVuSans-46"/>
       <use x="95.410156" xlink:href="#DejaVuSans-48"/>
      </g>
     </g>
    </g>
    <g id="text_7">
     <!-- t -->
     <defs>
      <path d="M 18.3125 70.21875 
L 18.3125 54.6875 
L 36.8125 54.6875 
L 36.8125 47.703125 
L 18.3125 47.703125 
L 18.3125 18.015625 
Q 18.3125 11.328125 20.140625 9.421875 
Q 21.96875 7.515625 27.59375 7.515625 
L 36.8125 7.515625 
L 36.8125 0 
L 27.59375 0 
Q 17.1875 0 13.234375 3.875 
Q 9.28125 7.765625 9.28125 18.015625 
L 9.28125 47.703125 
L 2.6875 47.703125 
L 2.6875 54.6875 
L 9.28125 54.6875 
L 9.28125 70.21875 
z
" id="DejaVuSans-116"/>
     </defs>
     <g transform="translate(209.221094 268.034687)scale(0.1 -0.1)">
      <use xlink:href="#DejaVuSans-116"/>
     </g>
    </g>
   </g>
   <g id="matplotlib.axis_2">
    <g id="ytick_1">
     <g id="line2d_7">
      <defs>
       <path d="M 0 0 
L -3.5 0 
" id="m0e83b867e5" style="stroke:#000000;stroke-width:0.8;"/>
      </defs>
      <g>
       <use style="stroke:#000000;stroke-width:0.8;" x="43.78125" xlink:href="#m0e83b867e5" y="233.289634"/>
      </g>
     </g>
     <g id="text_8">
      <!-- 0.0 -->
      <g transform="translate(20.878125 237.088853)scale(0.1 -0.1)">
       <use xlink:href="#DejaVuSans-48"/>
       <use x="63.623047" xlink:href="#DejaVuSans-46"/>
       <use x="95.410156" xlink:href="#DejaVuSans-48"/>
      </g>
     </g>
    </g>
    <g id="ytick_2">
     <g id="line2d_8">
      <g>
       <use style="stroke:#000000;stroke-width:0.8;" x="43.78125" xlink:href="#m0e83b867e5" y="195.263184"/>
      </g>
     </g>
     <g id="text_9">
      <!-- 0.2 -->
      <g transform="translate(20.878125 199.062403)scale(0.1 -0.1)">
       <use xlink:href="#DejaVuSans-48"/>
       <use x="63.623047" xlink:href="#DejaVuSans-46"/>
       <use x="95.410156" xlink:href="#DejaVuSans-50"/>
      </g>
     </g>
    </g>
    <g id="ytick_3">
     <g id="line2d_9">
      <g>
       <use style="stroke:#000000;stroke-width:0.8;" x="43.78125" xlink:href="#m0e83b867e5" y="157.236735"/>
      </g>
     </g>
     <g id="text_10">
      <!-- 0.4 -->
      <g transform="translate(20.878125 161.035954)scale(0.1 -0.1)">
       <use xlink:href="#DejaVuSans-48"/>
       <use x="63.623047" xlink:href="#DejaVuSans-46"/>
       <use x="95.410156" xlink:href="#DejaVuSans-52"/>
      </g>
     </g>
    </g>
    <g id="ytick_4">
     <g id="line2d_10">
      <g>
       <use style="stroke:#000000;stroke-width:0.8;" x="43.78125" xlink:href="#m0e83b867e5" y="119.210285"/>
      </g>
     </g>
     <g id="text_11">
      <!-- 0.6 -->
      <g transform="translate(20.878125 123.009504)scale(0.1 -0.1)">
       <use xlink:href="#DejaVuSans-48"/>
       <use x="63.623047" xlink:href="#DejaVuSans-46"/>
       <use x="95.410156" xlink:href="#DejaVuSans-54"/>
      </g>
     </g>
    </g>
    <g id="ytick_5">
     <g id="line2d_11">
      <g>
       <use style="stroke:#000000;stroke-width:0.8;" x="43.78125" xlink:href="#m0e83b867e5" y="81.183836"/>
      </g>
     </g>
     <g id="text_12">
      <!-- 0.8 -->
      <g transform="translate(20.878125 84.983054)scale(0.1 -0.1)">
       <use xlink:href="#DejaVuSans-48"/>
       <use x="63.623047" xlink:href="#DejaVuSans-46"/>
       <use x="95.410156" xlink:href="#DejaVuSans-56"/>
      </g>
     </g>
    </g>
    <g id="ytick_6">
     <g id="line2d_12">
      <g>
       <use style="stroke:#000000;stroke-width:0.8;" x="43.78125" xlink:href="#m0e83b867e5" y="43.157386"/>
      </g>
     </g>
     <g id="text_13">
      <!-- 1.0 -->
      <g transform="translate(20.878125 46.956605)scale(0.1 -0.1)">
       <use xlink:href="#DejaVuSans-49"/>
       <use x="63.623047" xlink:href="#DejaVuSans-46"/>
       <use x="95.410156" xlink:href="#DejaVuSans-48"/>
      </g>
     </g>
    </g>
    <g id="text_14">
     <!-- y -->
     <defs>
      <path d="M 32.171875 -5.078125 
Q 28.375 -14.84375 24.75 -17.8125 
Q 21.140625 -20.796875 15.09375 -20.796875 
L 7.90625 -20.796875 
L 7.90625 -13.28125 
L 13.1875 -13.28125 
Q 16.890625 -13.28125 18.9375 -11.515625 
Q 21 -9.765625 23.484375 -3.21875 
L 25.09375 0.875 
L 2.984375 54.6875 
L 12.5 54.6875 
L 29.59375 11.921875 
L 46.6875 54.6875 
L 56.203125 54.6875 
z
" id="DejaVuSans-121"/>
     </defs>
     <g transform="translate(14.798438 133.9975)rotate(-90)scale(0.1 -0.1)">
      <use xlink:href="#DejaVuSans-121"/>
     </g>
    </g>
   </g>
   <g id="line2d_13">
    <path clip-path="url(#pec43e4c60d)" d="M 58.999432 227.921103 
L 65.210935 229.158349 
L 71.422437 229.418039 
L 77.63394 219.749519 
L 83.845443 228.731246 
L 90.056946 214.506011 
L 96.268449 223.20977 
L 102.479951 218.932547 
L 108.691454 210.802689 
L 114.902957 209.955676 
L 121.11446 209.982883 
L 127.325962 210.589533 
L 133.537465 209.426355 
L 139.748968 207.661641 
L 145.960471 202.803734 
L 152.171974 203.243093 
L 158.383476 192.255999 
L 164.594979 196.455768 
L 170.806482 174.992229 
L 177.017985 177.383671 
L 183.229487 164.164714 
L 189.44099 156.419481 
L 195.652493 153.590283 
L 201.863996 137.915289 
L 208.075499 140.29432 
L 214.287001 123.893882 
L 220.498504 107.997406 
L 226.710007 113.462077 
L 232.92151 105.588316 
L 239.133013 90.013973 
L 245.344515 88.913418 
L 251.556018 73.294289 
L 257.767521 60.033617 
L 263.979024 62.347645 
L 270.190526 66.413234 
L 276.402029 46.26112 
L 282.613532 46.29453 
L 288.825035 54.532811 
L 295.036538 51.662398 
L 301.24804 45.594553 
L 307.459543 43.611642 
L 313.671046 46.532093 
L 319.882549 42.937797 
L 326.094051 46.278471 
L 332.305554 33.65109 
L 338.517057 33.276419 
L 344.72856 38.145759 
L 350.940063 32.201761 
L 357.151565 38.107877 
L 363.363068 33.39189 
" style="fill:none;stroke:#1f77b4;stroke-linecap:square;stroke-width:1.5;"/>
    <defs>
     <path d="M 0 1.5 
C 0.397805 1.5 0.77937 1.341951 1.06066 1.06066 
C 1.341951 0.77937 1.5 0.397805 1.5 0 
C 1.5 -0.397805 1.341951 -0.77937 1.06066 -1.06066 
C 0.77937 -1.341951 0.397805 -1.5 0 -1.5 
C -0.397805 -1.5 -0.77937 -1.341951 -1.06066 -1.06066 
C -1.341951 -0.77937 -1.5 -0.397805 -1.5 0 
C -1.5 0.397805 -1.341951 0.77937 -1.06066 1.06066 
C -0.77937 1.341951 -0.397805 1.5 0 1.5 
z
" id="mbaf4183079" style="stroke:#1f77b4;"/>
    </defs>
    <g clip-path="url(#pec43e4c60d)">
     <use style="fill:#1f77b4;stroke:#1f77b4;" x="58.999432" xlink:href="#mbaf4183079" y="227.921103"/>
     <use style="fill:#1f77b4;stroke:#1f77b4;" x="65.210935" xlink:href="#mbaf4183079" y="229.158349"/>
     <use style="fill:#1f77b4;stroke:#1f77b4;" x="71.422437" xlink:href="#mbaf4183079" y="229.418039"/>
     <use style="fill:#1f77b4;stroke:#1f77b4;" x="77.63394" xlink:href="#mbaf4183079" y="219.749519"/>
     <use style="fill:#1f77b4;stroke:#1f77b4;" x="83.845443" xlink:href="#mbaf4183079" y="228.731246"/>
     <use style="fill:#1f77b4;stroke:#1f77b4;" x="90.056946" xlink:href="#mbaf4183079" y="214.506011"/>
     <use style="fill:#1f77b4;stroke:#1f77b4;" x="96.268449" xlink:href="#mbaf4183079" y="223.20977"/>
     <use style="fill:#1f77b4;stroke:#1f77b4;" x="102.479951" xlink:href="#mbaf4183079" y="218.932547"/>
     <use style="fill:#1f77b4;stroke:#1f77b4;" x="108.691454" xlink:href="#mbaf4183079" y="210.802689"/>
     <use style="fill:#1f77b4;stroke:#1f77b4;" x="114.902957" xlink:href="#mbaf4183079" y="209.955676"/>
     <use style="fill:#1f77b4;stroke:#1f77b4;" x="121.11446" xlink:href="#mbaf4183079" y="209.982883"/>
     <use style="fill:#1f77b4;stroke:#1f77b4;" x="127.325962" xlink:href="#mbaf4183079" y="210.589533"/>
     <use style="fill:#1f77b4;stroke:#1f77b4;" x="133.537465" xlink:href="#mbaf4183079" y="209.426355"/>
     <use style="fill:#1f77b4;stroke:#1f77b4;" x="139.748968" xlink:href="#mbaf4183079" y="207.661641"/>
     <use style="fill:#1f77b4;stroke:#1f77b4;" x="145.960471" xlink:href="#mbaf4183079" y="202.803734"/>
     <use style="fill:#1f77b4;stroke:#1f77b4;" x="152.171974" xlink:href="#mbaf4183079" y="203.243093"/>
     <use style="fill:#1f77b4;stroke:#1f77b4;" x="158.383476" xlink:href="#mbaf4183079" y="192.255999"/>
     <use style="fill:#1f77b4;stroke:#1f77b4;" x="164.594979" xlink:href="#mbaf4183079" y="196.455768"/>
     <use style="fill:#1f77b4;stroke:#1f77b4;" x="170.806482" xlink:href="#mbaf4183079" y="174.992229"/>
     <use style="fill:#1f77b4;stroke:#1f77b4;" x="177.017985" xlink:href="#mbaf4183079" y="177.383671"/>
     <use style="fill:#1f77b4;stroke:#1f77b4;" x="183.229487" xlink:href="#mbaf4183079" y="164.164714"/>
     <use style="fill:#1f77b4;stroke:#1f77b4;" x="189.44099" xlink:href="#mbaf4183079" y="156.419481"/>
     <use style="fill:#1f77b4;stroke:#1f77b4;" x="195.652493" xlink:href="#mbaf4183079" y="153.590283"/>
     <use style="fill:#1f77b4;stroke:#1f77b4;" x="201.863996" xlink:href="#mbaf4183079" y="137.915289"/>
     <use style="fill:#1f77b4;stroke:#1f77b4;" x="208.075499" xlink:href="#mbaf4183079" y="140.29432"/>
     <use style="fill:#1f77b4;stroke:#1f77b4;" x="214.287001" xlink:href="#mbaf4183079" y="123.893882"/>
     <use style="fill:#1f77b4;stroke:#1f77b4;" x="220.498504" xlink:href="#mbaf4183079" y="107.997406"/>
     <use style="fill:#1f77b4;stroke:#1f77b4;" x="226.710007" xlink:href="#mbaf4183079" y="113.462077"/>
     <use style="fill:#1f77b4;stroke:#1f77b4;" x="232.92151" xlink:href="#mbaf4183079" y="105.588316"/>
     <use style="fill:#1f77b4;stroke:#1f77b4;" x="239.133013" xlink:href="#mbaf4183079" y="90.013973"/>
     <use style="fill:#1f77b4;stroke:#1f77b4;" x="245.344515" xlink:href="#mbaf4183079" y="88.913418"/>
     <use style="fill:#1f77b4;stroke:#1f77b4;" x="251.556018" xlink:href="#mbaf4183079" y="73.294289"/>
     <use style="fill:#1f77b4;stroke:#1f77b4;" x="257.767521" xlink:href="#mbaf4183079" y="60.033617"/>
     <use style="fill:#1f77b4;stroke:#1f77b4;" x="263.979024" xlink:href="#mbaf4183079" y="62.347645"/>
     <use style="fill:#1f77b4;stroke:#1f77b4;" x="270.190526" xlink:href="#mbaf4183079" y="66.413234"/>
     <use style="fill:#1f77b4;stroke:#1f77b4;" x="276.402029" xlink:href="#mbaf4183079" y="46.26112"/>
     <use style="fill:#1f77b4;stroke:#1f77b4;" x="282.613532" xlink:href="#mbaf4183079" y="46.29453"/>
     <use style="fill:#1f77b4;stroke:#1f77b4;" x="288.825035" xlink:href="#mbaf4183079" y="54.532811"/>
     <use style="fill:#1f77b4;stroke:#1f77b4;" x="295.036538" xlink:href="#mbaf4183079" y="51.662398"/>
     <use style="fill:#1f77b4;stroke:#1f77b4;" x="301.24804" xlink:href="#mbaf4183079" y="45.594553"/>
     <use style="fill:#1f77b4;stroke:#1f77b4;" x="307.459543" xlink:href="#mbaf4183079" y="43.611642"/>
     <use style="fill:#1f77b4;stroke:#1f77b4;" x="313.671046" xlink:href="#mbaf4183079" y="46.532093"/>
     <use style="fill:#1f77b4;stroke:#1f77b4;" x="319.882549" xlink:href="#mbaf4183079" y="42.937797"/>
     <use style="fill:#1f77b4;stroke:#1f77b4;" x="326.094051" xlink:href="#mbaf4183079" y="46.278471"/>
     <use style="fill:#1f77b4;stroke:#1f77b4;" x="332.305554" xlink:href="#mbaf4183079" y="33.65109"/>
     <use style="fill:#1f77b4;stroke:#1f77b4;" x="338.517057" xlink:href="#mbaf4183079" y="33.276419"/>
     <use style="fill:#1f77b4;stroke:#1f77b4;" x="344.72856" xlink:href="#mbaf4183079" y="38.145759"/>
     <use style="fill:#1f77b4;stroke:#1f77b4;" x="350.940063" xlink:href="#mbaf4183079" y="32.201761"/>
     <use style="fill:#1f77b4;stroke:#1f77b4;" x="357.151565" xlink:href="#mbaf4183079" y="38.107877"/>
     <use style="fill:#1f77b4;stroke:#1f77b4;" x="363.363068" xlink:href="#mbaf4183079" y="33.39189"/>
    </g>
   </g>
   <g id="line2d_14">
    <path clip-path="url(#pec43e4c60d)" d="M 58.999432 229.874489 
L 65.210935 229.257511 
L 71.422437 228.531732 
L 77.63394 227.679002 
L 83.845443 226.678546 
L 90.056946 225.506738 
L 96.268449 224.13692 
L 102.479951 222.539305 
L 108.691454 220.680987 
L 114.902957 218.526141 
L 121.11446 216.036445 
L 127.325962 213.171826 
L 133.537465 209.891581 
L 139.748968 206.155955 
L 145.960471 201.928214 
L 152.171974 197.177209 
L 158.383476 191.880377 
L 164.594979 186.026998 
L 170.806482 179.62147 
L 177.017985 172.686201 
L 183.229487 165.263702 
L 189.44099 157.417404 
L 195.652493 149.230822 
L 201.863996 140.804868 
L 208.075499 132.253372 
L 214.287001 123.697156 
L 220.498504 115.257311 
L 226.710007 107.048431 
L 232.92151 99.172608 
L 239.133013 91.714822 
L 245.344515 84.74011 
L 251.556018 78.292589 
L 257.767521 72.396161 
L 263.979024 67.056519 
L 270.190526 62.263998 
L 276.402029 57.996831 
L 282.613532 54.224422 
L 288.825035 50.910372 
L 295.036538 48.015077 
L 301.24804 45.497847 
L 307.459543 43.318513 
L 313.671046 41.438588 
L 319.882549 39.822034 
L 326.094051 38.435712 
L 332.305554 37.249588 
L 338.517057 36.236768 
L 344.72856 35.373395 
L 350.940063 34.638483 
L 357.151565 34.013687 
L 363.363068 33.483064 
" style="fill:none;stroke:#ff7f0e;stroke-linecap:square;stroke-width:1.5;"/>
   </g>
   <g id="patch_3">
    <path d="M 43.78125 239.758125 
L 43.78125 22.318125 
" style="fill:none;stroke:#000000;stroke-linecap:square;stroke-linejoin:miter;stroke-width:0.8;"/>
   </g>
   <g id="patch_4">
    <path d="M 378.58125 239.758125 
L 378.58125 22.318125 
" style="fill:none;stroke:#000000;stroke-linecap:square;stroke-linejoin:miter;stroke-width:0.8;"/>
   </g>
   <g id="patch_5">
    <path d="M 43.78125 239.758125 
L 378.58125 239.758125 
" style="fill:none;stroke:#000000;stroke-linecap:square;stroke-linejoin:miter;stroke-width:0.8;"/>
   </g>
   <g id="patch_6">
    <path d="M 43.78125 22.318125 
L 378.58125 22.318125 
" style="fill:none;stroke:#000000;stroke-linecap:square;stroke-linejoin:miter;stroke-width:0.8;"/>
   </g>
   <g id="text_15">
    <!-- Logistic function -->
    <defs>
     <path d="M 9.8125 72.90625 
L 19.671875 72.90625 
L 19.671875 8.296875 
L 55.171875 8.296875 
L 55.171875 0 
L 9.8125 0 
z
" id="DejaVuSans-76"/>
     <path d="M 30.609375 48.390625 
Q 23.390625 48.390625 19.1875 42.75 
Q 14.984375 37.109375 14.984375 27.296875 
Q 14.984375 17.484375 19.15625 11.84375 
Q 23.34375 6.203125 30.609375 6.203125 
Q 37.796875 6.203125 41.984375 11.859375 
Q 46.1875 17.53125 46.1875 27.296875 
Q 46.1875 37.015625 41.984375 42.703125 
Q 37.796875 48.390625 30.609375 48.390625 
z
M 30.609375 56 
Q 42.328125 56 49.015625 48.375 
Q 55.71875 40.765625 55.71875 27.296875 
Q 55.71875 13.875 49.015625 6.21875 
Q 42.328125 -1.421875 30.609375 -1.421875 
Q 18.84375 -1.421875 12.171875 6.21875 
Q 5.515625 13.875 5.515625 27.296875 
Q 5.515625 40.765625 12.171875 48.375 
Q 18.84375 56 30.609375 56 
z
" id="DejaVuSans-111"/>
     <path d="M 45.40625 27.984375 
Q 45.40625 37.75 41.375 43.109375 
Q 37.359375 48.484375 30.078125 48.484375 
Q 22.859375 48.484375 18.828125 43.109375 
Q 14.796875 37.75 14.796875 27.984375 
Q 14.796875 18.265625 18.828125 12.890625 
Q 22.859375 7.515625 30.078125 7.515625 
Q 37.359375 7.515625 41.375 12.890625 
Q 45.40625 18.265625 45.40625 27.984375 
z
M 54.390625 6.78125 
Q 54.390625 -7.171875 48.1875 -13.984375 
Q 42 -20.796875 29.203125 -20.796875 
Q 24.46875 -20.796875 20.265625 -20.09375 
Q 16.0625 -19.390625 12.109375 -17.921875 
L 12.109375 -9.1875 
Q 16.0625 -11.328125 19.921875 -12.34375 
Q 23.78125 -13.375 27.78125 -13.375 
Q 36.625 -13.375 41.015625 -8.765625 
Q 45.40625 -4.15625 45.40625 5.171875 
L 45.40625 9.625 
Q 42.625 4.78125 38.28125 2.390625 
Q 33.9375 0 27.875 0 
Q 17.828125 0 11.671875 7.65625 
Q 5.515625 15.328125 5.515625 27.984375 
Q 5.515625 40.671875 11.671875 48.328125 
Q 17.828125 56 27.875 56 
Q 33.9375 56 38.28125 53.609375 
Q 42.625 51.21875 45.40625 46.390625 
L 45.40625 54.6875 
L 54.390625 54.6875 
z
" id="DejaVuSans-103"/>
     <path d="M 9.421875 54.6875 
L 18.40625 54.6875 
L 18.40625 0 
L 9.421875 0 
z
M 9.421875 75.984375 
L 18.40625 75.984375 
L 18.40625 64.59375 
L 9.421875 64.59375 
z
" id="DejaVuSans-105"/>
     <path d="M 44.28125 53.078125 
L 44.28125 44.578125 
Q 40.484375 46.53125 36.375 47.5 
Q 32.28125 48.484375 27.875 48.484375 
Q 21.1875 48.484375 17.84375 46.4375 
Q 14.5 44.390625 14.5 40.28125 
Q 14.5 37.15625 16.890625 35.375 
Q 19.28125 33.59375 26.515625 31.984375 
L 29.59375 31.296875 
Q 39.15625 29.25 43.1875 25.515625 
Q 47.21875 21.78125 47.21875 15.09375 
Q 47.21875 7.46875 41.1875 3.015625 
Q 35.15625 -1.421875 24.609375 -1.421875 
Q 20.21875 -1.421875 15.453125 -0.5625 
Q 10.6875 0.296875 5.421875 2 
L 5.421875 11.28125 
Q 10.40625 8.6875 15.234375 7.390625 
Q 20.0625 6.109375 24.8125 6.109375 
Q 31.15625 6.109375 34.5625 8.28125 
Q 37.984375 10.453125 37.984375 14.40625 
Q 37.984375 18.0625 35.515625 20.015625 
Q 33.0625 21.96875 24.703125 23.78125 
L 21.578125 24.515625 
Q 13.234375 26.265625 9.515625 29.90625 
Q 5.8125 33.546875 5.8125 39.890625 
Q 5.8125 47.609375 11.28125 51.796875 
Q 16.75 56 26.8125 56 
Q 31.78125 56 36.171875 55.265625 
Q 40.578125 54.546875 44.28125 53.078125 
z
" id="DejaVuSans-115"/>
     <path d="M 48.78125 52.59375 
L 48.78125 44.1875 
Q 44.96875 46.296875 41.140625 47.34375 
Q 37.3125 48.390625 33.40625 48.390625 
Q 24.65625 48.390625 19.8125 42.84375 
Q 14.984375 37.3125 14.984375 27.296875 
Q 14.984375 17.28125 19.8125 11.734375 
Q 24.65625 6.203125 33.40625 6.203125 
Q 37.3125 6.203125 41.140625 7.25 
Q 44.96875 8.296875 48.78125 10.40625 
L 48.78125 2.09375 
Q 45.015625 0.34375 40.984375 -0.53125 
Q 36.96875 -1.421875 32.421875 -1.421875 
Q 20.0625 -1.421875 12.78125 6.34375 
Q 5.515625 14.109375 5.515625 27.296875 
Q 5.515625 40.671875 12.859375 48.328125 
Q 20.21875 56 33.015625 56 
Q 37.15625 56 41.109375 55.140625 
Q 45.0625 54.296875 48.78125 52.59375 
z
" id="DejaVuSans-99"/>
     <path id="DejaVuSans-32"/>
     <path d="M 37.109375 75.984375 
L 37.109375 68.5 
L 28.515625 68.5 
Q 23.6875 68.5 21.796875 66.546875 
Q 19.921875 64.59375 19.921875 59.515625 
L 19.921875 54.6875 
L 34.71875 54.6875 
L 34.71875 47.703125 
L 19.921875 47.703125 
L 19.921875 0 
L 10.890625 0 
L 10.890625 47.703125 
L 2.296875 47.703125 
L 2.296875 54.6875 
L 10.890625 54.6875 
L 10.890625 58.5 
Q 10.890625 67.625 15.140625 71.796875 
Q 19.390625 75.984375 28.609375 75.984375 
z
" id="DejaVuSans-102"/>
     <path d="M 8.5 21.578125 
L 8.5 54.6875 
L 17.484375 54.6875 
L 17.484375 21.921875 
Q 17.484375 14.15625 20.5 10.265625 
Q 23.53125 6.390625 29.59375 6.390625 
Q 36.859375 6.390625 41.078125 11.03125 
Q 45.3125 15.671875 45.3125 23.6875 
L 45.3125 54.6875 
L 54.296875 54.6875 
L 54.296875 0 
L 45.3125 0 
L 45.3125 8.40625 
Q 42.046875 3.421875 37.71875 1 
Q 33.40625 -1.421875 27.6875 -1.421875 
Q 18.265625 -1.421875 13.375 4.4375 
Q 8.5 10.296875 8.5 21.578125 
z
M 31.109375 56 
z
" id="DejaVuSans-117"/>
     <path d="M 54.890625 33.015625 
L 54.890625 0 
L 45.90625 0 
L 45.90625 32.71875 
Q 45.90625 40.484375 42.875 44.328125 
Q 39.84375 48.1875 33.796875 48.1875 
Q 26.515625 48.1875 22.3125 43.546875 
Q 18.109375 38.921875 18.109375 30.90625 
L 18.109375 0 
L 9.078125 0 
L 9.078125 54.6875 
L 18.109375 54.6875 
L 18.109375 46.1875 
Q 21.34375 51.125 25.703125 53.5625 
Q 30.078125 56 35.796875 56 
Q 45.21875 56 50.046875 50.171875 
Q 54.890625 44.34375 54.890625 33.015625 
z
" id="DejaVuSans-110"/>
    </defs>
    <g transform="translate(161.832188 16.318125)scale(0.12 -0.12)">
     <use xlink:href="#DejaVuSans-76"/>
     <use x="55.697266" xlink:href="#DejaVuSans-111"/>
     <use x="116.878906" xlink:href="#DejaVuSans-103"/>
     <use x="180.355469" xlink:href="#DejaVuSans-105"/>
     <use x="208.138672" xlink:href="#DejaVuSans-115"/>
     <use x="260.238281" xlink:href="#DejaVuSans-116"/>
     <use x="299.447266" xlink:href="#DejaVuSans-105"/>
     <use x="327.230469" xlink:href="#DejaVuSans-99"/>
     <use x="382.210938" xlink:href="#DejaVuSans-32"/>
     <use x="413.998047" xlink:href="#DejaVuSans-102"/>
     <use x="449.203125" xlink:href="#DejaVuSans-117"/>
     <use x="512.582031" xlink:href="#DejaVuSans-110"/>
     <use x="575.960938" xlink:href="#DejaVuSans-99"/>
     <use x="630.941406" xlink:href="#DejaVuSans-116"/>
     <use x="670.150391" xlink:href="#DejaVuSans-105"/>
     <use x="697.933594" xlink:href="#DejaVuSans-111"/>
     <use x="759.115234" xlink:href="#DejaVuSans-110"/>
    </g>
   </g>
   <g id="legend_1">
    <g id="patch_7">
     <path d="M 157.846875 234.758125 
L 371.58125 234.758125 
Q 373.58125 234.758125 373.58125 232.758125 
L 373.58125 203.845625 
Q 373.58125 201.845625 371.58125 201.845625 
L 157.846875 201.845625 
Q 155.846875 201.845625 155.846875 203.845625 
L 155.846875 232.758125 
Q 155.846875 234.758125 157.846875 234.758125 
z
" style="fill:#ffffff;opacity:0.8;stroke:#cccccc;stroke-linejoin:miter;"/>
    </g>
    <g id="line2d_15">
     <path d="M 159.846875 209.944062 
L 179.846875 209.944062 
" style="fill:none;stroke:#1f77b4;stroke-linecap:square;stroke-width:1.5;"/>
    </g>
    <g id="line2d_16">
     <g>
      <use style="fill:#1f77b4;stroke:#1f77b4;" x="169.846875" xlink:href="#mbaf4183079" y="209.944062"/>
     </g>
    </g>
    <g id="text_16">
     <!-- data K = 1.00, r = 10.00, t_0 = 0.50 -->
     <defs>
      <path d="M 45.40625 46.390625 
L 45.40625 75.984375 
L 54.390625 75.984375 
L 54.390625 0 
L 45.40625 0 
L 45.40625 8.203125 
Q 42.578125 3.328125 38.25 0.953125 
Q 33.9375 -1.421875 27.875 -1.421875 
Q 17.96875 -1.421875 11.734375 6.484375 
Q 5.515625 14.40625 5.515625 27.296875 
Q 5.515625 40.1875 11.734375 48.09375 
Q 17.96875 56 27.875 56 
Q 33.9375 56 38.25 53.625 
Q 42.578125 51.265625 45.40625 46.390625 
z
M 14.796875 27.296875 
Q 14.796875 17.390625 18.875 11.75 
Q 22.953125 6.109375 30.078125 6.109375 
Q 37.203125 6.109375 41.296875 11.75 
Q 45.40625 17.390625 45.40625 27.296875 
Q 45.40625 37.203125 41.296875 42.84375 
Q 37.203125 48.484375 30.078125 48.484375 
Q 22.953125 48.484375 18.875 42.84375 
Q 14.796875 37.203125 14.796875 27.296875 
z
" id="DejaVuSans-100"/>
      <path d="M 34.28125 27.484375 
Q 23.390625 27.484375 19.1875 25 
Q 14.984375 22.515625 14.984375 16.5 
Q 14.984375 11.71875 18.140625 8.90625 
Q 21.296875 6.109375 26.703125 6.109375 
Q 34.1875 6.109375 38.703125 11.40625 
Q 43.21875 16.703125 43.21875 25.484375 
L 43.21875 27.484375 
z
M 52.203125 31.203125 
L 52.203125 0 
L 43.21875 0 
L 43.21875 8.296875 
Q 40.140625 3.328125 35.546875 0.953125 
Q 30.953125 -1.421875 24.3125 -1.421875 
Q 15.921875 -1.421875 10.953125 3.296875 
Q 6 8.015625 6 15.921875 
Q 6 25.140625 12.171875 29.828125 
Q 18.359375 34.515625 30.609375 34.515625 
L 43.21875 34.515625 
L 43.21875 35.40625 
Q 43.21875 41.609375 39.140625 45 
Q 35.0625 48.390625 27.6875 48.390625 
Q 23 48.390625 18.546875 47.265625 
Q 14.109375 46.140625 10.015625 43.890625 
L 10.015625 52.203125 
Q 14.9375 54.109375 19.578125 55.046875 
Q 24.21875 56 28.609375 56 
Q 40.484375 56 46.34375 49.84375 
Q 52.203125 43.703125 52.203125 31.203125 
z
" id="DejaVuSans-97"/>
      <path d="M 9.8125 72.90625 
L 19.671875 72.90625 
L 19.671875 42.09375 
L 52.390625 72.90625 
L 65.09375 72.90625 
L 28.90625 38.921875 
L 67.671875 0 
L 54.6875 0 
L 19.671875 35.109375 
L 19.671875 0 
L 9.8125 0 
z
" id="DejaVuSans-75"/>
      <path d="M 10.59375 45.40625 
L 73.1875 45.40625 
L 73.1875 37.203125 
L 10.59375 37.203125 
z
M 10.59375 25.484375 
L 73.1875 25.484375 
L 73.1875 17.1875 
L 10.59375 17.1875 
z
" id="DejaVuSans-61"/>
      <path d="M 11.71875 12.40625 
L 22.015625 12.40625 
L 22.015625 4 
L 14.015625 -11.625 
L 7.71875 -11.625 
L 11.71875 4 
z
" id="DejaVuSans-44"/>
      <path d="M 41.109375 46.296875 
Q 39.59375 47.171875 37.8125 47.578125 
Q 36.03125 48 33.890625 48 
Q 26.265625 48 22.1875 43.046875 
Q 18.109375 38.09375 18.109375 28.8125 
L 18.109375 0 
L 9.078125 0 
L 9.078125 54.6875 
L 18.109375 54.6875 
L 18.109375 46.1875 
Q 20.953125 51.171875 25.484375 53.578125 
Q 30.03125 56 36.53125 56 
Q 37.453125 56 38.578125 55.875 
Q 39.703125 55.765625 41.0625 55.515625 
z
" id="DejaVuSans-114"/>
      <path d="M 50.984375 -16.609375 
L 50.984375 -23.578125 
L -0.984375 -23.578125 
L -0.984375 -16.609375 
z
" id="DejaVuSans-95"/>
      <path d="M 10.796875 72.90625 
L 49.515625 72.90625 
L 49.515625 64.59375 
L 19.828125 64.59375 
L 19.828125 46.734375 
Q 21.96875 47.46875 24.109375 47.828125 
Q 26.265625 48.1875 28.421875 48.1875 
Q 40.625 48.1875 47.75 41.5 
Q 54.890625 34.8125 54.890625 23.390625 
Q 54.890625 11.625 47.5625 5.09375 
Q 40.234375 -1.421875 26.90625 -1.421875 
Q 22.3125 -1.421875 17.546875 -0.640625 
Q 12.796875 0.140625 7.71875 1.703125 
L 7.71875 11.625 
Q 12.109375 9.234375 16.796875 8.0625 
Q 21.484375 6.890625 26.703125 6.890625 
Q 35.15625 6.890625 40.078125 11.328125 
Q 45.015625 15.765625 45.015625 23.390625 
Q 45.015625 31 40.078125 35.4375 
Q 35.15625 39.890625 26.703125 39.890625 
Q 22.75 39.890625 18.8125 39.015625 
Q 14.890625 38.140625 10.796875 36.28125 
z
" id="DejaVuSans-53"/>
     </defs>
     <g transform="translate(187.846875 213.444062)scale(0.1 -0.1)">
      <use xlink:href="#DejaVuSans-100"/>
      <use x="63.476562" xlink:href="#DejaVuSans-97"/>
      <use x="124.755859" xlink:href="#DejaVuSans-116"/>
      <use x="163.964844" xlink:href="#DejaVuSans-97"/>
      <use x="225.244141" xlink:href="#DejaVuSans-32"/>
      <use x="257.03125" xlink:href="#DejaVuSans-75"/>
      <use x="322.607422" xlink:href="#DejaVuSans-32"/>
      <use x="354.394531" xlink:href="#DejaVuSans-61"/>
      <use x="438.183594" xlink:href="#DejaVuSans-32"/>
      <use x="469.970703" xlink:href="#DejaVuSans-49"/>
      <use x="533.59375" xlink:href="#DejaVuSans-46"/>
      <use x="565.380859" xlink:href="#DejaVuSans-48"/>
      <use x="629.003906" xlink:href="#DejaVuSans-48"/>
      <use x="692.626953" xlink:href="#DejaVuSans-44"/>
      <use x="724.414062" xlink:href="#DejaVuSans-32"/>
      <use x="756.201172" xlink:href="#DejaVuSans-114"/>
      <use x="797.314453" xlink:href="#DejaVuSans-32"/>
      <use x="829.101562" xlink:href="#DejaVuSans-61"/>
      <use x="912.890625" xlink:href="#DejaVuSans-32"/>
      <use x="944.677734" xlink:href="#DejaVuSans-49"/>
      <use x="1008.300781" xlink:href="#DejaVuSans-48"/>
      <use x="1071.923828" xlink:href="#DejaVuSans-46"/>
      <use x="1103.710938" xlink:href="#DejaVuSans-48"/>
      <use x="1167.333984" xlink:href="#DejaVuSans-48"/>
      <use x="1230.957031" xlink:href="#DejaVuSans-44"/>
      <use x="1262.744141" xlink:href="#DejaVuSans-32"/>
      <use x="1294.53125" xlink:href="#DejaVuSans-116"/>
      <use x="1333.740234" xlink:href="#DejaVuSans-95"/>
      <use x="1383.740234" xlink:href="#DejaVuSans-48"/>
      <use x="1447.363281" xlink:href="#DejaVuSans-32"/>
      <use x="1479.150391" xlink:href="#DejaVuSans-61"/>
      <use x="1562.939453" xlink:href="#DejaVuSans-32"/>
      <use x="1594.726562" xlink:href="#DejaVuSans-48"/>
      <use x="1658.349609" xlink:href="#DejaVuSans-46"/>
      <use x="1690.136719" xlink:href="#DejaVuSans-53"/>
      <use x="1753.759766" xlink:href="#DejaVuSans-48"/>
     </g>
    </g>
    <g id="line2d_17">
     <path d="M 159.846875 224.900312 
L 179.846875 224.900312 
" style="fill:none;stroke:#ff7f0e;stroke-linecap:square;stroke-width:1.5;"/>
    </g>
    <g id="line2d_18"/>
    <g id="text_17">
     <!-- fit K = 1.07, r = 8.29, t_0 = 0.49 -->
     <defs>
      <path d="M 8.203125 72.90625 
L 55.078125 72.90625 
L 55.078125 68.703125 
L 28.609375 0 
L 18.3125 0 
L 43.21875 64.59375 
L 8.203125 64.59375 
z
" id="DejaVuSans-55"/>
      <path d="M 10.984375 1.515625 
L 10.984375 10.5 
Q 14.703125 8.734375 18.5 7.8125 
Q 22.3125 6.890625 25.984375 6.890625 
Q 35.75 6.890625 40.890625 13.453125 
Q 46.046875 20.015625 46.78125 33.40625 
Q 43.953125 29.203125 39.59375 26.953125 
Q 35.25 24.703125 29.984375 24.703125 
Q 19.046875 24.703125 12.671875 31.3125 
Q 6.296875 37.9375 6.296875 49.421875 
Q 6.296875 60.640625 12.9375 67.421875 
Q 19.578125 74.21875 30.609375 74.21875 
Q 43.265625 74.21875 49.921875 64.515625 
Q 56.59375 54.828125 56.59375 36.375 
Q 56.59375 19.140625 48.40625 8.859375 
Q 40.234375 -1.421875 26.421875 -1.421875 
Q 22.703125 -1.421875 18.890625 -0.6875 
Q 15.09375 0.046875 10.984375 1.515625 
z
M 30.609375 32.421875 
Q 37.25 32.421875 41.125 36.953125 
Q 45.015625 41.5 45.015625 49.421875 
Q 45.015625 57.28125 41.125 61.84375 
Q 37.25 66.40625 30.609375 66.40625 
Q 23.96875 66.40625 20.09375 61.84375 
Q 16.21875 57.28125 16.21875 49.421875 
Q 16.21875 41.5 20.09375 36.953125 
Q 23.96875 32.421875 30.609375 32.421875 
z
" id="DejaVuSans-57"/>
     </defs>
     <g transform="translate(187.846875 228.400312)scale(0.1 -0.1)">
      <use xlink:href="#DejaVuSans-102"/>
      <use x="35.205078" xlink:href="#DejaVuSans-105"/>
      <use x="62.988281" xlink:href="#DejaVuSans-116"/>
      <use x="102.197266" xlink:href="#DejaVuSans-32"/>
      <use x="133.984375" xlink:href="#DejaVuSans-75"/>
      <use x="199.560547" xlink:href="#DejaVuSans-32"/>
      <use x="231.347656" xlink:href="#DejaVuSans-61"/>
      <use x="315.136719" xlink:href="#DejaVuSans-32"/>
      <use x="346.923828" xlink:href="#DejaVuSans-49"/>
      <use x="410.546875" xlink:href="#DejaVuSans-46"/>
      <use x="442.333984" xlink:href="#DejaVuSans-48"/>
      <use x="505.957031" xlink:href="#DejaVuSans-55"/>
      <use x="569.580078" xlink:href="#DejaVuSans-44"/>
      <use x="601.367188" xlink:href="#DejaVuSans-32"/>
      <use x="633.154297" xlink:href="#DejaVuSans-114"/>
      <use x="674.267578" xlink:href="#DejaVuSans-32"/>
      <use x="706.054688" xlink:href="#DejaVuSans-61"/>
      <use x="789.84375" xlink:href="#DejaVuSans-32"/>
      <use x="821.630859" xlink:href="#DejaVuSans-56"/>
      <use x="885.253906" xlink:href="#DejaVuSans-46"/>
      <use x="917.041016" xlink:href="#DejaVuSans-50"/>
      <use x="980.664062" xlink:href="#DejaVuSans-57"/>
      <use x="1044.287109" xlink:href="#DejaVuSans-44"/>
      <use x="1076.074219" xlink:href="#DejaVuSans-32"/>
      <use x="1107.861328" xlink:href="#DejaVuSans-116"/>
      <use x="1147.070312" xlink:href="#DejaVuSans-95"/>
      <use x="1197.070312" xlink:href="#DejaVuSans-48"/>
      <use x="1260.693359" xlink:href="#DejaVuSans-32"/>
      <use x="1292.480469" xlink:href="#DejaVuSans-61"/>
      <use x="1376.269531" xlink:href="#DejaVuSans-32"/>
      <use x="1408.056641" xlink:href="#DejaVuSans-48"/>
      <use x="1471.679688" xlink:href="#DejaVuSans-46"/>
      <use x="1503.466797" xlink:href="#DejaVuSans-52"/>
      <use x="1567.089844" xlink:href="#DejaVuSans-57"/>
     </g>
    </g>
   </g>
  </g>
 </g>
 <defs>
  <clipPath id="pec43e4c60d">
   <rect height="217.44" width="334.8" x="43.78125" y="22.318125"/>
  </clipPath>
 </defs>
</svg>
