<?xml version="1.0" encoding="utf-8" standalone="no"?>
<!DOCTYPE svg PUBLIC "-//W3C//DTD SVG 1.1//EN"
  "http://www.w3.org/Graphics/SVG/1.1/DTD/svg11.dtd">
<!-- Created with matplotlib (https://matplotlib.org/) -->
<svg height="331.674375pt" version="1.1" viewBox="0 0 566.228125 331.674375" width="566.228125pt" xmlns="http://www.w3.org/2000/svg" xmlns:xlink="http://www.w3.org/1999/xlink">
 <defs>
  <style type="text/css">
*{stroke-linecap:butt;stroke-linejoin:round;}
  </style>
 </defs>
 <g id="figure_1">
  <g id="patch_1">
   <path d="M 0 331.674375 
L 566.228125 331.674375 
L 566.228125 0 
L 0 0 
z
" style="fill:none;"/>
  </g>
  <g id="axes_1">
   <g id="patch_2">
    <path d="M 53.328125 294.118125 
L 555.528125 294.118125 
L 555.528125 22.318125 
L 53.328125 22.318125 
z
" style="fill:#ffffff;"/>
   </g>
   <g id="PolyCollection_1">
    <defs>
     <path d="M 76.155398 -53.681609 
L 76.155398 -53.279664 
L 80.766968 -53.412973 
L 85.378538 -53.560948 
L 89.990108 -53.725172 
L 94.601679 -53.907397 
L 99.213249 -54.109554 
L 103.824819 -54.333769 
L 108.436389 -54.582386 
L 113.04796 -54.857982 
L 117.65953 -55.163387 
L 122.2711 -55.501707 
L 126.88267 -55.876343 
L 131.494241 -56.291015 
L 136.105811 -56.749781 
L 140.717381 -57.257063 
L 145.328951 -57.817665 
L 149.940522 -58.43679 
L 154.552092 -59.120062 
L 159.163662 -59.873534 
L 163.775232 -60.703698 
L 168.386803 -61.617487 
L 172.998373 -62.622267 
L 177.609943 -63.725824 
L 182.221513 -64.936328 
L 186.833084 -66.262298 
L 191.444654 -67.712533 
L 196.056224 -69.296034 
L 200.667794 -71.021903 
L 205.279365 -72.899208 
L 209.890935 -74.936834 
L 214.502505 -77.143296 
L 219.114075 -79.526531 
L 223.725646 -82.093656 
L 228.337216 -84.850713 
L 232.948786 -87.802386 
L 237.560356 -90.951711 
L 242.171927 -94.299784 
L 246.783497 -97.845481 
L 251.395067 -101.585202 
L 256.006637 -105.512655 
L 260.618208 -109.618699 
L 265.229778 -113.89126 
L 269.841348 -118.315328 
L 274.452918 -122.873064 
L 279.064489 -127.543998 
L 283.676059 -132.305337 
L 288.287629 -137.132373 
L 292.899199 -141.998967 
L 297.51077 -146.87811 
L 302.12234 -151.742509 
L 306.73391 -156.565202 
L 311.34548 -161.320146 
L 315.957051 -165.98277 
L 320.568621 -170.530456 
L 325.180191 -174.942935 
L 329.791761 -179.202589 
L 334.403332 -183.294645 
L 339.014902 -187.207265 
L 343.626472 -190.931541 
L 348.238042 -194.461406 
L 352.849613 -197.793467 
L 357.461183 -200.92679 
L 362.072753 -203.862638 
L 366.684323 -206.604191 
L 371.295894 -209.156252 
L 375.907464 -211.52496 
L 380.519034 -213.717509 
L 385.130604 -215.741889 
L 389.742175 -217.606654 
L 394.353745 -219.320708 
L 398.965315 -220.89313 
L 403.576885 -222.333016 
L 408.188456 -223.649355 
L 412.800026 -224.850927 
L 417.411596 -225.946223 
L 422.023166 -226.943385 
L 426.634737 -227.850166 
L 431.246307 -228.673896 
L 435.857877 -229.421474 
L 440.469447 -230.099356 
L 445.081018 -230.713561 
L 449.692588 -231.269677 
L 454.304158 -231.772876 
L 458.915728 -232.227928 
L 463.527299 -232.639227 
L 468.138869 -233.010802 
L 472.750439 -233.346346 
L 477.362009 -233.649237 
L 481.97358 -233.922557 
L 486.58515 -234.169115 
L 491.19672 -234.391468 
L 495.80829 -234.591942 
L 500.419861 -234.772647 
L 505.031431 -234.935499 
L 509.643001 -235.082234 
L 514.254571 -235.214426 
L 518.866142 -235.333497 
L 523.477712 -235.440734 
L 528.089282 -235.537303 
L 532.700852 -235.624255 
L 532.700852 -297.001705 
L 532.700852 -297.001705 
L 528.089282 -296.885677 
L 523.477712 -296.756815 
L 518.866142 -296.613717 
L 514.254571 -296.45483 
L 509.643001 -296.278434 
L 505.031431 -296.08263 
L 500.419861 -295.865321 
L 495.80829 -295.624189 
L 491.19672 -295.356677 
L 486.58515 -295.05997 
L 481.97358 -294.730963 
L 477.362009 -294.366247 
L 472.750439 -293.96207 
L 468.138869 -293.51432 
L 463.527299 -293.018492 
L 458.915728 -292.469656 
L 454.304158 -291.862435 
L 449.692588 -291.190968 
L 445.081018 -290.448889 
L 440.469447 -289.629296 
L 435.857877 -288.724732 
L 431.246307 -287.727166 
L 426.634737 -286.627982 
L 422.023166 -285.417977 
L 417.411596 -284.087366 
L 412.800026 -282.625807 
L 408.188456 -281.022432 
L 403.576885 -279.265913 
L 398.965315 -277.344534 
L 394.353745 -275.246299 
L 389.742175 -272.959069 
L 385.130604 -270.470733 
L 380.519034 -267.769406 
L 375.907464 -264.843675 
L 371.295894 -261.682878 
L 366.684323 -258.277415 
L 362.072753 -254.619095 
L 357.461183 -250.701508 
L 352.849613 -246.52041 
L 348.238042 -242.074117 
L 343.626472 -237.363876 
L 339.014902 -232.394213 
L 334.403332 -227.173224 
L 329.791761 -221.712797 
L 325.180191 -216.028726 
L 320.568621 -210.140727 
L 315.957051 -204.072308 
L 311.34548 -197.850516 
L 306.73391 -191.505532 
L 302.12234 -185.070145 
L 297.51077 -178.579105 
L 292.899199 -172.068391 
L 288.287629 -165.574421 
L 283.676059 -159.133238 
L 279.064489 -152.779721 
L 274.452918 -146.546841 
L 269.841348 -140.465011 
L 265.229778 -134.561547 
L 260.618208 -128.860255 
L 256.006637 -123.381161 
L 251.395067 -118.140379 
L 246.783497 -113.150106 
L 242.171927 -108.418738 
L 237.560356 -103.951079 
L 232.948786 -99.74863 
L 228.337216 -95.809926 
L 223.725646 -92.130916 
L 219.114075 -88.705352 
L 214.502505 -85.525171 
L 209.890935 -82.580874 
L 205.279365 -79.861872 
L 200.667794 -77.356801 
L 196.056224 -75.053807 
L 191.444654 -72.940787 
L 186.833084 -71.005598 
L 182.221513 -69.236228 
L 177.609943 -67.620934 
L 172.998373 -66.148351 
L 168.386803 -64.807575 
L 163.775232 -63.588218 
L 159.163662 -62.480449 
L 154.552092 -61.475019 
L 149.940522 -60.563263 
L 145.328951 -59.737104 
L 140.717381 -58.989039 
L 136.105811 -58.312123 
L 131.494241 -57.699946 
L 126.88267 -57.14661 
L 122.2711 -56.646697 
L 117.65953 -56.195244 
L 113.04796 -55.787712 
L 108.436389 -55.419958 
L 103.824819 -55.088204 
L 99.213249 -54.789011 
L 94.601679 -54.519254 
L 89.990108 -54.276094 
L 85.378538 -54.056953 
L 80.766968 -53.859496 
L 76.155398 -53.681609 
z
" id="m3efe37dd52" style="stroke:#808080;stroke-opacity:0.2;"/>
    </defs>
    <g clip-path="url(#p1f085cd6ae)">
     <use style="fill:#808080;fill-opacity:0.2;stroke:#808080;stroke-opacity:0.2;" x="0" xlink:href="#m3efe37dd52" y="331.674375"/>
    </g>
   </g>
   <g id="matplotlib.axis_1">
    <g id="xtick_1">
     <g id="line2d_1">
      <defs>
       <path d="M 0 0 
L 0 3.5 
" id="ma07e506edb" style="stroke:#000000;stroke-width:0.8;"/>
      </defs>
      <g>
       <use style="stroke:#000000;stroke-width:0.8;" x="76.155398" xlink:href="#ma07e506edb" y="294.118125"/>
      </g>
     </g>
     <g id="text_1">
      <!-- 0 -->
      <defs>
       <path d="M 31.78125 66.40625 
Q 24.171875 66.40625 20.328125 58.90625 
Q 16.5 51.421875 16.5 36.375 
Q 16.5 21.390625 20.328125 13.890625 
Q 24.171875 6.390625 31.78125 6.390625 
Q 39.453125 6.390625 43.28125 13.890625 
Q 47.125 21.390625 47.125 36.375 
Q 47.125 51.421875 43.28125 58.90625 
Q 39.453125 66.40625 31.78125 66.40625 
z
M 31.78125 74.21875 
Q 44.046875 74.21875 50.515625 64.515625 
Q 56.984375 54.828125 56.984375 36.375 
Q 56.984375 17.96875 50.515625 8.265625 
Q 44.046875 -1.421875 31.78125 -1.421875 
Q 19.53125 -1.421875 13.0625 8.265625 
Q 6.59375 17.96875 6.59375 36.375 
Q 6.59375 54.828125 13.0625 64.515625 
Q 19.53125 74.21875 31.78125 74.21875 
z
" id="DejaVuSans-48"/>
      </defs>
      <g transform="translate(72.974148 308.716563)scale(0.1 -0.1)">
       <use xlink:href="#DejaVuSans-48"/>
      </g>
     </g>
    </g>
    <g id="xtick_2">
     <g id="line2d_2">
      <g>
       <use style="stroke:#000000;stroke-width:0.8;" x="167.464489" xlink:href="#ma07e506edb" y="294.118125"/>
      </g>
     </g>
     <g id="text_2">
      <!-- 20 -->
      <defs>
       <path d="M 19.1875 8.296875 
L 53.609375 8.296875 
L 53.609375 0 
L 7.328125 0 
L 7.328125 8.296875 
Q 12.9375 14.109375 22.625 23.890625 
Q 32.328125 33.6875 34.8125 36.53125 
Q 39.546875 41.84375 41.421875 45.53125 
Q 43.3125 49.21875 43.3125 52.78125 
Q 43.3125 58.59375 39.234375 62.25 
Q 35.15625 65.921875 28.609375 65.921875 
Q 23.96875 65.921875 18.8125 64.3125 
Q 13.671875 62.703125 7.8125 59.421875 
L 7.8125 69.390625 
Q 13.765625 71.78125 18.9375 73 
Q 24.125 74.21875 28.421875 74.21875 
Q 39.75 74.21875 46.484375 68.546875 
Q 53.21875 62.890625 53.21875 53.421875 
Q 53.21875 48.921875 51.53125 44.890625 
Q 49.859375 40.875 45.40625 35.40625 
Q 44.1875 33.984375 37.640625 27.21875 
Q 31.109375 20.453125 19.1875 8.296875 
z
" id="DejaVuSans-50"/>
      </defs>
      <g transform="translate(161.101989 308.716563)scale(0.1 -0.1)">
       <use xlink:href="#DejaVuSans-50"/>
       <use x="63.623047" xlink:href="#DejaVuSans-48"/>
      </g>
     </g>
    </g>
    <g id="xtick_3">
     <g id="line2d_3">
      <g>
       <use style="stroke:#000000;stroke-width:0.8;" x="258.77358" xlink:href="#ma07e506edb" y="294.118125"/>
      </g>
     </g>
     <g id="text_3">
      <!-- 40 -->
      <defs>
       <path d="M 37.796875 64.3125 
L 12.890625 25.390625 
L 37.796875 25.390625 
z
M 35.203125 72.90625 
L 47.609375 72.90625 
L 47.609375 25.390625 
L 58.015625 25.390625 
L 58.015625 17.1875 
L 47.609375 17.1875 
L 47.609375 0 
L 37.796875 0 
L 37.796875 17.1875 
L 4.890625 17.1875 
L 4.890625 26.703125 
z
" id="DejaVuSans-52"/>
      </defs>
      <g transform="translate(252.41108 308.716563)scale(0.1 -0.1)">
       <use xlink:href="#DejaVuSans-52"/>
       <use x="63.623047" xlink:href="#DejaVuSans-48"/>
      </g>
     </g>
    </g>
    <g id="xtick_4">
     <g id="line2d_4">
      <g>
       <use style="stroke:#000000;stroke-width:0.8;" x="350.08267" xlink:href="#ma07e506edb" y="294.118125"/>
      </g>
     </g>
     <g id="text_4">
      <!-- 60 -->
      <defs>
       <path d="M 33.015625 40.375 
Q 26.375 40.375 22.484375 35.828125 
Q 18.609375 31.296875 18.609375 23.390625 
Q 18.609375 15.53125 22.484375 10.953125 
Q 26.375 6.390625 33.015625 6.390625 
Q 39.65625 6.390625 43.53125 10.953125 
Q 47.40625 15.53125 47.40625 23.390625 
Q 47.40625 31.296875 43.53125 35.828125 
Q 39.65625 40.375 33.015625 40.375 
z
M 52.59375 71.296875 
L 52.59375 62.3125 
Q 48.875 64.0625 45.09375 64.984375 
Q 41.3125 65.921875 37.59375 65.921875 
Q 27.828125 65.921875 22.671875 59.328125 
Q 17.53125 52.734375 16.796875 39.40625 
Q 19.671875 43.65625 24.015625 45.921875 
Q 28.375 48.1875 33.59375 48.1875 
Q 44.578125 48.1875 50.953125 41.515625 
Q 57.328125 34.859375 57.328125 23.390625 
Q 57.328125 12.15625 50.6875 5.359375 
Q 44.046875 -1.421875 33.015625 -1.421875 
Q 20.359375 -1.421875 13.671875 8.265625 
Q 6.984375 17.96875 6.984375 36.375 
Q 6.984375 53.65625 15.1875 63.9375 
Q 23.390625 74.21875 37.203125 74.21875 
Q 40.921875 74.21875 44.703125 73.484375 
Q 48.484375 72.75 52.59375 71.296875 
z
" id="DejaVuSans-54"/>
      </defs>
      <g transform="translate(343.72017 308.716563)scale(0.1 -0.1)">
       <use xlink:href="#DejaVuSans-54"/>
       <use x="63.623047" xlink:href="#DejaVuSans-48"/>
      </g>
     </g>
    </g>
    <g id="xtick_5">
     <g id="line2d_5">
      <g>
       <use style="stroke:#000000;stroke-width:0.8;" x="441.391761" xlink:href="#ma07e506edb" y="294.118125"/>
      </g>
     </g>
     <g id="text_5">
      <!-- 80 -->
      <defs>
       <path d="M 31.78125 34.625 
Q 24.75 34.625 20.71875 30.859375 
Q 16.703125 27.09375 16.703125 20.515625 
Q 16.703125 13.921875 20.71875 10.15625 
Q 24.75 6.390625 31.78125 6.390625 
Q 38.8125 6.390625 42.859375 10.171875 
Q 46.921875 13.96875 46.921875 20.515625 
Q 46.921875 27.09375 42.890625 30.859375 
Q 38.875 34.625 31.78125 34.625 
z
M 21.921875 38.8125 
Q 15.578125 40.375 12.03125 44.71875 
Q 8.5 49.078125 8.5 55.328125 
Q 8.5 64.0625 14.71875 69.140625 
Q 20.953125 74.21875 31.78125 74.21875 
Q 42.671875 74.21875 48.875 69.140625 
Q 55.078125 64.0625 55.078125 55.328125 
Q 55.078125 49.078125 51.53125 44.71875 
Q 48 40.375 41.703125 38.8125 
Q 48.828125 37.15625 52.796875 32.3125 
Q 56.78125 27.484375 56.78125 20.515625 
Q 56.78125 9.90625 50.3125 4.234375 
Q 43.84375 -1.421875 31.78125 -1.421875 
Q 19.734375 -1.421875 13.25 4.234375 
Q 6.78125 9.90625 6.78125 20.515625 
Q 6.78125 27.484375 10.78125 32.3125 
Q 14.796875 37.15625 21.921875 38.8125 
z
M 18.3125 54.390625 
Q 18.3125 48.734375 21.84375 45.5625 
Q 25.390625 42.390625 31.78125 42.390625 
Q 38.140625 42.390625 41.71875 45.5625 
Q 45.3125 48.734375 45.3125 54.390625 
Q 45.3125 60.0625 41.71875 63.234375 
Q 38.140625 66.40625 31.78125 66.40625 
Q 25.390625 66.40625 21.84375 63.234375 
Q 18.3125 60.0625 18.3125 54.390625 
z
" id="DejaVuSans-56"/>
      </defs>
      <g transform="translate(435.029261 308.716563)scale(0.1 -0.1)">
       <use xlink:href="#DejaVuSans-56"/>
       <use x="63.623047" xlink:href="#DejaVuSans-48"/>
      </g>
     </g>
    </g>
    <g id="xtick_6">
     <g id="line2d_6">
      <g>
       <use style="stroke:#000000;stroke-width:0.8;" x="532.700852" xlink:href="#ma07e506edb" y="294.118125"/>
      </g>
     </g>
     <g id="text_6">
      <!-- 100 -->
      <defs>
       <path d="M 12.40625 8.296875 
L 28.515625 8.296875 
L 28.515625 63.921875 
L 10.984375 60.40625 
L 10.984375 69.390625 
L 28.421875 72.90625 
L 38.28125 72.90625 
L 38.28125 8.296875 
L 54.390625 8.296875 
L 54.390625 0 
L 12.40625 0 
z
" id="DejaVuSans-49"/>
      </defs>
      <g transform="translate(523.157102 308.716563)scale(0.1 -0.1)">
       <use xlink:href="#DejaVuSans-49"/>
       <use x="63.623047" xlink:href="#DejaVuSans-48"/>
       <use x="127.246094" xlink:href="#DejaVuSans-48"/>
      </g>
     </g>
    </g>
    <g id="text_7">
     <!-- days -->
     <defs>
      <path d="M 45.40625 46.390625 
L 45.40625 75.984375 
L 54.390625 75.984375 
L 54.390625 0 
L 45.40625 0 
L 45.40625 8.203125 
Q 42.578125 3.328125 38.25 0.953125 
Q 33.9375 -1.421875 27.875 -1.421875 
Q 17.96875 -1.421875 11.734375 6.484375 
Q 5.515625 14.40625 5.515625 27.296875 
Q 5.515625 40.1875 11.734375 48.09375 
Q 17.96875 56 27.875 56 
Q 33.9375 56 38.25 53.625 
Q 42.578125 51.265625 45.40625 46.390625 
z
M 14.796875 27.296875 
Q 14.796875 17.390625 18.875 11.75 
Q 22.953125 6.109375 30.078125 6.109375 
Q 37.203125 6.109375 41.296875 11.75 
Q 45.40625 17.390625 45.40625 27.296875 
Q 45.40625 37.203125 41.296875 42.84375 
Q 37.203125 48.484375 30.078125 48.484375 
Q 22.953125 48.484375 18.875 42.84375 
Q 14.796875 37.203125 14.796875 27.296875 
z
" id="DejaVuSans-100"/>
      <path d="M 34.28125 27.484375 
Q 23.390625 27.484375 19.1875 25 
Q 14.984375 22.515625 14.984375 16.5 
Q 14.984375 11.71875 18.140625 8.90625 
Q 21.296875 6.109375 26.703125 6.109375 
Q 34.1875 6.109375 38.703125 11.40625 
Q 43.21875 16.703125 43.21875 25.484375 
L 43.21875 27.484375 
z
M 52.203125 31.203125 
L 52.203125 0 
L 43.21875 0 
L 43.21875 8.296875 
Q 40.140625 3.328125 35.546875 0.953125 
Q 30.953125 -1.421875 24.3125 -1.421875 
Q 15.921875 -1.421875 10.953125 3.296875 
Q 6 8.015625 6 15.921875 
Q 6 25.140625 12.171875 29.828125 
Q 18.359375 34.515625 30.609375 34.515625 
L 43.21875 34.515625 
L 43.21875 35.40625 
Q 43.21875 41.609375 39.140625 45 
Q 35.0625 48.390625 27.6875 48.390625 
Q 23 48.390625 18.546875 47.265625 
Q 14.109375 46.140625 10.015625 43.890625 
L 10.015625 52.203125 
Q 14.9375 54.109375 19.578125 55.046875 
Q 24.21875 56 28.609375 56 
Q 40.484375 56 46.34375 49.84375 
Q 52.203125 43.703125 52.203125 31.203125 
z
" id="DejaVuSans-97"/>
      <path d="M 32.171875 -5.078125 
Q 28.375 -14.84375 24.75 -17.8125 
Q 21.140625 -20.796875 15.09375 -20.796875 
L 7.90625 -20.796875 
L 7.90625 -13.28125 
L 13.1875 -13.28125 
Q 16.890625 -13.28125 18.9375 -11.515625 
Q 21 -9.765625 23.484375 -3.21875 
L 25.09375 0.875 
L 2.984375 54.6875 
L 12.5 54.6875 
L 29.59375 11.921875 
L 46.6875 54.6875 
L 56.203125 54.6875 
z
" id="DejaVuSans-121"/>
      <path d="M 44.28125 53.078125 
L 44.28125 44.578125 
Q 40.484375 46.53125 36.375 47.5 
Q 32.28125 48.484375 27.875 48.484375 
Q 21.1875 48.484375 17.84375 46.4375 
Q 14.5 44.390625 14.5 40.28125 
Q 14.5 37.15625 16.890625 35.375 
Q 19.28125 33.59375 26.515625 31.984375 
L 29.59375 31.296875 
Q 39.15625 29.25 43.1875 25.515625 
Q 47.21875 21.78125 47.21875 15.09375 
Q 47.21875 7.46875 41.1875 3.015625 
Q 35.15625 -1.421875 24.609375 -1.421875 
Q 20.21875 -1.421875 15.453125 -0.5625 
Q 10.6875 0.296875 5.421875 2 
L 5.421875 11.28125 
Q 10.40625 8.6875 15.234375 7.390625 
Q 20.0625 6.109375 24.8125 6.109375 
Q 31.15625 6.109375 34.5625 8.28125 
Q 37.984375 10.453125 37.984375 14.40625 
Q 37.984375 18.0625 35.515625 20.015625 
Q 33.0625 21.96875 24.703125 23.78125 
L 21.578125 24.515625 
Q 13.234375 26.265625 9.515625 29.90625 
Q 5.8125 33.546875 5.8125 39.890625 
Q 5.8125 47.609375 11.28125 51.796875 
Q 16.75 56 26.8125 56 
Q 31.78125 56 36.171875 55.265625 
Q 40.578125 54.546875 44.28125 53.078125 
z
" id="DejaVuSans-115"/>
     </defs>
     <g transform="translate(292.625781 322.394687)scale(0.1 -0.1)">
      <use xlink:href="#DejaVuSans-100"/>
      <use x="63.476562" xlink:href="#DejaVuSans-97"/>
      <use x="124.755859" xlink:href="#DejaVuSans-121"/>
      <use x="183.935547" xlink:href="#DejaVuSans-115"/>
     </g>
    </g>
   </g>
   <g id="matplotlib.axis_2">
    <g id="ytick_1">
     <g id="line2d_7">
      <defs>
       <path d="M 0 0 
L -3.5 0 
" id="mbbd32a5cc9" style="stroke:#000000;stroke-width:0.8;"/>
      </defs>
      <g>
       <use style="stroke:#000000;stroke-width:0.8;" x="53.328125" xlink:href="#mbbd32a5cc9" y="279.596709"/>
      </g>
     </g>
     <g id="text_8">
      <!-- 0 -->
      <g transform="translate(39.965625 283.395928)scale(0.1 -0.1)">
       <use xlink:href="#DejaVuSans-48"/>
      </g>
     </g>
    </g>
    <g id="ytick_2">
     <g id="line2d_8">
      <g>
       <use style="stroke:#000000;stroke-width:0.8;" x="53.328125" xlink:href="#mbbd32a5cc9" y="245.773564"/>
      </g>
     </g>
     <g id="text_9">
      <!-- 200 -->
      <g transform="translate(27.240625 249.572782)scale(0.1 -0.1)">
       <use xlink:href="#DejaVuSans-50"/>
       <use x="63.623047" xlink:href="#DejaVuSans-48"/>
       <use x="127.246094" xlink:href="#DejaVuSans-48"/>
      </g>
     </g>
    </g>
    <g id="ytick_3">
     <g id="line2d_9">
      <g>
       <use style="stroke:#000000;stroke-width:0.8;" x="53.328125" xlink:href="#mbbd32a5cc9" y="211.950418"/>
      </g>
     </g>
     <g id="text_10">
      <!-- 400 -->
      <g transform="translate(27.240625 215.749637)scale(0.1 -0.1)">
       <use xlink:href="#DejaVuSans-52"/>
       <use x="63.623047" xlink:href="#DejaVuSans-48"/>
       <use x="127.246094" xlink:href="#DejaVuSans-48"/>
      </g>
     </g>
    </g>
    <g id="ytick_4">
     <g id="line2d_10">
      <g>
       <use style="stroke:#000000;stroke-width:0.8;" x="53.328125" xlink:href="#mbbd32a5cc9" y="178.127273"/>
      </g>
     </g>
     <g id="text_11">
      <!-- 600 -->
      <g transform="translate(27.240625 181.926492)scale(0.1 -0.1)">
       <use xlink:href="#DejaVuSans-54"/>
       <use x="63.623047" xlink:href="#DejaVuSans-48"/>
       <use x="127.246094" xlink:href="#DejaVuSans-48"/>
      </g>
     </g>
    </g>
    <g id="ytick_5">
     <g id="line2d_11">
      <g>
       <use style="stroke:#000000;stroke-width:0.8;" x="53.328125" xlink:href="#mbbd32a5cc9" y="144.304127"/>
      </g>
     </g>
     <g id="text_12">
      <!-- 800 -->
      <g transform="translate(27.240625 148.103346)scale(0.1 -0.1)">
       <use xlink:href="#DejaVuSans-56"/>
       <use x="63.623047" xlink:href="#DejaVuSans-48"/>
       <use x="127.246094" xlink:href="#DejaVuSans-48"/>
      </g>
     </g>
    </g>
    <g id="ytick_6">
     <g id="line2d_12">
      <g>
       <use style="stroke:#000000;stroke-width:0.8;" x="53.328125" xlink:href="#mbbd32a5cc9" y="110.480982"/>
      </g>
     </g>
     <g id="text_13">
      <!-- 1000 -->
      <g transform="translate(20.878125 114.280201)scale(0.1 -0.1)">
       <use xlink:href="#DejaVuSans-49"/>
       <use x="63.623047" xlink:href="#DejaVuSans-48"/>
       <use x="127.246094" xlink:href="#DejaVuSans-48"/>
       <use x="190.869141" xlink:href="#DejaVuSans-48"/>
      </g>
     </g>
    </g>
    <g id="ytick_7">
     <g id="line2d_13">
      <g>
       <use style="stroke:#000000;stroke-width:0.8;" x="53.328125" xlink:href="#mbbd32a5cc9" y="76.657837"/>
      </g>
     </g>
     <g id="text_14">
      <!-- 1200 -->
      <g transform="translate(20.878125 80.457055)scale(0.1 -0.1)">
       <use xlink:href="#DejaVuSans-49"/>
       <use x="63.623047" xlink:href="#DejaVuSans-50"/>
       <use x="127.246094" xlink:href="#DejaVuSans-48"/>
       <use x="190.869141" xlink:href="#DejaVuSans-48"/>
      </g>
     </g>
    </g>
    <g id="ytick_8">
     <g id="line2d_14">
      <g>
       <use style="stroke:#000000;stroke-width:0.8;" x="53.328125" xlink:href="#mbbd32a5cc9" y="42.834691"/>
      </g>
     </g>
     <g id="text_15">
      <!-- 1400 -->
      <g transform="translate(20.878125 46.63391)scale(0.1 -0.1)">
       <use xlink:href="#DejaVuSans-49"/>
       <use x="63.623047" xlink:href="#DejaVuSans-52"/>
       <use x="127.246094" xlink:href="#DejaVuSans-48"/>
       <use x="190.869141" xlink:href="#DejaVuSans-48"/>
      </g>
     </g>
    </g>
    <g id="text_16">
     <!-- confirmed cases -->
     <defs>
      <path d="M 48.78125 52.59375 
L 48.78125 44.1875 
Q 44.96875 46.296875 41.140625 47.34375 
Q 37.3125 48.390625 33.40625 48.390625 
Q 24.65625 48.390625 19.8125 42.84375 
Q 14.984375 37.3125 14.984375 27.296875 
Q 14.984375 17.28125 19.8125 11.734375 
Q 24.65625 6.203125 33.40625 6.203125 
Q 37.3125 6.203125 41.140625 7.25 
Q 44.96875 8.296875 48.78125 10.40625 
L 48.78125 2.09375 
Q 45.015625 0.34375 40.984375 -0.53125 
Q 36.96875 -1.421875 32.421875 -1.421875 
Q 20.0625 -1.421875 12.78125 6.34375 
Q 5.515625 14.109375 5.515625 27.296875 
Q 5.515625 40.671875 12.859375 48.328125 
Q 20.21875 56 33.015625 56 
Q 37.15625 56 41.109375 55.140625 
Q 45.0625 54.296875 48.78125 52.59375 
z
" id="DejaVuSans-99"/>
      <path d="M 30.609375 48.390625 
Q 23.390625 48.390625 19.1875 42.75 
Q 14.984375 37.109375 14.984375 27.296875 
Q 14.984375 17.484375 19.15625 11.84375 
Q 23.34375 6.203125 30.609375 6.203125 
Q 37.796875 6.203125 41.984375 11.859375 
Q 46.1875 17.53125 46.1875 27.296875 
Q 46.1875 37.015625 41.984375 42.703125 
Q 37.796875 48.390625 30.609375 48.390625 
z
M 30.609375 56 
Q 42.328125 56 49.015625 48.375 
Q 55.71875 40.765625 55.71875 27.296875 
Q 55.71875 13.875 49.015625 6.21875 
Q 42.328125 -1.421875 30.609375 -1.421875 
Q 18.84375 -1.421875 12.171875 6.21875 
Q 5.515625 13.875 5.515625 27.296875 
Q 5.515625 40.765625 12.171875 48.375 
Q 18.84375 56 30.609375 56 
z
" id="DejaVuSans-111"/>
      <path d="M 54.890625 33.015625 
L 54.890625 0 
L 45.90625 0 
L 45.90625 32.71875 
Q 45.90625 40.484375 42.875 44.328125 
Q 39.84375 48.1875 33.796875 48.1875 
Q 26.515625 48.1875 22.3125 43.546875 
Q 18.109375 38.921875 18.109375 30.90625 
L 18.109375 0 
L 9.078125 0 
L 9.078125 54.6875 
L 18.109375 54.6875 
L 18.109375 46.1875 
Q 21.34375 51.125 25.703125 53.5625 
Q 30.078125 56 35.796875 56 
Q 45.21875 56 50.046875 50.171875 
Q 54.890625 44.34375 54.890625 33.015625 
z
" id="DejaVuSans-110"/>
      <path d="M 37.109375 75.984375 
L 37.109375 68.5 
L 28.515625 68.5 
Q 23.6875 68.5 21.796875 66.546875 
Q 19.921875 64.59375 19.921875 59.515625 
L 19.921875 54.6875 
L 34.71875 54.6875 
L 34.71875 47.703125 
L 19.921875 47.703125 
L 19.921875 0 
L 10.890625 0 
L 10.890625 47.703125 
L 2.296875 47.703125 
L 2.296875 54.6875 
L 10.890625 54.6875 
L 10.890625 58.5 
Q 10.890625 67.625 15.140625 71.796875 
Q 19.390625 75.984375 28.609375 75.984375 
z
" id="DejaVuSans-102"/>
      <path d="M 9.421875 54.6875 
L 18.40625 54.6875 
L 18.40625 0 
L 9.421875 0 
z
M 9.421875 75.984375 
L 18.40625 75.984375 
L 18.40625 64.59375 
L 9.421875 64.59375 
z
" id="DejaVuSans-105"/>
      <path d="M 41.109375 46.296875 
Q 39.59375 47.171875 37.8125 47.578125 
Q 36.03125 48 33.890625 48 
Q 26.265625 48 22.1875 43.046875 
Q 18.109375 38.09375 18.109375 28.8125 
L 18.109375 0 
L 9.078125 0 
L 9.078125 54.6875 
L 18.109375 54.6875 
L 18.109375 46.1875 
Q 20.953125 51.171875 25.484375 53.578125 
Q 30.03125 56 36.53125 56 
Q 37.453125 56 38.578125 55.875 
Q 39.703125 55.765625 41.0625 55.515625 
z
" id="DejaVuSans-114"/>
      <path d="M 52 44.1875 
Q 55.375 50.25 60.0625 53.125 
Q 64.75 56 71.09375 56 
Q 79.640625 56 84.28125 50.015625 
Q 88.921875 44.046875 88.921875 33.015625 
L 88.921875 0 
L 79.890625 0 
L 79.890625 32.71875 
Q 79.890625 40.578125 77.09375 44.375 
Q 74.3125 48.1875 68.609375 48.1875 
Q 61.625 48.1875 57.5625 43.546875 
Q 53.515625 38.921875 53.515625 30.90625 
L 53.515625 0 
L 44.484375 0 
L 44.484375 32.71875 
Q 44.484375 40.625 41.703125 44.40625 
Q 38.921875 48.1875 33.109375 48.1875 
Q 26.21875 48.1875 22.15625 43.53125 
Q 18.109375 38.875 18.109375 30.90625 
L 18.109375 0 
L 9.078125 0 
L 9.078125 54.6875 
L 18.109375 54.6875 
L 18.109375 46.1875 
Q 21.1875 51.21875 25.484375 53.609375 
Q 29.78125 56 35.6875 56 
Q 41.65625 56 45.828125 52.96875 
Q 50 49.953125 52 44.1875 
z
" id="DejaVuSans-109"/>
      <path d="M 56.203125 29.59375 
L 56.203125 25.203125 
L 14.890625 25.203125 
Q 15.484375 15.921875 20.484375 11.0625 
Q 25.484375 6.203125 34.421875 6.203125 
Q 39.59375 6.203125 44.453125 7.46875 
Q 49.3125 8.734375 54.109375 11.28125 
L 54.109375 2.78125 
Q 49.265625 0.734375 44.1875 -0.34375 
Q 39.109375 -1.421875 33.890625 -1.421875 
Q 20.796875 -1.421875 13.15625 6.1875 
Q 5.515625 13.8125 5.515625 26.8125 
Q 5.515625 40.234375 12.765625 48.109375 
Q 20.015625 56 32.328125 56 
Q 43.359375 56 49.78125 48.890625 
Q 56.203125 41.796875 56.203125 29.59375 
z
M 47.21875 32.234375 
Q 47.125 39.59375 43.09375 43.984375 
Q 39.0625 48.390625 32.421875 48.390625 
Q 24.90625 48.390625 20.390625 44.140625 
Q 15.875 39.890625 15.1875 32.171875 
z
" id="DejaVuSans-101"/>
      <path id="DejaVuSans-32"/>
     </defs>
     <g transform="translate(14.798438 199.20875)rotate(-90)scale(0.1 -0.1)">
      <use xlink:href="#DejaVuSans-99"/>
      <use x="54.980469" xlink:href="#DejaVuSans-111"/>
      <use x="116.162109" xlink:href="#DejaVuSans-110"/>
      <use x="179.541016" xlink:href="#DejaVuSans-102"/>
      <use x="214.746094" xlink:href="#DejaVuSans-105"/>
      <use x="242.529297" xlink:href="#DejaVuSans-114"/>
      <use x="283.626953" xlink:href="#DejaVuSans-109"/>
      <use x="381.039062" xlink:href="#DejaVuSans-101"/>
      <use x="442.5625" xlink:href="#DejaVuSans-100"/>
      <use x="506.039062" xlink:href="#DejaVuSans-32"/>
      <use x="537.826172" xlink:href="#DejaVuSans-99"/>
      <use x="592.806641" xlink:href="#DejaVuSans-97"/>
      <use x="654.085938" xlink:href="#DejaVuSans-115"/>
      <use x="706.185547" xlink:href="#DejaVuSans-101"/>
      <use x="767.708984" xlink:href="#DejaVuSans-115"/>
     </g>
    </g>
   </g>
   <g id="line2d_15">
    <path clip-path="url(#p1f085cd6ae)" d="M 76.155398 281.76358 
L 80.766968 277.707328 
L 85.378538 278.267807 
L 89.990108 278.696742 
L 94.601679 279.973833 
L 99.213249 276.846029 
L 103.824819 280.786603 
L 108.436389 277.454719 
L 113.04796 272.117119 
L 117.65953 271.879725 
L 122.2711 275.08944 
L 126.88267 271.773187 
L 131.494241 276.286276 
L 136.105811 272.931109 
L 140.717381 271.08297 
L 145.328951 276.363347 
L 149.940522 274.796803 
L 154.552092 272.422071 
L 159.163662 273.418254 
L 163.775232 271.971181 
L 168.386803 267.90637 
L 172.998373 263.768952 
L 177.609943 262.22184 
L 182.221513 267.715352 
L 186.833084 260.047857 
L 191.444654 263.735626 
L 196.056224 257.859106 
L 200.667794 257.490242 
L 205.279365 259.32804 
L 209.890935 254.837863 
L 214.502505 252.8417 
L 219.114075 244.846393 
L 223.725646 245.700244 
L 228.337216 244.632557 
L 232.948786 237.376138 
L 237.560356 232.061686 
L 242.171927 231.528274 
L 246.783497 224.998578 
L 251.395067 220.702655 
L 256.006637 215.587565 
L 260.618208 215.520423 
L 265.229778 211.217775 
L 269.841348 205.176412 
L 274.452918 196.865422 
L 279.064489 193.317581 
L 283.676059 190.109311 
L 288.287629 180.61766 
L 292.899199 174.976878 
L 297.51077 167.896714 
L 302.12234 167.322688 
L 306.73391 155.811774 
L 311.34548 152.437707 
L 315.957051 142.539337 
L 320.568621 143.801213 
L 325.180191 132.92259 
L 329.791761 126.005221 
L 334.403332 124.746079 
L 339.014902 116.800978 
L 343.626472 110.040033 
L 348.238042 112.557934 
L 352.849613 103.393858 
L 357.461183 99.472063 
L 362.072753 96.121978 
L 366.684323 94.830053 
L 371.295894 90.972803 
L 375.907464 80.049447 
L 380.519034 82.698139 
L 385.130604 77.079251 
L 389.742175 77.197458 
L 394.353745 74.790369 
L 398.965315 70.434491 
L 403.576885 66.150088 
L 408.188456 68.49274 
L 412.800026 66.376708 
L 417.411596 65.072205 
L 422.023166 62.64054 
L 426.634737 59.46791 
L 431.246307 52.514215 
L 435.857877 52.477125 
L 440.469447 53.891101 
L 445.081018 55.874604 
L 449.692588 52.986591 
L 454.304158 48.032982 
L 458.915728 46.850759 
L 463.527299 52.081731 
L 468.138869 53.281364 
L 472.750439 48.944311 
L 477.362009 48.84058 
L 481.97358 47.481124 
L 486.58515 47.796239 
L 491.19672 47.721432 
L 495.80829 46.061911 
L 500.419861 47.624205 
L 505.031431 43.182852 
L 509.643001 44.556624 
L 514.254571 45.561046 
L 518.866142 44.971225 
L 523.477712 42.760122 
L 528.089282 47.786655 
L 532.700852 42.879615 
" style="fill:none;stroke:#1f77b4;stroke-linecap:square;stroke-width:1.5;"/>
    <defs>
     <path d="M 0 1.5 
C 0.397805 1.5 0.77937 1.341951 1.06066 1.06066 
C 1.341951 0.77937 1.5 0.397805 1.5 0 
C 1.5 -0.397805 1.341951 -0.77937 1.06066 -1.06066 
C 0.77937 -1.341951 0.397805 -1.5 0 -1.5 
C -0.397805 -1.5 -0.77937 -1.341951 -1.06066 -1.06066 
C -1.341951 -0.77937 -1.5 -0.397805 -1.5 0 
C -1.5 0.397805 -1.341951 0.77937 -1.06066 1.06066 
C -0.77937 1.341951 -0.397805 1.5 0 1.5 
z
" id="m56a5536e3c" style="stroke:#1f77b4;"/>
    </defs>
    <g clip-path="url(#p1f085cd6ae)">
     <use style="fill:#1f77b4;stroke:#1f77b4;" x="76.155398" xlink:href="#m56a5536e3c" y="281.76358"/>
     <use style="fill:#1f77b4;stroke:#1f77b4;" x="80.766968" xlink:href="#m56a5536e3c" y="277.707328"/>
     <use style="fill:#1f77b4;stroke:#1f77b4;" x="85.378538" xlink:href="#m56a5536e3c" y="278.267807"/>
     <use style="fill:#1f77b4;stroke:#1f77b4;" x="89.990108" xlink:href="#m56a5536e3c" y="278.696742"/>
     <use style="fill:#1f77b4;stroke:#1f77b4;" x="94.601679" xlink:href="#m56a5536e3c" y="279.973833"/>
     <use style="fill:#1f77b4;stroke:#1f77b4;" x="99.213249" xlink:href="#m56a5536e3c" y="276.846029"/>
     <use style="fill:#1f77b4;stroke:#1f77b4;" x="103.824819" xlink:href="#m56a5536e3c" y="280.786603"/>
     <use style="fill:#1f77b4;stroke:#1f77b4;" x="108.436389" xlink:href="#m56a5536e3c" y="277.454719"/>
     <use style="fill:#1f77b4;stroke:#1f77b4;" x="113.04796" xlink:href="#m56a5536e3c" y="272.117119"/>
     <use style="fill:#1f77b4;stroke:#1f77b4;" x="117.65953" xlink:href="#m56a5536e3c" y="271.879725"/>
     <use style="fill:#1f77b4;stroke:#1f77b4;" x="122.2711" xlink:href="#m56a5536e3c" y="275.08944"/>
     <use style="fill:#1f77b4;stroke:#1f77b4;" x="126.88267" xlink:href="#m56a5536e3c" y="271.773187"/>
     <use style="fill:#1f77b4;stroke:#1f77b4;" x="131.494241" xlink:href="#m56a5536e3c" y="276.286276"/>
     <use style="fill:#1f77b4;stroke:#1f77b4;" x="136.105811" xlink:href="#m56a5536e3c" y="272.931109"/>
     <use style="fill:#1f77b4;stroke:#1f77b4;" x="140.717381" xlink:href="#m56a5536e3c" y="271.08297"/>
     <use style="fill:#1f77b4;stroke:#1f77b4;" x="145.328951" xlink:href="#m56a5536e3c" y="276.363347"/>
     <use style="fill:#1f77b4;stroke:#1f77b4;" x="149.940522" xlink:href="#m56a5536e3c" y="274.796803"/>
     <use style="fill:#1f77b4;stroke:#1f77b4;" x="154.552092" xlink:href="#m56a5536e3c" y="272.422071"/>
     <use style="fill:#1f77b4;stroke:#1f77b4;" x="159.163662" xlink:href="#m56a5536e3c" y="273.418254"/>
     <use style="fill:#1f77b4;stroke:#1f77b4;" x="163.775232" xlink:href="#m56a5536e3c" y="271.971181"/>
     <use style="fill:#1f77b4;stroke:#1f77b4;" x="168.386803" xlink:href="#m56a5536e3c" y="267.90637"/>
     <use style="fill:#1f77b4;stroke:#1f77b4;" x="172.998373" xlink:href="#m56a5536e3c" y="263.768952"/>
     <use style="fill:#1f77b4;stroke:#1f77b4;" x="177.609943" xlink:href="#m56a5536e3c" y="262.22184"/>
     <use style="fill:#1f77b4;stroke:#1f77b4;" x="182.221513" xlink:href="#m56a5536e3c" y="267.715352"/>
     <use style="fill:#1f77b4;stroke:#1f77b4;" x="186.833084" xlink:href="#m56a5536e3c" y="260.047857"/>
     <use style="fill:#1f77b4;stroke:#1f77b4;" x="191.444654" xlink:href="#m56a5536e3c" y="263.735626"/>
     <use style="fill:#1f77b4;stroke:#1f77b4;" x="196.056224" xlink:href="#m56a5536e3c" y="257.859106"/>
     <use style="fill:#1f77b4;stroke:#1f77b4;" x="200.667794" xlink:href="#m56a5536e3c" y="257.490242"/>
     <use style="fill:#1f77b4;stroke:#1f77b4;" x="205.279365" xlink:href="#m56a5536e3c" y="259.32804"/>
     <use style="fill:#1f77b4;stroke:#1f77b4;" x="209.890935" xlink:href="#m56a5536e3c" y="254.837863"/>
     <use style="fill:#1f77b4;stroke:#1f77b4;" x="214.502505" xlink:href="#m56a5536e3c" y="252.8417"/>
     <use style="fill:#1f77b4;stroke:#1f77b4;" x="219.114075" xlink:href="#m56a5536e3c" y="244.846393"/>
     <use style="fill:#1f77b4;stroke:#1f77b4;" x="223.725646" xlink:href="#m56a5536e3c" y="245.700244"/>
     <use style="fill:#1f77b4;stroke:#1f77b4;" x="228.337216" xlink:href="#m56a5536e3c" y="244.632557"/>
     <use style="fill:#1f77b4;stroke:#1f77b4;" x="232.948786" xlink:href="#m56a5536e3c" y="237.376138"/>
     <use style="fill:#1f77b4;stroke:#1f77b4;" x="237.560356" xlink:href="#m56a5536e3c" y="232.061686"/>
     <use style="fill:#1f77b4;stroke:#1f77b4;" x="242.171927" xlink:href="#m56a5536e3c" y="231.528274"/>
     <use style="fill:#1f77b4;stroke:#1f77b4;" x="246.783497" xlink:href="#m56a5536e3c" y="224.998578"/>
     <use style="fill:#1f77b4;stroke:#1f77b4;" x="251.395067" xlink:href="#m56a5536e3c" y="220.702655"/>
     <use style="fill:#1f77b4;stroke:#1f77b4;" x="256.006637" xlink:href="#m56a5536e3c" y="215.587565"/>
     <use style="fill:#1f77b4;stroke:#1f77b4;" x="260.618208" xlink:href="#m56a5536e3c" y="215.520423"/>
     <use style="fill:#1f77b4;stroke:#1f77b4;" x="265.229778" xlink:href="#m56a5536e3c" y="211.217775"/>
     <use style="fill:#1f77b4;stroke:#1f77b4;" x="269.841348" xlink:href="#m56a5536e3c" y="205.176412"/>
     <use style="fill:#1f77b4;stroke:#1f77b4;" x="274.452918" xlink:href="#m56a5536e3c" y="196.865422"/>
     <use style="fill:#1f77b4;stroke:#1f77b4;" x="279.064489" xlink:href="#m56a5536e3c" y="193.317581"/>
     <use style="fill:#1f77b4;stroke:#1f77b4;" x="283.676059" xlink:href="#m56a5536e3c" y="190.109311"/>
     <use style="fill:#1f77b4;stroke:#1f77b4;" x="288.287629" xlink:href="#m56a5536e3c" y="180.61766"/>
     <use style="fill:#1f77b4;stroke:#1f77b4;" x="292.899199" xlink:href="#m56a5536e3c" y="174.976878"/>
     <use style="fill:#1f77b4;stroke:#1f77b4;" x="297.51077" xlink:href="#m56a5536e3c" y="167.896714"/>
     <use style="fill:#1f77b4;stroke:#1f77b4;" x="302.12234" xlink:href="#m56a5536e3c" y="167.322688"/>
     <use style="fill:#1f77b4;stroke:#1f77b4;" x="306.73391" xlink:href="#m56a5536e3c" y="155.811774"/>
     <use style="fill:#1f77b4;stroke:#1f77b4;" x="311.34548" xlink:href="#m56a5536e3c" y="152.437707"/>
     <use style="fill:#1f77b4;stroke:#1f77b4;" x="315.957051" xlink:href="#m56a5536e3c" y="142.539337"/>
     <use style="fill:#1f77b4;stroke:#1f77b4;" x="320.568621" xlink:href="#m56a5536e3c" y="143.801213"/>
     <use style="fill:#1f77b4;stroke:#1f77b4;" x="325.180191" xlink:href="#m56a5536e3c" y="132.92259"/>
     <use style="fill:#1f77b4;stroke:#1f77b4;" x="329.791761" xlink:href="#m56a5536e3c" y="126.005221"/>
     <use style="fill:#1f77b4;stroke:#1f77b4;" x="334.403332" xlink:href="#m56a5536e3c" y="124.746079"/>
     <use style="fill:#1f77b4;stroke:#1f77b4;" x="339.014902" xlink:href="#m56a5536e3c" y="116.800978"/>
     <use style="fill:#1f77b4;stroke:#1f77b4;" x="343.626472" xlink:href="#m56a5536e3c" y="110.040033"/>
     <use style="fill:#1f77b4;stroke:#1f77b4;" x="348.238042" xlink:href="#m56a5536e3c" y="112.557934"/>
     <use style="fill:#1f77b4;stroke:#1f77b4;" x="352.849613" xlink:href="#m56a5536e3c" y="103.393858"/>
     <use style="fill:#1f77b4;stroke:#1f77b4;" x="357.461183" xlink:href="#m56a5536e3c" y="99.472063"/>
     <use style="fill:#1f77b4;stroke:#1f77b4;" x="362.072753" xlink:href="#m56a5536e3c" y="96.121978"/>
     <use style="fill:#1f77b4;stroke:#1f77b4;" x="366.684323" xlink:href="#m56a5536e3c" y="94.830053"/>
     <use style="fill:#1f77b4;stroke:#1f77b4;" x="371.295894" xlink:href="#m56a5536e3c" y="90.972803"/>
     <use style="fill:#1f77b4;stroke:#1f77b4;" x="375.907464" xlink:href="#m56a5536e3c" y="80.049447"/>
     <use style="fill:#1f77b4;stroke:#1f77b4;" x="380.519034" xlink:href="#m56a5536e3c" y="82.698139"/>
     <use style="fill:#1f77b4;stroke:#1f77b4;" x="385.130604" xlink:href="#m56a5536e3c" y="77.079251"/>
     <use style="fill:#1f77b4;stroke:#1f77b4;" x="389.742175" xlink:href="#m56a5536e3c" y="77.197458"/>
     <use style="fill:#1f77b4;stroke:#1f77b4;" x="394.353745" xlink:href="#m56a5536e3c" y="74.790369"/>
     <use style="fill:#1f77b4;stroke:#1f77b4;" x="398.965315" xlink:href="#m56a5536e3c" y="70.434491"/>
     <use style="fill:#1f77b4;stroke:#1f77b4;" x="403.576885" xlink:href="#m56a5536e3c" y="66.150088"/>
     <use style="fill:#1f77b4;stroke:#1f77b4;" x="408.188456" xlink:href="#m56a5536e3c" y="68.49274"/>
     <use style="fill:#1f77b4;stroke:#1f77b4;" x="412.800026" xlink:href="#m56a5536e3c" y="66.376708"/>
     <use style="fill:#1f77b4;stroke:#1f77b4;" x="417.411596" xlink:href="#m56a5536e3c" y="65.072205"/>
     <use style="fill:#1f77b4;stroke:#1f77b4;" x="422.023166" xlink:href="#m56a5536e3c" y="62.64054"/>
     <use style="fill:#1f77b4;stroke:#1f77b4;" x="426.634737" xlink:href="#m56a5536e3c" y="59.46791"/>
     <use style="fill:#1f77b4;stroke:#1f77b4;" x="431.246307" xlink:href="#m56a5536e3c" y="52.514215"/>
     <use style="fill:#1f77b4;stroke:#1f77b4;" x="435.857877" xlink:href="#m56a5536e3c" y="52.477125"/>
     <use style="fill:#1f77b4;stroke:#1f77b4;" x="440.469447" xlink:href="#m56a5536e3c" y="53.891101"/>
     <use style="fill:#1f77b4;stroke:#1f77b4;" x="445.081018" xlink:href="#m56a5536e3c" y="55.874604"/>
     <use style="fill:#1f77b4;stroke:#1f77b4;" x="449.692588" xlink:href="#m56a5536e3c" y="52.986591"/>
     <use style="fill:#1f77b4;stroke:#1f77b4;" x="454.304158" xlink:href="#m56a5536e3c" y="48.032982"/>
     <use style="fill:#1f77b4;stroke:#1f77b4;" x="458.915728" xlink:href="#m56a5536e3c" y="46.850759"/>
     <use style="fill:#1f77b4;stroke:#1f77b4;" x="463.527299" xlink:href="#m56a5536e3c" y="52.081731"/>
     <use style="fill:#1f77b4;stroke:#1f77b4;" x="468.138869" xlink:href="#m56a5536e3c" y="53.281364"/>
     <use style="fill:#1f77b4;stroke:#1f77b4;" x="472.750439" xlink:href="#m56a5536e3c" y="48.944311"/>
     <use style="fill:#1f77b4;stroke:#1f77b4;" x="477.362009" xlink:href="#m56a5536e3c" y="48.84058"/>
     <use style="fill:#1f77b4;stroke:#1f77b4;" x="481.97358" xlink:href="#m56a5536e3c" y="47.481124"/>
     <use style="fill:#1f77b4;stroke:#1f77b4;" x="486.58515" xlink:href="#m56a5536e3c" y="47.796239"/>
     <use style="fill:#1f77b4;stroke:#1f77b4;" x="491.19672" xlink:href="#m56a5536e3c" y="47.721432"/>
     <use style="fill:#1f77b4;stroke:#1f77b4;" x="495.80829" xlink:href="#m56a5536e3c" y="46.061911"/>
     <use style="fill:#1f77b4;stroke:#1f77b4;" x="500.419861" xlink:href="#m56a5536e3c" y="47.624205"/>
     <use style="fill:#1f77b4;stroke:#1f77b4;" x="505.031431" xlink:href="#m56a5536e3c" y="43.182852"/>
     <use style="fill:#1f77b4;stroke:#1f77b4;" x="509.643001" xlink:href="#m56a5536e3c" y="44.556624"/>
     <use style="fill:#1f77b4;stroke:#1f77b4;" x="514.254571" xlink:href="#m56a5536e3c" y="45.561046"/>
     <use style="fill:#1f77b4;stroke:#1f77b4;" x="518.866142" xlink:href="#m56a5536e3c" y="44.971225"/>
     <use style="fill:#1f77b4;stroke:#1f77b4;" x="523.477712" xlink:href="#m56a5536e3c" y="42.760122"/>
     <use style="fill:#1f77b4;stroke:#1f77b4;" x="528.089282" xlink:href="#m56a5536e3c" y="47.786655"/>
     <use style="fill:#1f77b4;stroke:#1f77b4;" x="532.700852" xlink:href="#m56a5536e3c" y="42.879615"/>
    </g>
   </g>
   <g id="line2d_16">
    <path clip-path="url(#p1f085cd6ae)" d="M 76.155398 278.394711 
L 80.766968 278.261402 
L 85.378538 278.113427 
L 89.990108 277.949203 
L 94.601679 277.766978 
L 99.213249 277.564821 
L 103.824819 277.340606 
L 108.436389 277.091989 
L 113.04796 276.816393 
L 117.65953 276.510988 
L 122.2711 276.172668 
L 126.88267 275.798032 
L 131.494241 275.38336 
L 136.105811 274.924594 
L 140.717381 274.417312 
L 145.328951 273.85671 
L 149.940522 273.237585 
L 154.552092 272.554313 
L 159.163662 271.800841 
L 163.775232 270.970677 
L 168.386803 270.056888 
L 172.998373 269.052108 
L 177.609943 267.948551 
L 182.221513 266.738047 
L 186.833084 265.412077 
L 191.444654 263.961842 
L 196.056224 262.378341 
L 200.667794 260.652472 
L 205.279365 258.775167 
L 209.890935 256.737541 
L 214.502505 254.531079 
L 219.114075 252.147844 
L 223.725646 249.580719 
L 228.337216 246.823662 
L 232.948786 243.871989 
L 237.560356 240.722664 
L 242.171927 237.374591 
L 246.783497 233.828894 
L 251.395067 230.089173 
L 256.006637 226.16172 
L 260.618208 222.055676 
L 265.229778 217.783115 
L 269.841348 213.359047 
L 274.452918 208.801311 
L 279.064489 204.130377 
L 283.676059 199.369038 
L 288.287629 194.542002 
L 292.899199 189.675408 
L 297.51077 184.796265 
L 302.12234 179.931866 
L 306.73391 175.109173 
L 311.34548 170.354229 
L 315.957051 165.691605 
L 320.568621 161.143919 
L 325.180191 156.73144 
L 329.791761 152.471786 
L 334.403332 148.37973 
L 339.014902 144.46711 
L 343.626472 140.742834 
L 348.238042 137.212969 
L 352.849613 133.880908 
L 357.461183 130.747585 
L 362.072753 127.811737 
L 366.684323 125.070184 
L 371.295894 122.518123 
L 375.907464 120.149415 
L 380.519034 117.956866 
L 385.130604 115.932486 
L 389.742175 114.067721 
L 394.353745 112.353667 
L 398.965315 110.781245 
L 403.576885 109.341359 
L 408.188456 108.02502 
L 412.800026 106.823448 
L 417.411596 105.728152 
L 422.023166 104.73099 
L 426.634737 103.824209 
L 431.246307 103.000479 
L 435.857877 102.252901 
L 440.469447 101.575019 
L 445.081018 100.960814 
L 449.692588 100.404698 
L 454.304158 99.901499 
L 458.915728 99.446447 
L 463.527299 99.035148 
L 468.138869 98.663573 
L 472.750439 98.328029 
L 477.362009 98.025138 
L 481.97358 97.751818 
L 486.58515 97.50526 
L 491.19672 97.282907 
L 495.80829 97.082433 
L 500.419861 96.901728 
L 505.031431 96.738876 
L 509.643001 96.592141 
L 514.254571 96.459949 
L 518.866142 96.340878 
L 523.477712 96.233641 
L 528.089282 96.137072 
L 532.700852 96.05012 
" style="fill:none;stroke:#ff7f0e;stroke-dasharray:5.55,2.4;stroke-dashoffset:0;stroke-width:1.5;"/>
   </g>
   <g id="line2d_17">
    <path clip-path="url(#p1f085cd6ae)" d="M 76.155398 278.209445 
L 80.766968 278.055589 
L 85.378538 277.884807 
L 89.990108 277.69527 
L 94.601679 277.484958 
L 99.213249 277.251643 
L 103.824819 276.992869 
L 108.436389 276.705932 
L 113.04796 276.387858 
L 117.65953 276.03538 
L 122.2711 275.644914 
L 126.88267 275.212535 
L 131.494241 274.73395 
L 136.105811 274.204473 
L 140.717381 273.619002 
L 145.328951 272.971994 
L 149.940522 272.257442 
L 154.552092 271.468856 
L 159.163662 270.599251 
L 163.775232 269.641132 
L 168.386803 268.586499 
L 172.998373 267.42685 
L 177.609943 266.153201 
L 182.221513 264.756119 
L 186.833084 263.225775 
L 191.444654 261.552013 
L 196.056224 259.724444 
L 200.667794 257.732564 
L 205.279365 255.565907 
L 209.890935 253.214218 
L 214.502505 250.66767 
L 219.114075 247.917103 
L 223.725646 244.954302 
L 228.337216 241.772295 
L 232.948786 238.365676 
L 237.560356 234.73094 
L 242.171927 230.866823 
L 246.783497 226.774622 
L 251.395067 222.458491 
L 256.006637 217.925693 
L 260.618208 213.186776 
L 265.229778 208.255679 
L 269.841348 203.149721 
L 274.452918 197.889494 
L 279.064489 192.498621 
L 283.676059 187.003408 
L 288.287629 181.432373 
L 292.899199 175.815682 
L 297.51077 170.184509 
L 302.12234 164.570351 
L 306.73391 159.004329 
L 311.34548 153.516497 
L 315.957051 148.135214 
L 320.568621 142.886586 
L 325.180191 137.794003 
L 329.791761 132.877801 
L 334.403332 128.15503 
L 339.014902 123.639351 
L 343.626472 119.341046 
L 348.238042 115.267117 
L 352.849613 111.421479 
L 357.461183 107.805212 
L 362.072753 104.416856 
L 366.684323 101.252743 
L 371.295894 98.307328 
L 375.907464 95.573527 
L 380.519034 93.043038 
L 385.130604 90.706636 
L 389.742175 88.554452 
L 394.353745 86.576207 
L 398.965315 84.761425 
L 403.576885 83.099607 
L 408.188456 81.580379 
L 412.800026 80.193606 
L 417.411596 78.929491 
L 422.023166 77.778634 
L 426.634737 76.73209 
L 431.246307 75.781396 
L 435.857877 74.918593 
L 440.469447 74.136227 
L 445.081018 73.427354 
L 449.692588 72.785523 
L 454.304158 72.204766 
L 458.915728 71.679575 
L 463.527299 71.204882 
L 468.138869 70.776036 
L 472.750439 70.388773 
L 477.362009 70.039197 
L 481.97358 69.72375 
L 486.58515 69.43919 
L 491.19672 69.182565 
L 495.80829 68.951192 
L 500.419861 68.742635 
L 505.031431 68.554682 
L 509.643001 68.38533 
L 514.254571 68.232763 
L 518.866142 68.09534 
L 523.477712 67.971573 
L 528.089282 67.86012 
L 532.700852 67.759767 
" style="fill:none;stroke:#2ca02c;stroke-linecap:square;stroke-width:1.5;"/>
   </g>
   <g id="line2d_18">
    <path clip-path="url(#p1f085cd6ae)" d="M 76.155398 277.992766 
L 80.766968 277.814879 
L 85.378538 277.617422 
L 89.990108 277.398281 
L 94.601679 277.155121 
L 99.213249 276.885364 
L 103.824819 276.586171 
L 108.436389 276.254417 
L 113.04796 275.886663 
L 117.65953 275.479131 
L 122.2711 275.027678 
L 126.88267 274.527765 
L 131.494241 273.974429 
L 136.105811 273.362252 
L 140.717381 272.685336 
L 145.328951 271.937271 
L 149.940522 271.111112 
L 154.552092 270.199356 
L 159.163662 269.193926 
L 163.775232 268.086157 
L 168.386803 266.8668 
L 172.998373 265.526024 
L 177.609943 264.053441 
L 182.221513 262.438147 
L 186.833084 260.668777 
L 191.444654 258.733588 
L 196.056224 256.620568 
L 200.667794 254.317574 
L 205.279365 251.812503 
L 209.890935 249.093501 
L 214.502505 246.149204 
L 219.114075 242.969023 
L 223.725646 239.543459 
L 228.337216 235.864449 
L 232.948786 231.925745 
L 237.560356 227.723296 
L 242.171927 223.255637 
L 246.783497 218.524269 
L 251.395067 213.533996 
L 256.006637 208.293214 
L 260.618208 202.81412 
L 265.229778 197.112828 
L 269.841348 191.209364 
L 274.452918 185.127534 
L 279.064489 178.894654 
L 283.676059 172.541137 
L 288.287629 166.099954 
L 292.899199 159.605984 
L 297.51077 153.09527 
L 302.12234 146.60423 
L 306.73391 140.168843 
L 311.34548 133.823859 
L 315.957051 127.602067 
L 320.568621 121.533648 
L 325.180191 115.645649 
L 329.791761 109.961578 
L 334.403332 104.501151 
L 339.014902 99.280162 
L 343.626472 94.310499 
L 348.238042 89.600258 
L 352.849613 85.153965 
L 357.461183 80.972867 
L 362.072753 77.05528 
L 366.684323 73.39696 
L 371.295894 69.991497 
L 375.907464 66.8307 
L 380.519034 63.904969 
L 385.130604 61.203642 
L 389.742175 58.715306 
L 394.353745 56.428076 
L 398.965315 54.329841 
L 403.576885 52.408462 
L 408.188456 50.651943 
L 412.800026 49.048568 
L 417.411596 47.587009 
L 422.023166 46.256398 
L 426.634737 45.046393 
L 431.246307 43.947209 
L 435.857877 42.949643 
L 440.469447 42.045079 
L 445.081018 41.225486 
L 449.692588 40.483407 
L 454.304158 39.81194 
L 458.915728 39.204719 
L 463.527299 38.655883 
L 468.138869 38.160055 
L 472.750439 37.712305 
L 477.362009 37.308128 
L 481.97358 36.943412 
L 486.58515 36.614405 
L 491.19672 36.317698 
L 495.80829 36.050186 
L 500.419861 35.809054 
L 505.031431 35.591745 
L 509.643001 35.395941 
L 514.254571 35.219545 
L 518.866142 35.060658 
L 523.477712 34.91756 
L 528.089282 34.788698 
L 532.700852 34.67267 
" style="fill:none;stroke:#d62728;stroke-dasharray:5.55,2.4;stroke-dashoffset:0;stroke-width:1.5;"/>
   </g>
   <g id="patch_3">
    <path d="M 53.328125 294.118125 
L 53.328125 22.318125 
" style="fill:none;stroke:#000000;stroke-linecap:square;stroke-linejoin:miter;stroke-width:0.8;"/>
   </g>
   <g id="patch_4">
    <path d="M 555.528125 294.118125 
L 555.528125 22.318125 
" style="fill:none;stroke:#000000;stroke-linecap:square;stroke-linejoin:miter;stroke-width:0.8;"/>
   </g>
   <g id="patch_5">
    <path d="M 53.328125 294.118125 
L 555.528125 294.118125 
" style="fill:none;stroke:#000000;stroke-linecap:square;stroke-linejoin:miter;stroke-width:0.8;"/>
   </g>
   <g id="patch_6">
    <path d="M 53.328125 22.318125 
L 555.528125 22.318125 
" style="fill:none;stroke:#000000;stroke-linecap:square;stroke-linejoin:miter;stroke-width:0.8;"/>
   </g>
   <g id="text_17">
    <!-- Prediction with confidence intervals -->
    <defs>
     <path d="M 19.671875 64.796875 
L 19.671875 37.40625 
L 32.078125 37.40625 
Q 38.96875 37.40625 42.71875 40.96875 
Q 46.484375 44.53125 46.484375 51.125 
Q 46.484375 57.671875 42.71875 61.234375 
Q 38.96875 64.796875 32.078125 64.796875 
z
M 9.8125 72.90625 
L 32.078125 72.90625 
Q 44.34375 72.90625 50.609375 67.359375 
Q 56.890625 61.8125 56.890625 51.125 
Q 56.890625 40.328125 50.609375 34.8125 
Q 44.34375 29.296875 32.078125 29.296875 
L 19.671875 29.296875 
L 19.671875 0 
L 9.8125 0 
z
" id="DejaVuSans-80"/>
     <path d="M 18.3125 70.21875 
L 18.3125 54.6875 
L 36.8125 54.6875 
L 36.8125 47.703125 
L 18.3125 47.703125 
L 18.3125 18.015625 
Q 18.3125 11.328125 20.140625 9.421875 
Q 21.96875 7.515625 27.59375 7.515625 
L 36.8125 7.515625 
L 36.8125 0 
L 27.59375 0 
Q 17.1875 0 13.234375 3.875 
Q 9.28125 7.765625 9.28125 18.015625 
L 9.28125 47.703125 
L 2.6875 47.703125 
L 2.6875 54.6875 
L 9.28125 54.6875 
L 9.28125 70.21875 
z
" id="DejaVuSans-116"/>
     <path d="M 4.203125 54.6875 
L 13.1875 54.6875 
L 24.421875 12.015625 
L 35.59375 54.6875 
L 46.1875 54.6875 
L 57.421875 12.015625 
L 68.609375 54.6875 
L 77.59375 54.6875 
L 63.28125 0 
L 52.6875 0 
L 40.921875 44.828125 
L 29.109375 0 
L 18.5 0 
z
" id="DejaVuSans-119"/>
     <path d="M 54.890625 33.015625 
L 54.890625 0 
L 45.90625 0 
L 45.90625 32.71875 
Q 45.90625 40.484375 42.875 44.328125 
Q 39.84375 48.1875 33.796875 48.1875 
Q 26.515625 48.1875 22.3125 43.546875 
Q 18.109375 38.921875 18.109375 30.90625 
L 18.109375 0 
L 9.078125 0 
L 9.078125 75.984375 
L 18.109375 75.984375 
L 18.109375 46.1875 
Q 21.34375 51.125 25.703125 53.5625 
Q 30.078125 56 35.796875 56 
Q 45.21875 56 50.046875 50.171875 
Q 54.890625 44.34375 54.890625 33.015625 
z
" id="DejaVuSans-104"/>
     <path d="M 2.984375 54.6875 
L 12.5 54.6875 
L 29.59375 8.796875 
L 46.6875 54.6875 
L 56.203125 54.6875 
L 35.6875 0 
L 23.484375 0 
z
" id="DejaVuSans-118"/>
     <path d="M 9.421875 75.984375 
L 18.40625 75.984375 
L 18.40625 0 
L 9.421875 0 
z
" id="DejaVuSans-108"/>
    </defs>
    <g transform="translate(197.090938 16.318125)scale(0.12 -0.12)">
     <use xlink:href="#DejaVuSans-80"/>
     <use x="60.287109" xlink:href="#DejaVuSans-114"/>
     <use x="101.369141" xlink:href="#DejaVuSans-101"/>
     <use x="162.892578" xlink:href="#DejaVuSans-100"/>
     <use x="226.369141" xlink:href="#DejaVuSans-105"/>
     <use x="254.152344" xlink:href="#DejaVuSans-99"/>
     <use x="309.132812" xlink:href="#DejaVuSans-116"/>
     <use x="348.341797" xlink:href="#DejaVuSans-105"/>
     <use x="376.125" xlink:href="#DejaVuSans-111"/>
     <use x="437.306641" xlink:href="#DejaVuSans-110"/>
     <use x="500.685547" xlink:href="#DejaVuSans-32"/>
     <use x="532.472656" xlink:href="#DejaVuSans-119"/>
     <use x="614.259766" xlink:href="#DejaVuSans-105"/>
     <use x="642.042969" xlink:href="#DejaVuSans-116"/>
     <use x="681.251953" xlink:href="#DejaVuSans-104"/>
     <use x="744.630859" xlink:href="#DejaVuSans-32"/>
     <use x="776.417969" xlink:href="#DejaVuSans-99"/>
     <use x="831.398438" xlink:href="#DejaVuSans-111"/>
     <use x="892.580078" xlink:href="#DejaVuSans-110"/>
     <use x="955.958984" xlink:href="#DejaVuSans-102"/>
     <use x="991.164062" xlink:href="#DejaVuSans-105"/>
     <use x="1018.947266" xlink:href="#DejaVuSans-100"/>
     <use x="1082.423828" xlink:href="#DejaVuSans-101"/>
     <use x="1143.947266" xlink:href="#DejaVuSans-110"/>
     <use x="1207.326172" xlink:href="#DejaVuSans-99"/>
     <use x="1262.306641" xlink:href="#DejaVuSans-101"/>
     <use x="1323.830078" xlink:href="#DejaVuSans-32"/>
     <use x="1355.617188" xlink:href="#DejaVuSans-105"/>
     <use x="1383.400391" xlink:href="#DejaVuSans-110"/>
     <use x="1446.779297" xlink:href="#DejaVuSans-116"/>
     <use x="1485.988281" xlink:href="#DejaVuSans-101"/>
     <use x="1547.511719" xlink:href="#DejaVuSans-114"/>
     <use x="1588.625" xlink:href="#DejaVuSans-118"/>
     <use x="1647.804688" xlink:href="#DejaVuSans-97"/>
     <use x="1709.083984" xlink:href="#DejaVuSans-108"/>
     <use x="1736.867188" xlink:href="#DejaVuSans-115"/>
    </g>
   </g>
   <g id="legend_1">
    <g id="patch_7">
     <path d="M 60.328125 89.030625 
L 114.853125 89.030625 
Q 116.853125 89.030625 116.853125 87.030625 
L 116.853125 29.318125 
Q 116.853125 27.318125 114.853125 27.318125 
L 60.328125 27.318125 
Q 58.328125 27.318125 58.328125 29.318125 
L 58.328125 87.030625 
Q 58.328125 89.030625 60.328125 89.030625 
z
" style="fill:#ffffff;opacity:0.8;stroke:#cccccc;stroke-linejoin:miter;"/>
    </g>
    <g id="line2d_19">
     <path d="M 62.328125 35.416563 
L 82.328125 35.416563 
" style="fill:none;stroke:#1f77b4;stroke-linecap:square;stroke-width:1.5;"/>
    </g>
    <g id="line2d_20">
     <g>
      <use style="fill:#1f77b4;stroke:#1f77b4;" x="72.328125" xlink:href="#m56a5536e3c" y="35.416563"/>
     </g>
    </g>
    <g id="text_18">
     <!-- data -->
     <g transform="translate(90.328125 38.916563)scale(0.1 -0.1)">
      <use xlink:href="#DejaVuSans-100"/>
      <use x="63.476562" xlink:href="#DejaVuSans-97"/>
      <use x="124.755859" xlink:href="#DejaVuSans-116"/>
      <use x="163.964844" xlink:href="#DejaVuSans-97"/>
     </g>
    </g>
    <g id="line2d_21">
     <path d="M 62.328125 50.094688 
L 82.328125 50.094688 
" style="fill:none;stroke:#ff7f0e;stroke-dasharray:5.55,2.4;stroke-dashoffset:0;stroke-width:1.5;"/>
    </g>
    <g id="line2d_22"/>
    <g id="text_19">
     <!-- 5% -->
     <defs>
      <path d="M 10.796875 72.90625 
L 49.515625 72.90625 
L 49.515625 64.59375 
L 19.828125 64.59375 
L 19.828125 46.734375 
Q 21.96875 47.46875 24.109375 47.828125 
Q 26.265625 48.1875 28.421875 48.1875 
Q 40.625 48.1875 47.75 41.5 
Q 54.890625 34.8125 54.890625 23.390625 
Q 54.890625 11.625 47.5625 5.09375 
Q 40.234375 -1.421875 26.90625 -1.421875 
Q 22.3125 -1.421875 17.546875 -0.640625 
Q 12.796875 0.140625 7.71875 1.703125 
L 7.71875 11.625 
Q 12.109375 9.234375 16.796875 8.0625 
Q 21.484375 6.890625 26.703125 6.890625 
Q 35.15625 6.890625 40.078125 11.328125 
Q 45.015625 15.765625 45.015625 23.390625 
Q 45.015625 31 40.078125 35.4375 
Q 35.15625 39.890625 26.703125 39.890625 
Q 22.75 39.890625 18.8125 39.015625 
Q 14.890625 38.140625 10.796875 36.28125 
z
" id="DejaVuSans-53"/>
      <path d="M 72.703125 32.078125 
Q 68.453125 32.078125 66.03125 28.46875 
Q 63.625 24.859375 63.625 18.40625 
Q 63.625 12.0625 66.03125 8.421875 
Q 68.453125 4.78125 72.703125 4.78125 
Q 76.859375 4.78125 79.265625 8.421875 
Q 81.6875 12.0625 81.6875 18.40625 
Q 81.6875 24.8125 79.265625 28.4375 
Q 76.859375 32.078125 72.703125 32.078125 
z
M 72.703125 38.28125 
Q 80.421875 38.28125 84.953125 32.90625 
Q 89.5 27.546875 89.5 18.40625 
Q 89.5 9.28125 84.9375 3.921875 
Q 80.375 -1.421875 72.703125 -1.421875 
Q 64.890625 -1.421875 60.34375 3.921875 
Q 55.8125 9.28125 55.8125 18.40625 
Q 55.8125 27.59375 60.375 32.9375 
Q 64.9375 38.28125 72.703125 38.28125 
z
M 22.3125 68.015625 
Q 18.109375 68.015625 15.6875 64.375 
Q 13.28125 60.75 13.28125 54.390625 
Q 13.28125 47.953125 15.671875 44.328125 
Q 18.0625 40.71875 22.3125 40.71875 
Q 26.5625 40.71875 28.96875 44.328125 
Q 31.390625 47.953125 31.390625 54.390625 
Q 31.390625 60.6875 28.953125 64.34375 
Q 26.515625 68.015625 22.3125 68.015625 
z
M 66.40625 74.21875 
L 74.21875 74.21875 
L 28.609375 -1.421875 
L 20.796875 -1.421875 
z
M 22.3125 74.21875 
Q 30.03125 74.21875 34.609375 68.875 
Q 39.203125 63.53125 39.203125 54.390625 
Q 39.203125 45.171875 34.640625 39.84375 
Q 30.078125 34.515625 22.3125 34.515625 
Q 14.546875 34.515625 10.03125 39.859375 
Q 5.515625 45.21875 5.515625 54.390625 
Q 5.515625 63.484375 10.046875 68.84375 
Q 14.59375 74.21875 22.3125 74.21875 
z
" id="DejaVuSans-37"/>
     </defs>
     <g transform="translate(90.328125 53.594688)scale(0.1 -0.1)">
      <use xlink:href="#DejaVuSans-53"/>
      <use x="63.623047" xlink:href="#DejaVuSans-37"/>
     </g>
    </g>
    <g id="line2d_23">
     <path d="M 62.328125 64.772813 
L 82.328125 64.772813 
" style="fill:none;stroke:#2ca02c;stroke-linecap:square;stroke-width:1.5;"/>
    </g>
    <g id="line2d_24"/>
    <g id="text_20">
     <!-- fit -->
     <g transform="translate(90.328125 68.272813)scale(0.1 -0.1)">
      <use xlink:href="#DejaVuSans-102"/>
      <use x="35.205078" xlink:href="#DejaVuSans-105"/>
      <use x="62.988281" xlink:href="#DejaVuSans-116"/>
     </g>
    </g>
    <g id="line2d_25">
     <path d="M 62.328125 79.450938 
L 82.328125 79.450938 
" style="fill:none;stroke:#d62728;stroke-dasharray:5.55,2.4;stroke-dashoffset:0;stroke-width:1.5;"/>
    </g>
    <g id="line2d_26"/>
    <g id="text_21">
     <!-- 95% -->
     <defs>
      <path d="M 10.984375 1.515625 
L 10.984375 10.5 
Q 14.703125 8.734375 18.5 7.8125 
Q 22.3125 6.890625 25.984375 6.890625 
Q 35.75 6.890625 40.890625 13.453125 
Q 46.046875 20.015625 46.78125 33.40625 
Q 43.953125 29.203125 39.59375 26.953125 
Q 35.25 24.703125 29.984375 24.703125 
Q 19.046875 24.703125 12.671875 31.3125 
Q 6.296875 37.9375 6.296875 49.421875 
Q 6.296875 60.640625 12.9375 67.421875 
Q 19.578125 74.21875 30.609375 74.21875 
Q 43.265625 74.21875 49.921875 64.515625 
Q 56.59375 54.828125 56.59375 36.375 
Q 56.59375 19.140625 48.40625 8.859375 
Q 40.234375 -1.421875 26.421875 -1.421875 
Q 22.703125 -1.421875 18.890625 -0.6875 
Q 15.09375 0.046875 10.984375 1.515625 
z
M 30.609375 32.421875 
Q 37.25 32.421875 41.125 36.953125 
Q 45.015625 41.5 45.015625 49.421875 
Q 45.015625 57.28125 41.125 61.84375 
Q 37.25 66.40625 30.609375 66.40625 
Q 23.96875 66.40625 20.09375 61.84375 
Q 16.21875 57.28125 16.21875 49.421875 
Q 16.21875 41.5 20.09375 36.953125 
Q 23.96875 32.421875 30.609375 32.421875 
z
" id="DejaVuSans-57"/>
     </defs>
     <g transform="translate(90.328125 82.950938)scale(0.1 -0.1)">
      <use xlink:href="#DejaVuSans-57"/>
      <use x="63.623047" xlink:href="#DejaVuSans-53"/>
      <use x="127.246094" xlink:href="#DejaVuSans-37"/>
     </g>
    </g>
   </g>
  </g>
 </g>
 <defs>
  <clipPath id="p1f085cd6ae">
   <rect height="271.8" width="502.2" x="53.328125" y="22.318125"/>
  </clipPath>
 </defs>
</svg>
