<?xml version="1.0" encoding="utf-8" standalone="no"?>
<!DOCTYPE svg PUBLIC "-//W3C//DTD SVG 1.1//EN"
  "http://www.w3.org/Graphics/SVG/1.1/DTD/svg11.dtd">
<!-- Created with matplotlib (https://matplotlib.org/) -->
<svg height="277.314375pt" version="1.1" viewBox="0 0 398.828125 277.314375" width="398.828125pt" xmlns="http://www.w3.org/2000/svg" xmlns:xlink="http://www.w3.org/1999/xlink">
 <defs>
  <style type="text/css">
*{stroke-linecap:butt;stroke-linejoin:round;}
  </style>
 </defs>
 <g id="figure_1">
  <g id="patch_1">
   <path d="M 0 277.314375 
L 398.828125 277.314375 
L 398.828125 0 
L 0 0 
z
" style="fill:none;"/>
  </g>
  <g id="axes_1">
   <g id="patch_2">
    <path d="M 53.328125 239.758125 
L 388.128125 239.758125 
L 388.128125 22.318125 
L 53.328125 22.318125 
z
" style="fill:#ffffff;"/>
   </g>
   <g id="matplotlib.axis_1">
    <g id="xtick_1">
     <g id="line2d_1">
      <defs>
       <path d="M 0 0 
L 0 3.5 
" id="m29c49849ae" style="stroke:#000000;stroke-width:0.8;"/>
      </defs>
      <g>
       <use style="stroke:#000000;stroke-width:0.8;" x="68.546307" xlink:href="#m29c49849ae" y="239.758125"/>
      </g>
     </g>
     <g id="text_1">
      <!-- 0 -->
      <defs>
       <path d="M 31.78125 66.40625 
Q 24.171875 66.40625 20.328125 58.90625 
Q 16.5 51.421875 16.5 36.375 
Q 16.5 21.390625 20.328125 13.890625 
Q 24.171875 6.390625 31.78125 6.390625 
Q 39.453125 6.390625 43.28125 13.890625 
Q 47.125 21.390625 47.125 36.375 
Q 47.125 51.421875 43.28125 58.90625 
Q 39.453125 66.40625 31.78125 66.40625 
z
M 31.78125 74.21875 
Q 44.046875 74.21875 50.515625 64.515625 
Q 56.984375 54.828125 56.984375 36.375 
Q 56.984375 17.96875 50.515625 8.265625 
Q 44.046875 -1.421875 31.78125 -1.421875 
Q 19.53125 -1.421875 13.0625 8.265625 
Q 6.59375 17.96875 6.59375 36.375 
Q 6.59375 54.828125 13.0625 64.515625 
Q 19.53125 74.21875 31.78125 74.21875 
z
" id="DejaVuSans-48"/>
      </defs>
      <g transform="translate(65.365057 254.356562)scale(0.1 -0.1)">
       <use xlink:href="#DejaVuSans-48"/>
      </g>
     </g>
    </g>
    <g id="xtick_2">
     <g id="line2d_2">
      <g>
       <use style="stroke:#000000;stroke-width:0.8;" x="129.419034" xlink:href="#m29c49849ae" y="239.758125"/>
      </g>
     </g>
     <g id="text_2">
      <!-- 20 -->
      <defs>
       <path d="M 19.1875 8.296875 
L 53.609375 8.296875 
L 53.609375 0 
L 7.328125 0 
L 7.328125 8.296875 
Q 12.9375 14.109375 22.625 23.890625 
Q 32.328125 33.6875 34.8125 36.53125 
Q 39.546875 41.84375 41.421875 45.53125 
Q 43.3125 49.21875 43.3125 52.78125 
Q 43.3125 58.59375 39.234375 62.25 
Q 35.15625 65.921875 28.609375 65.921875 
Q 23.96875 65.921875 18.8125 64.3125 
Q 13.671875 62.703125 7.8125 59.421875 
L 7.8125 69.390625 
Q 13.765625 71.78125 18.9375 73 
Q 24.125 74.21875 28.421875 74.21875 
Q 39.75 74.21875 46.484375 68.546875 
Q 53.21875 62.890625 53.21875 53.421875 
Q 53.21875 48.921875 51.53125 44.890625 
Q 49.859375 40.875 45.40625 35.40625 
Q 44.1875 33.984375 37.640625 27.21875 
Q 31.109375 20.453125 19.1875 8.296875 
z
" id="DejaVuSans-50"/>
      </defs>
      <g transform="translate(123.056534 254.356562)scale(0.1 -0.1)">
       <use xlink:href="#DejaVuSans-50"/>
       <use x="63.623047" xlink:href="#DejaVuSans-48"/>
      </g>
     </g>
    </g>
    <g id="xtick_3">
     <g id="line2d_3">
      <g>
       <use style="stroke:#000000;stroke-width:0.8;" x="190.291761" xlink:href="#m29c49849ae" y="239.758125"/>
      </g>
     </g>
     <g id="text_3">
      <!-- 40 -->
      <defs>
       <path d="M 37.796875 64.3125 
L 12.890625 25.390625 
L 37.796875 25.390625 
z
M 35.203125 72.90625 
L 47.609375 72.90625 
L 47.609375 25.390625 
L 58.015625 25.390625 
L 58.015625 17.1875 
L 47.609375 17.1875 
L 47.609375 0 
L 37.796875 0 
L 37.796875 17.1875 
L 4.890625 17.1875 
L 4.890625 26.703125 
z
" id="DejaVuSans-52"/>
      </defs>
      <g transform="translate(183.929261 254.356562)scale(0.1 -0.1)">
       <use xlink:href="#DejaVuSans-52"/>
       <use x="63.623047" xlink:href="#DejaVuSans-48"/>
      </g>
     </g>
    </g>
    <g id="xtick_4">
     <g id="line2d_4">
      <g>
       <use style="stroke:#000000;stroke-width:0.8;" x="251.164489" xlink:href="#m29c49849ae" y="239.758125"/>
      </g>
     </g>
     <g id="text_4">
      <!-- 60 -->
      <defs>
       <path d="M 33.015625 40.375 
Q 26.375 40.375 22.484375 35.828125 
Q 18.609375 31.296875 18.609375 23.390625 
Q 18.609375 15.53125 22.484375 10.953125 
Q 26.375 6.390625 33.015625 6.390625 
Q 39.65625 6.390625 43.53125 10.953125 
Q 47.40625 15.53125 47.40625 23.390625 
Q 47.40625 31.296875 43.53125 35.828125 
Q 39.65625 40.375 33.015625 40.375 
z
M 52.59375 71.296875 
L 52.59375 62.3125 
Q 48.875 64.0625 45.09375 64.984375 
Q 41.3125 65.921875 37.59375 65.921875 
Q 27.828125 65.921875 22.671875 59.328125 
Q 17.53125 52.734375 16.796875 39.40625 
Q 19.671875 43.65625 24.015625 45.921875 
Q 28.375 48.1875 33.59375 48.1875 
Q 44.578125 48.1875 50.953125 41.515625 
Q 57.328125 34.859375 57.328125 23.390625 
Q 57.328125 12.15625 50.6875 5.359375 
Q 44.046875 -1.421875 33.015625 -1.421875 
Q 20.359375 -1.421875 13.671875 8.265625 
Q 6.984375 17.96875 6.984375 36.375 
Q 6.984375 53.65625 15.1875 63.9375 
Q 23.390625 74.21875 37.203125 74.21875 
Q 40.921875 74.21875 44.703125 73.484375 
Q 48.484375 72.75 52.59375 71.296875 
z
" id="DejaVuSans-54"/>
      </defs>
      <g transform="translate(244.801989 254.356562)scale(0.1 -0.1)">
       <use xlink:href="#DejaVuSans-54"/>
       <use x="63.623047" xlink:href="#DejaVuSans-48"/>
      </g>
     </g>
    </g>
    <g id="xtick_5">
     <g id="line2d_5">
      <g>
       <use style="stroke:#000000;stroke-width:0.8;" x="312.037216" xlink:href="#m29c49849ae" y="239.758125"/>
      </g>
     </g>
     <g id="text_5">
      <!-- 80 -->
      <defs>
       <path d="M 31.78125 34.625 
Q 24.75 34.625 20.71875 30.859375 
Q 16.703125 27.09375 16.703125 20.515625 
Q 16.703125 13.921875 20.71875 10.15625 
Q 24.75 6.390625 31.78125 6.390625 
Q 38.8125 6.390625 42.859375 10.171875 
Q 46.921875 13.96875 46.921875 20.515625 
Q 46.921875 27.09375 42.890625 30.859375 
Q 38.875 34.625 31.78125 34.625 
z
M 21.921875 38.8125 
Q 15.578125 40.375 12.03125 44.71875 
Q 8.5 49.078125 8.5 55.328125 
Q 8.5 64.0625 14.71875 69.140625 
Q 20.953125 74.21875 31.78125 74.21875 
Q 42.671875 74.21875 48.875 69.140625 
Q 55.078125 64.0625 55.078125 55.328125 
Q 55.078125 49.078125 51.53125 44.71875 
Q 48 40.375 41.703125 38.8125 
Q 48.828125 37.15625 52.796875 32.3125 
Q 56.78125 27.484375 56.78125 20.515625 
Q 56.78125 9.90625 50.3125 4.234375 
Q 43.84375 -1.421875 31.78125 -1.421875 
Q 19.734375 -1.421875 13.25 4.234375 
Q 6.78125 9.90625 6.78125 20.515625 
Q 6.78125 27.484375 10.78125 32.3125 
Q 14.796875 37.15625 21.921875 38.8125 
z
M 18.3125 54.390625 
Q 18.3125 48.734375 21.84375 45.5625 
Q 25.390625 42.390625 31.78125 42.390625 
Q 38.140625 42.390625 41.71875 45.5625 
Q 45.3125 48.734375 45.3125 54.390625 
Q 45.3125 60.0625 41.71875 63.234375 
Q 38.140625 66.40625 31.78125 66.40625 
Q 25.390625 66.40625 21.84375 63.234375 
Q 18.3125 60.0625 18.3125 54.390625 
z
" id="DejaVuSans-56"/>
      </defs>
      <g transform="translate(305.674716 254.356562)scale(0.1 -0.1)">
       <use xlink:href="#DejaVuSans-56"/>
       <use x="63.623047" xlink:href="#DejaVuSans-48"/>
      </g>
     </g>
    </g>
    <g id="xtick_6">
     <g id="line2d_6">
      <g>
       <use style="stroke:#000000;stroke-width:0.8;" x="372.909943" xlink:href="#m29c49849ae" y="239.758125"/>
      </g>
     </g>
     <g id="text_6">
      <!-- 100 -->
      <defs>
       <path d="M 12.40625 8.296875 
L 28.515625 8.296875 
L 28.515625 63.921875 
L 10.984375 60.40625 
L 10.984375 69.390625 
L 28.421875 72.90625 
L 38.28125 72.90625 
L 38.28125 8.296875 
L 54.390625 8.296875 
L 54.390625 0 
L 12.40625 0 
z
" id="DejaVuSans-49"/>
      </defs>
      <g transform="translate(363.366193 254.356562)scale(0.1 -0.1)">
       <use xlink:href="#DejaVuSans-49"/>
       <use x="63.623047" xlink:href="#DejaVuSans-48"/>
       <use x="127.246094" xlink:href="#DejaVuSans-48"/>
      </g>
     </g>
    </g>
    <g id="text_7">
     <!-- days -->
     <defs>
      <path d="M 45.40625 46.390625 
L 45.40625 75.984375 
L 54.390625 75.984375 
L 54.390625 0 
L 45.40625 0 
L 45.40625 8.203125 
Q 42.578125 3.328125 38.25 0.953125 
Q 33.9375 -1.421875 27.875 -1.421875 
Q 17.96875 -1.421875 11.734375 6.484375 
Q 5.515625 14.40625 5.515625 27.296875 
Q 5.515625 40.1875 11.734375 48.09375 
Q 17.96875 56 27.875 56 
Q 33.9375 56 38.25 53.625 
Q 42.578125 51.265625 45.40625 46.390625 
z
M 14.796875 27.296875 
Q 14.796875 17.390625 18.875 11.75 
Q 22.953125 6.109375 30.078125 6.109375 
Q 37.203125 6.109375 41.296875 11.75 
Q 45.40625 17.390625 45.40625 27.296875 
Q 45.40625 37.203125 41.296875 42.84375 
Q 37.203125 48.484375 30.078125 48.484375 
Q 22.953125 48.484375 18.875 42.84375 
Q 14.796875 37.203125 14.796875 27.296875 
z
" id="DejaVuSans-100"/>
      <path d="M 34.28125 27.484375 
Q 23.390625 27.484375 19.1875 25 
Q 14.984375 22.515625 14.984375 16.5 
Q 14.984375 11.71875 18.140625 8.90625 
Q 21.296875 6.109375 26.703125 6.109375 
Q 34.1875 6.109375 38.703125 11.40625 
Q 43.21875 16.703125 43.21875 25.484375 
L 43.21875 27.484375 
z
M 52.203125 31.203125 
L 52.203125 0 
L 43.21875 0 
L 43.21875 8.296875 
Q 40.140625 3.328125 35.546875 0.953125 
Q 30.953125 -1.421875 24.3125 -1.421875 
Q 15.921875 -1.421875 10.953125 3.296875 
Q 6 8.015625 6 15.921875 
Q 6 25.140625 12.171875 29.828125 
Q 18.359375 34.515625 30.609375 34.515625 
L 43.21875 34.515625 
L 43.21875 35.40625 
Q 43.21875 41.609375 39.140625 45 
Q 35.0625 48.390625 27.6875 48.390625 
Q 23 48.390625 18.546875 47.265625 
Q 14.109375 46.140625 10.015625 43.890625 
L 10.015625 52.203125 
Q 14.9375 54.109375 19.578125 55.046875 
Q 24.21875 56 28.609375 56 
Q 40.484375 56 46.34375 49.84375 
Q 52.203125 43.703125 52.203125 31.203125 
z
" id="DejaVuSans-97"/>
      <path d="M 32.171875 -5.078125 
Q 28.375 -14.84375 24.75 -17.8125 
Q 21.140625 -20.796875 15.09375 -20.796875 
L 7.90625 -20.796875 
L 7.90625 -13.28125 
L 13.1875 -13.28125 
Q 16.890625 -13.28125 18.9375 -11.515625 
Q 21 -9.765625 23.484375 -3.21875 
L 25.09375 0.875 
L 2.984375 54.6875 
L 12.5 54.6875 
L 29.59375 11.921875 
L 46.6875 54.6875 
L 56.203125 54.6875 
z
" id="DejaVuSans-121"/>
      <path d="M 44.28125 53.078125 
L 44.28125 44.578125 
Q 40.484375 46.53125 36.375 47.5 
Q 32.28125 48.484375 27.875 48.484375 
Q 21.1875 48.484375 17.84375 46.4375 
Q 14.5 44.390625 14.5 40.28125 
Q 14.5 37.15625 16.890625 35.375 
Q 19.28125 33.59375 26.515625 31.984375 
L 29.59375 31.296875 
Q 39.15625 29.25 43.1875 25.515625 
Q 47.21875 21.78125 47.21875 15.09375 
Q 47.21875 7.46875 41.1875 3.015625 
Q 35.15625 -1.421875 24.609375 -1.421875 
Q 20.21875 -1.421875 15.453125 -0.5625 
Q 10.6875 0.296875 5.421875 2 
L 5.421875 11.28125 
Q 10.40625 8.6875 15.234375 7.390625 
Q 20.0625 6.109375 24.8125 6.109375 
Q 31.15625 6.109375 34.5625 8.28125 
Q 37.984375 10.453125 37.984375 14.40625 
Q 37.984375 18.0625 35.515625 20.015625 
Q 33.0625 21.96875 24.703125 23.78125 
L 21.578125 24.515625 
Q 13.234375 26.265625 9.515625 29.90625 
Q 5.8125 33.546875 5.8125 39.890625 
Q 5.8125 47.609375 11.28125 51.796875 
Q 16.75 56 26.8125 56 
Q 31.78125 56 36.171875 55.265625 
Q 40.578125 54.546875 44.28125 53.078125 
z
" id="DejaVuSans-115"/>
     </defs>
     <g transform="translate(208.925781 268.034687)scale(0.1 -0.1)">
      <use xlink:href="#DejaVuSans-100"/>
      <use x="63.476562" xlink:href="#DejaVuSans-97"/>
      <use x="124.755859" xlink:href="#DejaVuSans-121"/>
      <use x="183.935547" xlink:href="#DejaVuSans-115"/>
     </g>
    </g>
   </g>
   <g id="matplotlib.axis_2">
    <g id="ytick_1">
     <g id="line2d_7">
      <defs>
       <path d="M 0 0 
L -3.5 0 
" id="meedd5f6399" style="stroke:#000000;stroke-width:0.8;"/>
      </defs>
      <g>
       <use style="stroke:#000000;stroke-width:0.8;" x="53.328125" xlink:href="#meedd5f6399" y="228.353889"/>
      </g>
     </g>
     <g id="text_8">
      <!-- 0 -->
      <g transform="translate(39.965625 232.153108)scale(0.1 -0.1)">
       <use xlink:href="#DejaVuSans-48"/>
      </g>
     </g>
    </g>
    <g id="ytick_2">
     <g id="line2d_8">
      <g>
       <use style="stroke:#000000;stroke-width:0.8;" x="53.328125" xlink:href="#meedd5f6399" y="200.597842"/>
      </g>
     </g>
     <g id="text_9">
      <!-- 200 -->
      <g transform="translate(27.240625 204.397061)scale(0.1 -0.1)">
       <use xlink:href="#DejaVuSans-50"/>
       <use x="63.623047" xlink:href="#DejaVuSans-48"/>
       <use x="127.246094" xlink:href="#DejaVuSans-48"/>
      </g>
     </g>
    </g>
    <g id="ytick_3">
     <g id="line2d_9">
      <g>
       <use style="stroke:#000000;stroke-width:0.8;" x="53.328125" xlink:href="#meedd5f6399" y="172.841794"/>
      </g>
     </g>
     <g id="text_10">
      <!-- 400 -->
      <g transform="translate(27.240625 176.641013)scale(0.1 -0.1)">
       <use xlink:href="#DejaVuSans-52"/>
       <use x="63.623047" xlink:href="#DejaVuSans-48"/>
       <use x="127.246094" xlink:href="#DejaVuSans-48"/>
      </g>
     </g>
    </g>
    <g id="ytick_4">
     <g id="line2d_10">
      <g>
       <use style="stroke:#000000;stroke-width:0.8;" x="53.328125" xlink:href="#meedd5f6399" y="145.085747"/>
      </g>
     </g>
     <g id="text_11">
      <!-- 600 -->
      <g transform="translate(27.240625 148.884965)scale(0.1 -0.1)">
       <use xlink:href="#DejaVuSans-54"/>
       <use x="63.623047" xlink:href="#DejaVuSans-48"/>
       <use x="127.246094" xlink:href="#DejaVuSans-48"/>
      </g>
     </g>
    </g>
    <g id="ytick_5">
     <g id="line2d_11">
      <g>
       <use style="stroke:#000000;stroke-width:0.8;" x="53.328125" xlink:href="#meedd5f6399" y="117.329699"/>
      </g>
     </g>
     <g id="text_12">
      <!-- 800 -->
      <g transform="translate(27.240625 121.128918)scale(0.1 -0.1)">
       <use xlink:href="#DejaVuSans-56"/>
       <use x="63.623047" xlink:href="#DejaVuSans-48"/>
       <use x="127.246094" xlink:href="#DejaVuSans-48"/>
      </g>
     </g>
    </g>
    <g id="ytick_6">
     <g id="line2d_12">
      <g>
       <use style="stroke:#000000;stroke-width:0.8;" x="53.328125" xlink:href="#meedd5f6399" y="89.573651"/>
      </g>
     </g>
     <g id="text_13">
      <!-- 1000 -->
      <g transform="translate(20.878125 93.37287)scale(0.1 -0.1)">
       <use xlink:href="#DejaVuSans-49"/>
       <use x="63.623047" xlink:href="#DejaVuSans-48"/>
       <use x="127.246094" xlink:href="#DejaVuSans-48"/>
       <use x="190.869141" xlink:href="#DejaVuSans-48"/>
      </g>
     </g>
    </g>
    <g id="ytick_7">
     <g id="line2d_13">
      <g>
       <use style="stroke:#000000;stroke-width:0.8;" x="53.328125" xlink:href="#meedd5f6399" y="61.817604"/>
      </g>
     </g>
     <g id="text_14">
      <!-- 1200 -->
      <g transform="translate(20.878125 65.616822)scale(0.1 -0.1)">
       <use xlink:href="#DejaVuSans-49"/>
       <use x="63.623047" xlink:href="#DejaVuSans-50"/>
       <use x="127.246094" xlink:href="#DejaVuSans-48"/>
       <use x="190.869141" xlink:href="#DejaVuSans-48"/>
      </g>
     </g>
    </g>
    <g id="ytick_8">
     <g id="line2d_14">
      <g>
       <use style="stroke:#000000;stroke-width:0.8;" x="53.328125" xlink:href="#meedd5f6399" y="34.061556"/>
      </g>
     </g>
     <g id="text_15">
      <!-- 1400 -->
      <g transform="translate(20.878125 37.860775)scale(0.1 -0.1)">
       <use xlink:href="#DejaVuSans-49"/>
       <use x="63.623047" xlink:href="#DejaVuSans-52"/>
       <use x="127.246094" xlink:href="#DejaVuSans-48"/>
       <use x="190.869141" xlink:href="#DejaVuSans-48"/>
      </g>
     </g>
    </g>
    <g id="text_16">
     <!-- infected individuals -->
     <defs>
      <path d="M 9.421875 54.6875 
L 18.40625 54.6875 
L 18.40625 0 
L 9.421875 0 
z
M 9.421875 75.984375 
L 18.40625 75.984375 
L 18.40625 64.59375 
L 9.421875 64.59375 
z
" id="DejaVuSans-105"/>
      <path d="M 54.890625 33.015625 
L 54.890625 0 
L 45.90625 0 
L 45.90625 32.71875 
Q 45.90625 40.484375 42.875 44.328125 
Q 39.84375 48.1875 33.796875 48.1875 
Q 26.515625 48.1875 22.3125 43.546875 
Q 18.109375 38.921875 18.109375 30.90625 
L 18.109375 0 
L 9.078125 0 
L 9.078125 54.6875 
L 18.109375 54.6875 
L 18.109375 46.1875 
Q 21.34375 51.125 25.703125 53.5625 
Q 30.078125 56 35.796875 56 
Q 45.21875 56 50.046875 50.171875 
Q 54.890625 44.34375 54.890625 33.015625 
z
" id="DejaVuSans-110"/>
      <path d="M 37.109375 75.984375 
L 37.109375 68.5 
L 28.515625 68.5 
Q 23.6875 68.5 21.796875 66.546875 
Q 19.921875 64.59375 19.921875 59.515625 
L 19.921875 54.6875 
L 34.71875 54.6875 
L 34.71875 47.703125 
L 19.921875 47.703125 
L 19.921875 0 
L 10.890625 0 
L 10.890625 47.703125 
L 2.296875 47.703125 
L 2.296875 54.6875 
L 10.890625 54.6875 
L 10.890625 58.5 
Q 10.890625 67.625 15.140625 71.796875 
Q 19.390625 75.984375 28.609375 75.984375 
z
" id="DejaVuSans-102"/>
      <path d="M 56.203125 29.59375 
L 56.203125 25.203125 
L 14.890625 25.203125 
Q 15.484375 15.921875 20.484375 11.0625 
Q 25.484375 6.203125 34.421875 6.203125 
Q 39.59375 6.203125 44.453125 7.46875 
Q 49.3125 8.734375 54.109375 11.28125 
L 54.109375 2.78125 
Q 49.265625 0.734375 44.1875 -0.34375 
Q 39.109375 -1.421875 33.890625 -1.421875 
Q 20.796875 -1.421875 13.15625 6.1875 
Q 5.515625 13.8125 5.515625 26.8125 
Q 5.515625 40.234375 12.765625 48.109375 
Q 20.015625 56 32.328125 56 
Q 43.359375 56 49.78125 48.890625 
Q 56.203125 41.796875 56.203125 29.59375 
z
M 47.21875 32.234375 
Q 47.125 39.59375 43.09375 43.984375 
Q 39.0625 48.390625 32.421875 48.390625 
Q 24.90625 48.390625 20.390625 44.140625 
Q 15.875 39.890625 15.1875 32.171875 
z
" id="DejaVuSans-101"/>
      <path d="M 48.78125 52.59375 
L 48.78125 44.1875 
Q 44.96875 46.296875 41.140625 47.34375 
Q 37.3125 48.390625 33.40625 48.390625 
Q 24.65625 48.390625 19.8125 42.84375 
Q 14.984375 37.3125 14.984375 27.296875 
Q 14.984375 17.28125 19.8125 11.734375 
Q 24.65625 6.203125 33.40625 6.203125 
Q 37.3125 6.203125 41.140625 7.25 
Q 44.96875 8.296875 48.78125 10.40625 
L 48.78125 2.09375 
Q 45.015625 0.34375 40.984375 -0.53125 
Q 36.96875 -1.421875 32.421875 -1.421875 
Q 20.0625 -1.421875 12.78125 6.34375 
Q 5.515625 14.109375 5.515625 27.296875 
Q 5.515625 40.671875 12.859375 48.328125 
Q 20.21875 56 33.015625 56 
Q 37.15625 56 41.109375 55.140625 
Q 45.0625 54.296875 48.78125 52.59375 
z
" id="DejaVuSans-99"/>
      <path d="M 18.3125 70.21875 
L 18.3125 54.6875 
L 36.8125 54.6875 
L 36.8125 47.703125 
L 18.3125 47.703125 
L 18.3125 18.015625 
Q 18.3125 11.328125 20.140625 9.421875 
Q 21.96875 7.515625 27.59375 7.515625 
L 36.8125 7.515625 
L 36.8125 0 
L 27.59375 0 
Q 17.1875 0 13.234375 3.875 
Q 9.28125 7.765625 9.28125 18.015625 
L 9.28125 47.703125 
L 2.6875 47.703125 
L 2.6875 54.6875 
L 9.28125 54.6875 
L 9.28125 70.21875 
z
" id="DejaVuSans-116"/>
      <path id="DejaVuSans-32"/>
      <path d="M 2.984375 54.6875 
L 12.5 54.6875 
L 29.59375 8.796875 
L 46.6875 54.6875 
L 56.203125 54.6875 
L 35.6875 0 
L 23.484375 0 
z
" id="DejaVuSans-118"/>
      <path d="M 8.5 21.578125 
L 8.5 54.6875 
L 17.484375 54.6875 
L 17.484375 21.921875 
Q 17.484375 14.15625 20.5 10.265625 
Q 23.53125 6.390625 29.59375 6.390625 
Q 36.859375 6.390625 41.078125 11.03125 
Q 45.3125 15.671875 45.3125 23.6875 
L 45.3125 54.6875 
L 54.296875 54.6875 
L 54.296875 0 
L 45.3125 0 
L 45.3125 8.40625 
Q 42.046875 3.421875 37.71875 1 
Q 33.40625 -1.421875 27.6875 -1.421875 
Q 18.265625 -1.421875 13.375 4.4375 
Q 8.5 10.296875 8.5 21.578125 
z
M 31.109375 56 
z
" id="DejaVuSans-117"/>
      <path d="M 9.421875 75.984375 
L 18.40625 75.984375 
L 18.40625 0 
L 9.421875 0 
z
" id="DejaVuSans-108"/>
     </defs>
     <g transform="translate(14.798438 179.852187)rotate(-90)scale(0.1 -0.1)">
      <use xlink:href="#DejaVuSans-105"/>
      <use x="27.783203" xlink:href="#DejaVuSans-110"/>
      <use x="91.162109" xlink:href="#DejaVuSans-102"/>
      <use x="126.367188" xlink:href="#DejaVuSans-101"/>
      <use x="187.890625" xlink:href="#DejaVuSans-99"/>
      <use x="242.871094" xlink:href="#DejaVuSans-116"/>
      <use x="282.080078" xlink:href="#DejaVuSans-101"/>
      <use x="343.603516" xlink:href="#DejaVuSans-100"/>
      <use x="407.080078" xlink:href="#DejaVuSans-32"/>
      <use x="438.867188" xlink:href="#DejaVuSans-105"/>
      <use x="466.650391" xlink:href="#DejaVuSans-110"/>
      <use x="530.029297" xlink:href="#DejaVuSans-100"/>
      <use x="593.505859" xlink:href="#DejaVuSans-105"/>
      <use x="621.289062" xlink:href="#DejaVuSans-118"/>
      <use x="680.46875" xlink:href="#DejaVuSans-105"/>
      <use x="708.251953" xlink:href="#DejaVuSans-100"/>
      <use x="771.728516" xlink:href="#DejaVuSans-117"/>
      <use x="835.107422" xlink:href="#DejaVuSans-97"/>
      <use x="896.386719" xlink:href="#DejaVuSans-108"/>
      <use x="924.169922" xlink:href="#DejaVuSans-115"/>
     </g>
    </g>
   </g>
   <g id="line2d_15">
    <path clip-path="url(#pbb40b2bf0b)" d="M 68.546307 227.771784 
L 71.620687 227.374334 
L 74.695067 229.874489 
L 77.769447 227.71482 
L 80.843827 229.248055 
L 83.918208 229.161192 
L 86.992588 223.129046 
L 90.066968 222.704025 
L 93.141348 226.931898 
L 96.215728 225.588107 
L 99.290108 227.08556 
L 102.364489 225.94287 
L 105.438869 222.550771 
L 108.513249 226.739782 
L 111.587629 220.071141 
L 114.662009 221.615046 
L 117.736389 219.799174 
L 120.81077 222.199128 
L 123.88515 224.029492 
L 126.95953 222.482528 
L 130.03391 218.339348 
L 133.10829 217.86243 
L 136.18267 218.784533 
L 139.257051 212.675707 
L 142.331431 217.250047 
L 145.405811 211.070644 
L 148.480191 211.900972 
L 151.554571 212.284787 
L 154.628951 210.449245 
L 157.703332 207.459363 
L 160.777712 204.894696 
L 163.852092 205.058344 
L 166.926472 197.607883 
L 170.000852 200.73629 
L 173.075232 197.285396 
L 176.149613 190.366807 
L 179.223993 190.599623 
L 182.298373 188.300487 
L 185.372753 181.630316 
L 188.447133 176.69134 
L 191.521513 174.959596 
L 194.595894 171.575406 
L 197.670274 166.27627 
L 200.744654 161.059778 
L 203.819034 158.894394 
L 206.893414 154.690629 
L 209.967794 149.863462 
L 213.042175 146.607615 
L 216.116555 136.758644 
L 219.190935 136.214615 
L 222.265315 129.382447 
L 225.339695 127.193136 
L 228.414075 116.643372 
L 231.488456 114.056508 
L 234.562836 112.639902 
L 237.637216 102.455975 
L 240.711596 101.390964 
L 243.785976 99.512591 
L 246.860356 93.842219 
L 249.934737 85.008366 
L 253.009117 82.318005 
L 256.083497 79.773451 
L 259.157877 73.596821 
L 262.232257 76.997368 
L 265.306637 68.225427 
L 268.381018 66.522294 
L 271.455398 66.376645 
L 274.529778 65.580258 
L 277.604158 62.859258 
L 280.678538 59.023801 
L 283.752918 56.446111 
L 286.827299 54.704118 
L 289.901679 51.011046 
L 292.976059 51.120241 
L 296.050439 50.241018 
L 299.124819 46.021227 
L 302.199199 43.124238 
L 305.27358 44.348476 
L 308.34796 42.024057 
L 311.42234 44.846773 
L 314.49672 40.236181 
L 317.5711 41.609533 
L 320.64548 42.911565 
L 323.719861 39.453723 
L 326.794241 40.71661 
L 329.868621 42.350746 
L 332.943001 36.53684 
L 336.017381 40.194143 
L 339.091761 35.348455 
L 342.166142 40.420328 
L 345.240522 34.584276 
L 348.314902 34.591066 
L 351.389282 33.740331 
L 354.463662 38.672711 
L 357.538042 35.287623 
L 360.612423 34.886316 
L 363.686803 35.758302 
L 366.761183 32.201761 
L 369.835563 36.247252 
L 372.909943 38.581949 
" style="fill:none;stroke:#1f77b4;stroke-linecap:square;stroke-width:1.5;"/>
    <defs>
     <path d="M 0 1.5 
C 0.397805 1.5 0.77937 1.341951 1.06066 1.06066 
C 1.341951 0.77937 1.5 0.397805 1.5 0 
C 1.5 -0.397805 1.341951 -0.77937 1.06066 -1.06066 
C 0.77937 -1.341951 0.397805 -1.5 0 -1.5 
C -0.397805 -1.5 -0.77937 -1.341951 -1.06066 -1.06066 
C -1.341951 -0.77937 -1.5 -0.397805 -1.5 0 
C -1.5 0.397805 -1.341951 0.77937 -1.06066 1.06066 
C -0.77937 1.341951 -0.397805 1.5 0 1.5 
z
" id="m89f37fe4fc" style="stroke:#1f77b4;"/>
    </defs>
    <g clip-path="url(#pbb40b2bf0b)">
     <use style="fill:#1f77b4;stroke:#1f77b4;" x="68.546307" xlink:href="#m89f37fe4fc" y="227.771784"/>
     <use style="fill:#1f77b4;stroke:#1f77b4;" x="71.620687" xlink:href="#m89f37fe4fc" y="227.374334"/>
     <use style="fill:#1f77b4;stroke:#1f77b4;" x="74.695067" xlink:href="#m89f37fe4fc" y="229.874489"/>
     <use style="fill:#1f77b4;stroke:#1f77b4;" x="77.769447" xlink:href="#m89f37fe4fc" y="227.71482"/>
     <use style="fill:#1f77b4;stroke:#1f77b4;" x="80.843827" xlink:href="#m89f37fe4fc" y="229.248055"/>
     <use style="fill:#1f77b4;stroke:#1f77b4;" x="83.918208" xlink:href="#m89f37fe4fc" y="229.161192"/>
     <use style="fill:#1f77b4;stroke:#1f77b4;" x="86.992588" xlink:href="#m89f37fe4fc" y="223.129046"/>
     <use style="fill:#1f77b4;stroke:#1f77b4;" x="90.066968" xlink:href="#m89f37fe4fc" y="222.704025"/>
     <use style="fill:#1f77b4;stroke:#1f77b4;" x="93.141348" xlink:href="#m89f37fe4fc" y="226.931898"/>
     <use style="fill:#1f77b4;stroke:#1f77b4;" x="96.215728" xlink:href="#m89f37fe4fc" y="225.588107"/>
     <use style="fill:#1f77b4;stroke:#1f77b4;" x="99.290108" xlink:href="#m89f37fe4fc" y="227.08556"/>
     <use style="fill:#1f77b4;stroke:#1f77b4;" x="102.364489" xlink:href="#m89f37fe4fc" y="225.94287"/>
     <use style="fill:#1f77b4;stroke:#1f77b4;" x="105.438869" xlink:href="#m89f37fe4fc" y="222.550771"/>
     <use style="fill:#1f77b4;stroke:#1f77b4;" x="108.513249" xlink:href="#m89f37fe4fc" y="226.739782"/>
     <use style="fill:#1f77b4;stroke:#1f77b4;" x="111.587629" xlink:href="#m89f37fe4fc" y="220.071141"/>
     <use style="fill:#1f77b4;stroke:#1f77b4;" x="114.662009" xlink:href="#m89f37fe4fc" y="221.615046"/>
     <use style="fill:#1f77b4;stroke:#1f77b4;" x="117.736389" xlink:href="#m89f37fe4fc" y="219.799174"/>
     <use style="fill:#1f77b4;stroke:#1f77b4;" x="120.81077" xlink:href="#m89f37fe4fc" y="222.199128"/>
     <use style="fill:#1f77b4;stroke:#1f77b4;" x="123.88515" xlink:href="#m89f37fe4fc" y="224.029492"/>
     <use style="fill:#1f77b4;stroke:#1f77b4;" x="126.95953" xlink:href="#m89f37fe4fc" y="222.482528"/>
     <use style="fill:#1f77b4;stroke:#1f77b4;" x="130.03391" xlink:href="#m89f37fe4fc" y="218.339348"/>
     <use style="fill:#1f77b4;stroke:#1f77b4;" x="133.10829" xlink:href="#m89f37fe4fc" y="217.86243"/>
     <use style="fill:#1f77b4;stroke:#1f77b4;" x="136.18267" xlink:href="#m89f37fe4fc" y="218.784533"/>
     <use style="fill:#1f77b4;stroke:#1f77b4;" x="139.257051" xlink:href="#m89f37fe4fc" y="212.675707"/>
     <use style="fill:#1f77b4;stroke:#1f77b4;" x="142.331431" xlink:href="#m89f37fe4fc" y="217.250047"/>
     <use style="fill:#1f77b4;stroke:#1f77b4;" x="145.405811" xlink:href="#m89f37fe4fc" y="211.070644"/>
     <use style="fill:#1f77b4;stroke:#1f77b4;" x="148.480191" xlink:href="#m89f37fe4fc" y="211.900972"/>
     <use style="fill:#1f77b4;stroke:#1f77b4;" x="151.554571" xlink:href="#m89f37fe4fc" y="212.284787"/>
     <use style="fill:#1f77b4;stroke:#1f77b4;" x="154.628951" xlink:href="#m89f37fe4fc" y="210.449245"/>
     <use style="fill:#1f77b4;stroke:#1f77b4;" x="157.703332" xlink:href="#m89f37fe4fc" y="207.459363"/>
     <use style="fill:#1f77b4;stroke:#1f77b4;" x="160.777712" xlink:href="#m89f37fe4fc" y="204.894696"/>
     <use style="fill:#1f77b4;stroke:#1f77b4;" x="163.852092" xlink:href="#m89f37fe4fc" y="205.058344"/>
     <use style="fill:#1f77b4;stroke:#1f77b4;" x="166.926472" xlink:href="#m89f37fe4fc" y="197.607883"/>
     <use style="fill:#1f77b4;stroke:#1f77b4;" x="170.000852" xlink:href="#m89f37fe4fc" y="200.73629"/>
     <use style="fill:#1f77b4;stroke:#1f77b4;" x="173.075232" xlink:href="#m89f37fe4fc" y="197.285396"/>
     <use style="fill:#1f77b4;stroke:#1f77b4;" x="176.149613" xlink:href="#m89f37fe4fc" y="190.366807"/>
     <use style="fill:#1f77b4;stroke:#1f77b4;" x="179.223993" xlink:href="#m89f37fe4fc" y="190.599623"/>
     <use style="fill:#1f77b4;stroke:#1f77b4;" x="182.298373" xlink:href="#m89f37fe4fc" y="188.300487"/>
     <use style="fill:#1f77b4;stroke:#1f77b4;" x="185.372753" xlink:href="#m89f37fe4fc" y="181.630316"/>
     <use style="fill:#1f77b4;stroke:#1f77b4;" x="188.447133" xlink:href="#m89f37fe4fc" y="176.69134"/>
     <use style="fill:#1f77b4;stroke:#1f77b4;" x="191.521513" xlink:href="#m89f37fe4fc" y="174.959596"/>
     <use style="fill:#1f77b4;stroke:#1f77b4;" x="194.595894" xlink:href="#m89f37fe4fc" y="171.575406"/>
     <use style="fill:#1f77b4;stroke:#1f77b4;" x="197.670274" xlink:href="#m89f37fe4fc" y="166.27627"/>
     <use style="fill:#1f77b4;stroke:#1f77b4;" x="200.744654" xlink:href="#m89f37fe4fc" y="161.059778"/>
     <use style="fill:#1f77b4;stroke:#1f77b4;" x="203.819034" xlink:href="#m89f37fe4fc" y="158.894394"/>
     <use style="fill:#1f77b4;stroke:#1f77b4;" x="206.893414" xlink:href="#m89f37fe4fc" y="154.690629"/>
     <use style="fill:#1f77b4;stroke:#1f77b4;" x="209.967794" xlink:href="#m89f37fe4fc" y="149.863462"/>
     <use style="fill:#1f77b4;stroke:#1f77b4;" x="213.042175" xlink:href="#m89f37fe4fc" y="146.607615"/>
     <use style="fill:#1f77b4;stroke:#1f77b4;" x="216.116555" xlink:href="#m89f37fe4fc" y="136.758644"/>
     <use style="fill:#1f77b4;stroke:#1f77b4;" x="219.190935" xlink:href="#m89f37fe4fc" y="136.214615"/>
     <use style="fill:#1f77b4;stroke:#1f77b4;" x="222.265315" xlink:href="#m89f37fe4fc" y="129.382447"/>
     <use style="fill:#1f77b4;stroke:#1f77b4;" x="225.339695" xlink:href="#m89f37fe4fc" y="127.193136"/>
     <use style="fill:#1f77b4;stroke:#1f77b4;" x="228.414075" xlink:href="#m89f37fe4fc" y="116.643372"/>
     <use style="fill:#1f77b4;stroke:#1f77b4;" x="231.488456" xlink:href="#m89f37fe4fc" y="114.056508"/>
     <use style="fill:#1f77b4;stroke:#1f77b4;" x="234.562836" xlink:href="#m89f37fe4fc" y="112.639902"/>
     <use style="fill:#1f77b4;stroke:#1f77b4;" x="237.637216" xlink:href="#m89f37fe4fc" y="102.455975"/>
     <use style="fill:#1f77b4;stroke:#1f77b4;" x="240.711596" xlink:href="#m89f37fe4fc" y="101.390964"/>
     <use style="fill:#1f77b4;stroke:#1f77b4;" x="243.785976" xlink:href="#m89f37fe4fc" y="99.512591"/>
     <use style="fill:#1f77b4;stroke:#1f77b4;" x="246.860356" xlink:href="#m89f37fe4fc" y="93.842219"/>
     <use style="fill:#1f77b4;stroke:#1f77b4;" x="249.934737" xlink:href="#m89f37fe4fc" y="85.008366"/>
     <use style="fill:#1f77b4;stroke:#1f77b4;" x="253.009117" xlink:href="#m89f37fe4fc" y="82.318005"/>
     <use style="fill:#1f77b4;stroke:#1f77b4;" x="256.083497" xlink:href="#m89f37fe4fc" y="79.773451"/>
     <use style="fill:#1f77b4;stroke:#1f77b4;" x="259.157877" xlink:href="#m89f37fe4fc" y="73.596821"/>
     <use style="fill:#1f77b4;stroke:#1f77b4;" x="262.232257" xlink:href="#m89f37fe4fc" y="76.997368"/>
     <use style="fill:#1f77b4;stroke:#1f77b4;" x="265.306637" xlink:href="#m89f37fe4fc" y="68.225427"/>
     <use style="fill:#1f77b4;stroke:#1f77b4;" x="268.381018" xlink:href="#m89f37fe4fc" y="66.522294"/>
     <use style="fill:#1f77b4;stroke:#1f77b4;" x="271.455398" xlink:href="#m89f37fe4fc" y="66.376645"/>
     <use style="fill:#1f77b4;stroke:#1f77b4;" x="274.529778" xlink:href="#m89f37fe4fc" y="65.580258"/>
     <use style="fill:#1f77b4;stroke:#1f77b4;" x="277.604158" xlink:href="#m89f37fe4fc" y="62.859258"/>
     <use style="fill:#1f77b4;stroke:#1f77b4;" x="280.678538" xlink:href="#m89f37fe4fc" y="59.023801"/>
     <use style="fill:#1f77b4;stroke:#1f77b4;" x="283.752918" xlink:href="#m89f37fe4fc" y="56.446111"/>
     <use style="fill:#1f77b4;stroke:#1f77b4;" x="286.827299" xlink:href="#m89f37fe4fc" y="54.704118"/>
     <use style="fill:#1f77b4;stroke:#1f77b4;" x="289.901679" xlink:href="#m89f37fe4fc" y="51.011046"/>
     <use style="fill:#1f77b4;stroke:#1f77b4;" x="292.976059" xlink:href="#m89f37fe4fc" y="51.120241"/>
     <use style="fill:#1f77b4;stroke:#1f77b4;" x="296.050439" xlink:href="#m89f37fe4fc" y="50.241018"/>
     <use style="fill:#1f77b4;stroke:#1f77b4;" x="299.124819" xlink:href="#m89f37fe4fc" y="46.021227"/>
     <use style="fill:#1f77b4;stroke:#1f77b4;" x="302.199199" xlink:href="#m89f37fe4fc" y="43.124238"/>
     <use style="fill:#1f77b4;stroke:#1f77b4;" x="305.27358" xlink:href="#m89f37fe4fc" y="44.348476"/>
     <use style="fill:#1f77b4;stroke:#1f77b4;" x="308.34796" xlink:href="#m89f37fe4fc" y="42.024057"/>
     <use style="fill:#1f77b4;stroke:#1f77b4;" x="311.42234" xlink:href="#m89f37fe4fc" y="44.846773"/>
     <use style="fill:#1f77b4;stroke:#1f77b4;" x="314.49672" xlink:href="#m89f37fe4fc" y="40.236181"/>
     <use style="fill:#1f77b4;stroke:#1f77b4;" x="317.5711" xlink:href="#m89f37fe4fc" y="41.609533"/>
     <use style="fill:#1f77b4;stroke:#1f77b4;" x="320.64548" xlink:href="#m89f37fe4fc" y="42.911565"/>
     <use style="fill:#1f77b4;stroke:#1f77b4;" x="323.719861" xlink:href="#m89f37fe4fc" y="39.453723"/>
     <use style="fill:#1f77b4;stroke:#1f77b4;" x="326.794241" xlink:href="#m89f37fe4fc" y="40.71661"/>
     <use style="fill:#1f77b4;stroke:#1f77b4;" x="329.868621" xlink:href="#m89f37fe4fc" y="42.350746"/>
     <use style="fill:#1f77b4;stroke:#1f77b4;" x="332.943001" xlink:href="#m89f37fe4fc" y="36.53684"/>
     <use style="fill:#1f77b4;stroke:#1f77b4;" x="336.017381" xlink:href="#m89f37fe4fc" y="40.194143"/>
     <use style="fill:#1f77b4;stroke:#1f77b4;" x="339.091761" xlink:href="#m89f37fe4fc" y="35.348455"/>
     <use style="fill:#1f77b4;stroke:#1f77b4;" x="342.166142" xlink:href="#m89f37fe4fc" y="40.420328"/>
     <use style="fill:#1f77b4;stroke:#1f77b4;" x="345.240522" xlink:href="#m89f37fe4fc" y="34.584276"/>
     <use style="fill:#1f77b4;stroke:#1f77b4;" x="348.314902" xlink:href="#m89f37fe4fc" y="34.591066"/>
     <use style="fill:#1f77b4;stroke:#1f77b4;" x="351.389282" xlink:href="#m89f37fe4fc" y="33.740331"/>
     <use style="fill:#1f77b4;stroke:#1f77b4;" x="354.463662" xlink:href="#m89f37fe4fc" y="38.672711"/>
     <use style="fill:#1f77b4;stroke:#1f77b4;" x="357.538042" xlink:href="#m89f37fe4fc" y="35.287623"/>
     <use style="fill:#1f77b4;stroke:#1f77b4;" x="360.612423" xlink:href="#m89f37fe4fc" y="34.886316"/>
     <use style="fill:#1f77b4;stroke:#1f77b4;" x="363.686803" xlink:href="#m89f37fe4fc" y="35.758302"/>
     <use style="fill:#1f77b4;stroke:#1f77b4;" x="366.761183" xlink:href="#m89f37fe4fc" y="32.201761"/>
     <use style="fill:#1f77b4;stroke:#1f77b4;" x="369.835563" xlink:href="#m89f37fe4fc" y="36.247252"/>
     <use style="fill:#1f77b4;stroke:#1f77b4;" x="372.909943" xlink:href="#m89f37fe4fc" y="38.581949"/>
    </g>
   </g>
   <g id="line2d_16">
    <path clip-path="url(#pbb40b2bf0b)" d="M 68.546307 227.246878 
L 71.620687 227.124335 
L 74.695067 226.988333 
L 77.769447 226.837418 
L 80.843827 226.669986 
L 83.918208 226.484266 
L 86.992588 226.278307 
L 90.066968 226.049959 
L 93.141348 225.79686 
L 96.215728 225.51641 
L 99.290108 225.205761 
L 102.364489 224.861788 
L 105.438869 224.481074 
L 108.513249 224.059889 
L 111.587629 223.594165 
L 114.662009 223.079483 
L 117.736389 222.511048 
L 120.81077 221.883675 
L 123.88515 221.191777 
L 126.95953 220.429351 
L 130.03391 219.589981 
L 133.10829 218.666834 
L 136.18267 217.652675 
L 139.257051 216.539892 
L 142.331431 215.320527 
L 145.405811 213.986332 
L 148.480191 212.528834 
L 151.554571 210.93943 
L 154.628951 209.209492 
L 157.703332 207.33051 
L 160.777712 205.29425 
L 163.852092 203.092948 
L 166.926472 200.719518 
L 170.000852 198.167795 
L 173.075232 195.432792 
L 176.149613 192.51097 
L 179.223993 189.400512 
L 182.298373 186.101599 
L 185.372753 182.61666 
L 188.447133 178.950592 
L 191.521513 175.110936 
L 194.595894 171.107983 
L 197.670274 166.954811 
L 200.744654 162.667231 
L 203.819034 158.263634 
L 206.893414 153.76474 
L 209.967794 149.193258 
L 213.042175 144.573454 
L 216.116555 139.93065 
L 219.190935 135.290678 
L 222.265315 130.679306 
" style="fill:none;stroke:#ff7f0e;stroke-linecap:square;stroke-width:1.5;"/>
   </g>
   <g id="line2d_17">
    <path clip-path="url(#pbb40b2bf0b)" d="M 222.265315 130.679306 
L 225.339695 126.121671 
L 228.414075 121.641738 
L 231.488456 117.261816 
L 234.562836 113.002142 
L 237.637216 108.880561 
L 240.711596 104.912295 
L 243.785976 101.109814 
L 246.860356 97.482803 
L 249.934737 94.038213 
L 253.009117 90.780384 
L 256.083497 87.711232 
L 259.157877 84.83048 
L 262.232257 82.135912 
L 265.306637 79.623647 
L 268.381018 77.288418 
L 271.455398 75.123838 
L 274.529778 73.122653 
L 277.604158 71.276978 
L 280.678538 69.578503 
L 283.752918 68.018681 
L 286.827299 66.588878 
L 289.901679 65.28051 
L 292.976059 64.085146 
L 296.050439 62.994597 
L 299.124819 62.000978 
L 302.199199 61.096754 
L 305.27358 60.274779 
L 308.34796 59.528309 
L 311.42234 58.851019 
L 314.49672 58.236997 
L 317.5711 57.680745 
L 320.64548 57.177165 
L 323.719861 56.721545 
L 326.794241 56.309545 
L 329.868621 55.937173 
L 332.943001 55.600768 
L 336.017381 55.29698 
L 339.091761 55.022745 
L 342.166142 54.775272 
L 345.240522 54.552014 
L 348.314902 54.350657 
L 351.389282 54.169096 
L 354.463662 54.005421 
L 357.538042 53.857899 
L 360.612423 53.724959 
L 363.686803 53.605179 
L 366.761183 53.497272 
L 369.835563 53.400074 
L 372.909943 53.312532 
" style="fill:none;stroke:#2ca02c;stroke-dasharray:5.55,2.4;stroke-dashoffset:0;stroke-width:1.5;"/>
   </g>
   <g id="patch_3">
    <path d="M 53.328125 239.758125 
L 53.328125 22.318125 
" style="fill:none;stroke:#000000;stroke-linecap:square;stroke-linejoin:miter;stroke-width:0.8;"/>
   </g>
   <g id="patch_4">
    <path d="M 388.128125 239.758125 
L 388.128125 22.318125 
" style="fill:none;stroke:#000000;stroke-linecap:square;stroke-linejoin:miter;stroke-width:0.8;"/>
   </g>
   <g id="patch_5">
    <path d="M 53.328125 239.758125 
L 388.128125 239.758125 
" style="fill:none;stroke:#000000;stroke-linecap:square;stroke-linejoin:miter;stroke-width:0.8;"/>
   </g>
   <g id="patch_6">
    <path d="M 53.328125 22.318125 
L 388.128125 22.318125 
" style="fill:none;stroke:#000000;stroke-linecap:square;stroke-linejoin:miter;stroke-width:0.8;"/>
   </g>
   <g id="text_17">
    <!-- Logistic function with partial training data -->
    <defs>
     <path d="M 9.8125 72.90625 
L 19.671875 72.90625 
L 19.671875 8.296875 
L 55.171875 8.296875 
L 55.171875 0 
L 9.8125 0 
z
" id="DejaVuSans-76"/>
     <path d="M 30.609375 48.390625 
Q 23.390625 48.390625 19.1875 42.75 
Q 14.984375 37.109375 14.984375 27.296875 
Q 14.984375 17.484375 19.15625 11.84375 
Q 23.34375 6.203125 30.609375 6.203125 
Q 37.796875 6.203125 41.984375 11.859375 
Q 46.1875 17.53125 46.1875 27.296875 
Q 46.1875 37.015625 41.984375 42.703125 
Q 37.796875 48.390625 30.609375 48.390625 
z
M 30.609375 56 
Q 42.328125 56 49.015625 48.375 
Q 55.71875 40.765625 55.71875 27.296875 
Q 55.71875 13.875 49.015625 6.21875 
Q 42.328125 -1.421875 30.609375 -1.421875 
Q 18.84375 -1.421875 12.171875 6.21875 
Q 5.515625 13.875 5.515625 27.296875 
Q 5.515625 40.765625 12.171875 48.375 
Q 18.84375 56 30.609375 56 
z
" id="DejaVuSans-111"/>
     <path d="M 45.40625 27.984375 
Q 45.40625 37.75 41.375 43.109375 
Q 37.359375 48.484375 30.078125 48.484375 
Q 22.859375 48.484375 18.828125 43.109375 
Q 14.796875 37.75 14.796875 27.984375 
Q 14.796875 18.265625 18.828125 12.890625 
Q 22.859375 7.515625 30.078125 7.515625 
Q 37.359375 7.515625 41.375 12.890625 
Q 45.40625 18.265625 45.40625 27.984375 
z
M 54.390625 6.78125 
Q 54.390625 -7.171875 48.1875 -13.984375 
Q 42 -20.796875 29.203125 -20.796875 
Q 24.46875 -20.796875 20.265625 -20.09375 
Q 16.0625 -19.390625 12.109375 -17.921875 
L 12.109375 -9.1875 
Q 16.0625 -11.328125 19.921875 -12.34375 
Q 23.78125 -13.375 27.78125 -13.375 
Q 36.625 -13.375 41.015625 -8.765625 
Q 45.40625 -4.15625 45.40625 5.171875 
L 45.40625 9.625 
Q 42.625 4.78125 38.28125 2.390625 
Q 33.9375 0 27.875 0 
Q 17.828125 0 11.671875 7.65625 
Q 5.515625 15.328125 5.515625 27.984375 
Q 5.515625 40.671875 11.671875 48.328125 
Q 17.828125 56 27.875 56 
Q 33.9375 56 38.28125 53.609375 
Q 42.625 51.21875 45.40625 46.390625 
L 45.40625 54.6875 
L 54.390625 54.6875 
z
" id="DejaVuSans-103"/>
     <path d="M 4.203125 54.6875 
L 13.1875 54.6875 
L 24.421875 12.015625 
L 35.59375 54.6875 
L 46.1875 54.6875 
L 57.421875 12.015625 
L 68.609375 54.6875 
L 77.59375 54.6875 
L 63.28125 0 
L 52.6875 0 
L 40.921875 44.828125 
L 29.109375 0 
L 18.5 0 
z
" id="DejaVuSans-119"/>
     <path d="M 54.890625 33.015625 
L 54.890625 0 
L 45.90625 0 
L 45.90625 32.71875 
Q 45.90625 40.484375 42.875 44.328125 
Q 39.84375 48.1875 33.796875 48.1875 
Q 26.515625 48.1875 22.3125 43.546875 
Q 18.109375 38.921875 18.109375 30.90625 
L 18.109375 0 
L 9.078125 0 
L 9.078125 75.984375 
L 18.109375 75.984375 
L 18.109375 46.1875 
Q 21.34375 51.125 25.703125 53.5625 
Q 30.078125 56 35.796875 56 
Q 45.21875 56 50.046875 50.171875 
Q 54.890625 44.34375 54.890625 33.015625 
z
" id="DejaVuSans-104"/>
     <path d="M 18.109375 8.203125 
L 18.109375 -20.796875 
L 9.078125 -20.796875 
L 9.078125 54.6875 
L 18.109375 54.6875 
L 18.109375 46.390625 
Q 20.953125 51.265625 25.265625 53.625 
Q 29.59375 56 35.59375 56 
Q 45.5625 56 51.78125 48.09375 
Q 58.015625 40.1875 58.015625 27.296875 
Q 58.015625 14.40625 51.78125 6.484375 
Q 45.5625 -1.421875 35.59375 -1.421875 
Q 29.59375 -1.421875 25.265625 0.953125 
Q 20.953125 3.328125 18.109375 8.203125 
z
M 48.6875 27.296875 
Q 48.6875 37.203125 44.609375 42.84375 
Q 40.53125 48.484375 33.40625 48.484375 
Q 26.265625 48.484375 22.1875 42.84375 
Q 18.109375 37.203125 18.109375 27.296875 
Q 18.109375 17.390625 22.1875 11.75 
Q 26.265625 6.109375 33.40625 6.109375 
Q 40.53125 6.109375 44.609375 11.75 
Q 48.6875 17.390625 48.6875 27.296875 
z
" id="DejaVuSans-112"/>
     <path d="M 41.109375 46.296875 
Q 39.59375 47.171875 37.8125 47.578125 
Q 36.03125 48 33.890625 48 
Q 26.265625 48 22.1875 43.046875 
Q 18.109375 38.09375 18.109375 28.8125 
L 18.109375 0 
L 9.078125 0 
L 9.078125 54.6875 
L 18.109375 54.6875 
L 18.109375 46.1875 
Q 20.953125 51.171875 25.484375 53.578125 
Q 30.03125 56 36.53125 56 
Q 37.453125 56 38.578125 55.875 
Q 39.703125 55.765625 41.0625 55.515625 
z
" id="DejaVuSans-114"/>
    </defs>
    <g transform="translate(94.949375 16.318125)scale(0.12 -0.12)">
     <use xlink:href="#DejaVuSans-76"/>
     <use x="55.697266" xlink:href="#DejaVuSans-111"/>
     <use x="116.878906" xlink:href="#DejaVuSans-103"/>
     <use x="180.355469" xlink:href="#DejaVuSans-105"/>
     <use x="208.138672" xlink:href="#DejaVuSans-115"/>
     <use x="260.238281" xlink:href="#DejaVuSans-116"/>
     <use x="299.447266" xlink:href="#DejaVuSans-105"/>
     <use x="327.230469" xlink:href="#DejaVuSans-99"/>
     <use x="382.210938" xlink:href="#DejaVuSans-32"/>
     <use x="413.998047" xlink:href="#DejaVuSans-102"/>
     <use x="449.203125" xlink:href="#DejaVuSans-117"/>
     <use x="512.582031" xlink:href="#DejaVuSans-110"/>
     <use x="575.960938" xlink:href="#DejaVuSans-99"/>
     <use x="630.941406" xlink:href="#DejaVuSans-116"/>
     <use x="670.150391" xlink:href="#DejaVuSans-105"/>
     <use x="697.933594" xlink:href="#DejaVuSans-111"/>
     <use x="759.115234" xlink:href="#DejaVuSans-110"/>
     <use x="822.494141" xlink:href="#DejaVuSans-32"/>
     <use x="854.28125" xlink:href="#DejaVuSans-119"/>
     <use x="936.068359" xlink:href="#DejaVuSans-105"/>
     <use x="963.851562" xlink:href="#DejaVuSans-116"/>
     <use x="1003.060547" xlink:href="#DejaVuSans-104"/>
     <use x="1066.439453" xlink:href="#DejaVuSans-32"/>
     <use x="1098.226562" xlink:href="#DejaVuSans-112"/>
     <use x="1161.703125" xlink:href="#DejaVuSans-97"/>
     <use x="1222.982422" xlink:href="#DejaVuSans-114"/>
     <use x="1264.095703" xlink:href="#DejaVuSans-116"/>
     <use x="1303.304688" xlink:href="#DejaVuSans-105"/>
     <use x="1331.087891" xlink:href="#DejaVuSans-97"/>
     <use x="1392.367188" xlink:href="#DejaVuSans-108"/>
     <use x="1420.150391" xlink:href="#DejaVuSans-32"/>
     <use x="1451.9375" xlink:href="#DejaVuSans-116"/>
     <use x="1491.146484" xlink:href="#DejaVuSans-114"/>
     <use x="1532.259766" xlink:href="#DejaVuSans-97"/>
     <use x="1593.539062" xlink:href="#DejaVuSans-105"/>
     <use x="1621.322266" xlink:href="#DejaVuSans-110"/>
     <use x="1684.701172" xlink:href="#DejaVuSans-105"/>
     <use x="1712.484375" xlink:href="#DejaVuSans-110"/>
     <use x="1775.863281" xlink:href="#DejaVuSans-103"/>
     <use x="1839.339844" xlink:href="#DejaVuSans-32"/>
     <use x="1871.126953" xlink:href="#DejaVuSans-100"/>
     <use x="1934.603516" xlink:href="#DejaVuSans-97"/>
     <use x="1995.882812" xlink:href="#DejaVuSans-116"/>
     <use x="2035.091797" xlink:href="#DejaVuSans-97"/>
    </g>
   </g>
   <g id="legend_1">
    <g id="patch_7">
     <path d="M 60.328125 74.3525 
L 127.482812 74.3525 
Q 129.482812 74.3525 129.482812 72.3525 
L 129.482812 29.318125 
Q 129.482812 27.318125 127.482812 27.318125 
L 60.328125 27.318125 
Q 58.328125 27.318125 58.328125 29.318125 
L 58.328125 72.3525 
Q 58.328125 74.3525 60.328125 74.3525 
z
" style="fill:#ffffff;opacity:0.8;stroke:#cccccc;stroke-linejoin:miter;"/>
    </g>
    <g id="line2d_18">
     <path d="M 62.328125 35.416562 
L 82.328125 35.416562 
" style="fill:none;stroke:#1f77b4;stroke-linecap:square;stroke-width:1.5;"/>
    </g>
    <g id="line2d_19">
     <g>
      <use style="fill:#1f77b4;stroke:#1f77b4;" x="72.328125" xlink:href="#m89f37fe4fc" y="35.416562"/>
     </g>
    </g>
    <g id="text_18">
     <!-- data -->
     <g transform="translate(90.328125 38.916562)scale(0.1 -0.1)">
      <use xlink:href="#DejaVuSans-100"/>
      <use x="63.476562" xlink:href="#DejaVuSans-97"/>
      <use x="124.755859" xlink:href="#DejaVuSans-116"/>
      <use x="163.964844" xlink:href="#DejaVuSans-97"/>
     </g>
    </g>
    <g id="line2d_20">
     <path d="M 62.328125 50.094687 
L 82.328125 50.094687 
" style="fill:none;stroke:#ff7f0e;stroke-linecap:square;stroke-width:1.5;"/>
    </g>
    <g id="line2d_21"/>
    <g id="text_19">
     <!-- fit -->
     <g transform="translate(90.328125 53.594687)scale(0.1 -0.1)">
      <use xlink:href="#DejaVuSans-102"/>
      <use x="35.205078" xlink:href="#DejaVuSans-105"/>
      <use x="62.988281" xlink:href="#DejaVuSans-116"/>
     </g>
    </g>
    <g id="line2d_22">
     <path d="M 62.328125 64.772812 
L 82.328125 64.772812 
" style="fill:none;stroke:#2ca02c;stroke-dasharray:5.55,2.4;stroke-dashoffset:0;stroke-width:1.5;"/>
    </g>
    <g id="line2d_23"/>
    <g id="text_20">
     <!-- predict -->
     <g transform="translate(90.328125 68.272812)scale(0.1 -0.1)">
      <use xlink:href="#DejaVuSans-112"/>
      <use x="63.476562" xlink:href="#DejaVuSans-114"/>
      <use x="104.558594" xlink:href="#DejaVuSans-101"/>
      <use x="166.082031" xlink:href="#DejaVuSans-100"/>
      <use x="229.558594" xlink:href="#DejaVuSans-105"/>
      <use x="257.341797" xlink:href="#DejaVuSans-99"/>
      <use x="312.322266" xlink:href="#DejaVuSans-116"/>
     </g>
    </g>
   </g>
  </g>
 </g>
 <defs>
  <clipPath id="pbb40b2bf0b">
   <rect height="217.44" width="334.8" x="53.328125" y="22.318125"/>
  </clipPath>
 </defs>
</svg>
